<svg xmlns="http://www.w3.org/2000/svg" width="21.606" height="17.561" viewBox="0 0 21.606 17.561">
  <path id="twitter" d="M21.606,2.08a8.872,8.872,0,0,1-2.546.7A4.452,4.452,0,0,0,21.01.326,8.87,8.87,0,0,1,18.194,1.4a4.435,4.435,0,0,0-7.553,4.042A12.59,12.59,0,0,1,1.505.812,4.439,4.439,0,0,0,2.877,6.73,4.425,4.425,0,0,1,.871,6.176a4.438,4.438,0,0,0,3.556,4.4,4.443,4.443,0,0,1-2,.076,4.439,4.439,0,0,0,4.141,3.077A8.921,8.921,0,0,1,0,15.569a12.537,12.537,0,0,0,6.793,1.991,12.537,12.537,0,0,0,12.6-13.187A8.937,8.937,0,0,0,21.606,2.08Z" fill="#fff"/>
</svg>
