<svg id="Component_21_1" data-name="Component 21 – 1" xmlns="http://www.w3.org/2000/svg" width="90.54" height="99.006" viewBox="0 0 90.54 99.006">
  <g id="hexagon">
    <g id="Group_3288" data-name="Group 3288" transform="translate(0)">
      <path id="Path_7037" data-name="Path 7037" d="M55.437,12.56A18.189,18.189,0,0,1,64.794,10a22.652,22.652,0,0,1,12.757,3.861L101.763,28s8.938,5.707,8.938,14.561V74.244a19.333,19.333,0,0,1-9.358,17.121c-10.239,6.294-27.192,15.4-27.192,15.4s-8.183,6.462-22.072-2.56L30.385,91.827s-10.2-5.035-10.2-17.121V43.024s-.713-9.442,11.036-16.281Z" transform="translate(-20.18 -10)" fill="#72b63c"/>
    </g>
  </g>
  <g id="robot-svgrepo-com" transform="translate(19.275 25.752)">
    <path id="Path_23678" data-name="Path 23678" d="M4.5,27.466v-5.8a4.751,4.751,0,0,1,4.859-4.633H11.35A13.056,13.056,0,0,1,23.5,8H33.7a13.056,13.056,0,0,1,12.152,9.037,14.827,14.827,0,0,1,.825,4.9V27.2A13.484,13.484,0,0,1,33.7,41.137H23.5A13.056,13.056,0,0,1,11.35,32.1H9.359A4.751,4.751,0,0,1,4.5,27.466Z" transform="translate(-4.5 3.297)" fill="none" stroke="#fff" stroke-linecap="round" stroke-linejoin="round" stroke-width="1.5" fill-rule="evenodd"/>
    <path id="Path_23679" data-name="Path 23679" d="M22.55,16.525A6.025,6.025,0,1,1,16.525,10.5,6.025,6.025,0,0,1,22.55,16.525Z" transform="translate(7.575 8.328)" fill="none" stroke="#fff" stroke-linecap="round" stroke-linejoin="round" stroke-width="1.5" fill-rule="evenodd"/>
    <path id="Path_23680" data-name="Path 23680" d="M28.343,6.509a2.259,2.259,0,0,0-4.519,0Zm-4.519,9.037a2.259,2.259,0,0,0,4.519,0ZM6.7,40.389A2.259,2.259,0,0,0,10.968,38.9Zm1.308-5.644,2.259,0v0Zm0-5.26h2.259v0Zm2.959-4.158A2.259,2.259,0,0,0,6.7,23.841Zm32.365-3a2.259,2.259,0,1,0,0,4.519Zm1.991,2.259v2.259h.052Zm4.859,4.633h2.259c0-.018,0-.037,0-.055Zm0,5.8,2.259.055c0-.018,0-.037,0-.055Zm-4.859,4.633.052-2.259h-.052Zm-1.991-2.259a2.259,2.259,0,1,0,0,4.519ZM20.059,38.893a2.259,2.259,0,0,0,0,4.519Zm12.05,4.519a2.259,2.259,0,1,0,0-4.519Zm-8.284-36.9v9.037h4.519V6.509ZM10.968,38.9a12.568,12.568,0,0,1-.7-4.154L5.75,34.741A17.084,17.084,0,0,0,6.7,40.389Zm-.7-4.158v-5.26H5.75v5.26Zm0-5.263a12.568,12.568,0,0,1,.7-4.154L6.7,23.841a17.084,17.084,0,0,0-.951,5.648Zm33.065-2.638h1.991V22.325H43.333Zm2.044,0a2.491,2.491,0,0,1,2.548,2.43l4.517-.11a7.01,7.01,0,0,0-7.17-6.837Zm2.547,2.374v5.8h4.519v-5.8Zm0,5.741a2.491,2.491,0,0,1-2.548,2.43l-.1,4.517a7.01,7.01,0,0,0,7.17-6.837Zm-2.6,2.429H43.333v4.519h1.991ZM20.059,43.412h12.05V38.893H20.059Z" transform="translate(-1.984 -4.25)" fill="#fff" stroke="#fff" stroke-width="1"/>
  </g>
</svg>
