<svg id="Component_10_1" data-name="Component 10 – 1" xmlns="http://www.w3.org/2000/svg" width="102.633" height="112.23" viewBox="0 0 102.633 112.23">
  <g id="hexagon">
    <g id="Group_3288" data-name="Group 3288">
      <path id="Path_7037" data-name="Path 7037" d="M60.146,12.9A20.618,20.618,0,0,1,70.753,10a25.677,25.677,0,0,1,14.46,4.376l27.446,16.03s10.132,6.469,10.132,16.506V82.825a21.915,21.915,0,0,1-10.607,19.407c-11.606,7.135-30.823,17.457-30.823,17.457s-9.276,7.325-25.02-2.9L31.748,102.756S20.19,97.047,20.19,83.348V47.435s-.809-10.7,12.51-18.456Z" transform="translate(-20.18 -10)" fill="#72b63c"/>
    </g>
  </g>
  <g id="api-svgrepo-com" transform="translate(19.449 27.578)">
    <path id="Path_7185" data-name="Path 7185" d="M67.253,38.406l-2.187-1.263a27.344,27.344,0,0,0,.009-10.9l2.178-1.257a2.915,2.915,0,0,0,1.067-3.982L62.365,10.691a2.915,2.915,0,0,0-3.983-1.067L56.2,10.883A27.9,27.9,0,0,0,46.762,5.42V2.915A2.919,2.919,0,0,0,43.846,0H31.937a2.919,2.919,0,0,0-2.915,2.915V5.421a27.9,27.9,0,0,0-9.428,5.47L17.4,9.624a2.915,2.915,0,0,0-3.983,1.067L7.463,21.006A2.915,2.915,0,0,0,8.53,24.988l2.187,1.263a27.347,27.347,0,0,0-.009,10.9L8.53,38.406a2.919,2.919,0,0,0-1.067,3.983L13.418,52.7A2.919,2.919,0,0,0,17.4,53.77l2.179-1.258a27.9,27.9,0,0,0,9.441,5.462v2.5a2.919,2.919,0,0,0,2.915,2.915h11.91a2.919,2.919,0,0,0,2.915-2.915V57.974A27.9,27.9,0,0,0,56.19,52.5l2.192,1.266A2.919,2.919,0,0,0,62.365,52.7L68.32,42.389A2.919,2.919,0,0,0,67.253,38.406Zm-.545,3.052L60.753,51.773a1.055,1.055,0,0,1-1.44.386l-2.778-1.6a.93.93,0,0,0-1.1.123,25.989,25.989,0,0,1-9.882,5.731.931.931,0,0,0-.655.889v3.182a1.056,1.056,0,0,1-1.055,1.055H31.937a1.056,1.056,0,0,1-1.055-1.055V57.3a.931.931,0,0,0-.655-.889,25.993,25.993,0,0,1-9.894-5.724.93.93,0,0,0-1.1-.123l-2.765,1.6a1.056,1.056,0,0,1-1.44-.386L9.075,41.458a1.056,1.056,0,0,1,.386-1.441l2.763-1.6a.93.93,0,0,0,.442-1.011,25.57,25.57,0,0,1,.01-11.424.93.93,0,0,0-.442-1.01l-2.773-1.6a1.055,1.055,0,0,1-.386-1.44L15.03,11.622a1.055,1.055,0,0,1,1.441-.386l2.778,1.6a.93.93,0,0,0,1.1-.123,25.99,25.99,0,0,1,9.882-5.731.931.931,0,0,0,.655-.889V2.915a1.056,1.056,0,0,1,1.055-1.055h11.91A1.056,1.056,0,0,1,44.9,2.915V6.1a.931.931,0,0,0,.655.889A25.992,25.992,0,0,1,55.45,12.71a.93.93,0,0,0,1.1.123l2.765-1.6a1.055,1.055,0,0,1,1.441.386l5.955,10.314a1.055,1.055,0,0,1-.386,1.44l-2.763,1.6a.93.93,0,0,0-.442,1.011,25.57,25.57,0,0,1-.01,11.424.931.931,0,0,0,.442,1.01l2.773,1.6A1.056,1.056,0,0,1,66.708,41.458Z" transform="translate(-7.071)" fill="#fff"/>
    <path id="Path_7186" data-name="Path 7186" d="M122.8,104a18.8,18.8,0,1,0,18.8,18.8A18.816,18.816,0,0,0,122.8,104Zm0,35.729A16.934,16.934,0,1,1,139.729,122.8,16.953,16.953,0,0,1,122.8,139.729Z" transform="translate(-91.975 -91.098)" fill="#fff"/>
    <path id="Path_7187" data-name="Path 7187" d="M252.4,216H248.93a.93.93,0,0,0-.93.93v7.94a.93.93,0,1,0,1.861,0v-2.047H252.4a3.412,3.412,0,0,0,0-6.823Zm0,4.962h-2.543v-3.1H252.4a1.551,1.551,0,0,1,0,3.1Z" transform="translate(-218.11 -189.203)" fill="#fff"/>
    <path id="Path_7188" data-name="Path 7188" d="M173.77,216.6a.93.93,0,0,0-.871-.6h-.993a.93.93,0,0,0-.871.6l-2.977,7.94a.93.93,0,1,0,1.742.653l.518-1.381h4.169l.518,1.381a.93.93,0,1,0,1.742-.653Zm-2.754,5.351,1.387-3.7,1.387,3.7Z" transform="translate(-148.034 -189.203)" fill="#fff"/>
    <path id="Path_7189" data-name="Path 7189" d="M320.93,216a.93.93,0,0,0-.93.93v7.94a.93.93,0,1,0,1.861,0v-7.94A.93.93,0,0,0,320.93,216Z" transform="translate(-281.178 -189.203)" fill="#fff"/>
    <path id="Path_7190" data-name="Path 7190" d="M304.575,74.47c.646.206,1.289.445,1.913.71a.93.93,0,1,0,.729-1.712c-.677-.288-1.376-.548-2.077-.771a.93.93,0,1,0-.565,1.773Z" transform="translate(-267.099 -63.639)" fill="#fff"/>
    <path id="Path_7191" data-name="Path 7191" d="M88.112,336.479a.93.93,0,1,0-1.634.891,23.832,23.832,0,0,0,1.27,2.069.93.93,0,1,0,1.534-1.053A21.993,21.993,0,0,1,88.112,336.479Z" transform="translate(-76.527 -294.311)" fill="#fff"/>
    <path id="Path_7192" data-name="Path 7192" d="M134.91,386.534a21.921,21.921,0,0,1-13.326-6.084.93.93,0,1,0-1.295,1.337,23.787,23.787,0,0,0,14.461,6.6c.027,0,.054,0,.081,0a.93.93,0,0,0,.079-1.857Z" transform="translate(-105.996 -333.022)" fill="#fff"/>
    <path id="Path_7193" data-name="Path 7193" d="M353.148,96.141a.93.93,0,0,0-1.05,1.536,21.925,21.925,0,0,1,8.8,12.378.93.93,0,1,0,1.8-.484A23.785,23.785,0,0,0,353.148,96.141Z" transform="translate(-308.939 -84.071)" fill="#fff"/>
  </g>
</svg>
