<svg xmlns="http://www.w3.org/2000/svg" xmlns:xlink="http://www.w3.org/1999/xlink" width="687.799" height="447.34" viewBox="0 0 687.799 447.34">
  <defs>
    <linearGradient id="linear-gradient" x1="0.5" x2="0.5" y2="1" gradientUnits="objectBoundingBox">
      <stop offset="0" stop-color="#921fe7"/>
      <stop offset="1" stop-color="#3f0865"/>
    </linearGradient>
    <linearGradient id="linear-gradient-2" y1="0.5" x2="1" y2="0.5" gradientUnits="objectBoundingBox">
      <stop offset="0" stop-color="#acff68"/>
      <stop offset="0.999" stop-color="#251dfa"/>
      <stop offset="1" stop-color="#251dfa"/>
    </linearGradient>
    <linearGradient id="linear-gradient-7" y1="0.5" x2="1" y2="0.5" gradientUnits="objectBoundingBox">
      <stop offset="0" stop-color="#72b63c"/>
      <stop offset="0.999" stop-color="#acff68"/>
      <stop offset="1" stop-color="#03fca9"/>
    </linearGradient>
    <linearGradient id="linear-gradient-8" y1="0.5" x2="1" y2="0.5" gradientUnits="objectBoundingBox">
      <stop offset="0" stop-color="#a0df6d"/>
      <stop offset="0.999" stop-color="#acff68"/>
      <stop offset="1" stop-color="#03fca9"/>
    </linearGradient>
  </defs>
  <g id="Group_6602" data-name="Group 6602" transform="translate(-34.914 -25.44)">
    <g id="OBJECTS" transform="translate(34.914 25.44)">
      <path id="Path_23681" data-name="Path 23681" d="M177.146,90.57V68.632h-13.9A41.4,41.4,0,0,0,159.2,58.9l9.835-9.835L153.527,33.547l-9.835,9.835a41.5,41.5,0,0,0-9.737-4.039V25.44H112.017v13.9a41.509,41.509,0,0,0-9.738,4.039l-9.834-9.835L76.932,49.06,86.767,58.9a41.485,41.485,0,0,0-4.039,9.737h-13.9V90.57h13.9a41.5,41.5,0,0,0,4.039,9.737l-9.835,9.835,15.513,15.512,9.834-9.835a41.425,41.425,0,0,0,9.738,4.039v13.9h21.938v-13.9a41.418,41.418,0,0,0,9.737-4.039l9.835,9.835,15.512-15.512-9.835-9.835a41.417,41.417,0,0,0,4.039-9.737Zm-54.16,9.535a20.5,20.5,0,1,1,20.5-20.5A20.5,20.5,0,0,1,122.986,100.105Z" transform="translate(-34.914 -25.44)" fill="#8fcefd" opacity="0.38"/>
      <path id="Path_23682" data-name="Path 23682" d="M722.713,435.142V416.024H710.6a36.089,36.089,0,0,0-3.519-8.485l8.57-8.57L702.13,385.451l-8.57,8.57a36.141,36.141,0,0,0-8.486-3.52V378.386H665.957V390.5a36.159,36.159,0,0,0-8.486,3.52l-8.57-8.57-13.518,13.518,8.571,8.57a36.092,36.092,0,0,0-3.52,8.485H628.318v19.118h12.116a36.091,36.091,0,0,0,3.52,8.485l-8.571,8.571L648.9,465.716l8.57-8.571a36.159,36.159,0,0,0,8.486,3.52V472.78h19.117V460.665a36.141,36.141,0,0,0,8.486-3.52l8.57,8.571L715.648,452.2l-8.57-8.571a36.089,36.089,0,0,0,3.519-8.485Zm-47.2,8.309a17.868,17.868,0,1,1,17.868-17.868A17.868,17.868,0,0,1,675.516,443.451Z" transform="translate(-34.914 -25.44)" fill="#8fcefd" opacity="0.38"/>
      <g id="Group_6578" data-name="Group 6578" transform="translate(-34.914 -25.44)">
        <g id="Group_6577" data-name="Group 6577">
          <path id="Path_23683" data-name="Path 23683" d="M171.887,176.426h-4.326V162.064H90.034v14.362H85.707a13.421,13.421,0,0,0-13.421,13.421V414.1H185.308V189.847A13.421,13.421,0,0,0,171.887,176.426Z" fill="url(#linear-gradient)"/>
          <path id="Path_23684" data-name="Path 23684" d="M166.421,183.473h-3.777V169.536H94.951v13.937H91.174c-6.472,0-11.719,5.831-11.719,13.023V414.1h98.684V196.5C178.139,189.3,172.893,183.473,166.421,183.473Z" fill="#202060"/>
          <rect id="Rectangle_3501" data-name="Rectangle 3501" width="75.66" height="27.561" transform="translate(90.968 201.804)" fill="url(#linear-gradient-2)"/>
          <rect id="Rectangle_3502" data-name="Rectangle 3502" width="75.66" height="27.561" transform="translate(90.968 245.827)" fill="url(#linear-gradient-2)"/>
          <rect id="Rectangle_3503" data-name="Rectangle 3503" width="75.66" height="27.561" transform="translate(90.968 289.851)" fill="url(#linear-gradient-2)"/>
          <rect id="Rectangle_3504" data-name="Rectangle 3504" width="75.66" height="80.227" transform="translate(90.968 333.875)" fill="url(#linear-gradient-2)"/>
          <circle id="Ellipse_249" data-name="Ellipse 249" cx="10.216" cy="10.216" r="10.216" transform="translate(93.213 354.722) rotate(-45)" fill="#fff"/>
          <circle id="Ellipse_250" data-name="Ellipse 250" cx="10.216" cy="10.216" r="10.216" transform="translate(95.378 396.469) rotate(-76.776)" fill="#fff"/>
        </g>
        <rect id="Rectangle_3505" data-name="Rectangle 3505" width="62.201" height="8.28" transform="translate(104.426 300.529)" fill="#9f88fa"/>
        <rect id="Rectangle_3506" data-name="Rectangle 3506" width="62.201" height="8.28" transform="translate(104.426 256.411)" fill="#9f88fa"/>
        <rect id="Rectangle_3507" data-name="Rectangle 3507" width="62.201" height="8.28" transform="translate(104.426 212.293)" fill="#9f88fa"/>
      </g>
      <g id="Group_6581" data-name="Group 6581" transform="translate(-34.914 -25.44)">
        <path id="Path_23685" data-name="Path 23685" d="M504.708,357.564a20.883,20.883,0,0,0,20.664-21.094V184.781a20.883,20.883,0,0,0-20.664-21.094H245.048a20.883,20.883,0,0,0-20.664,21.094V336.47a20.883,20.883,0,0,0,20.664,21.094h99.023V378.6H292.918v9.916h163.92V378.6H405.685V357.564Z" fill="#59c2fc"/>
        <g id="Group_6580" data-name="Group 6580">
          <rect id="Rectangle_3508" data-name="Rectangle 3508" width="61.615" height="34.703" transform="translate(341.989 343.532)" fill="#202060"/>
          <g id="Group_6579" data-name="Group 6579">
            <path id="Path_23686" data-name="Path 23686" d="M504.708,156.953H245.048a20.883,20.883,0,0,0-20.664,21.094V329.735a20.883,20.883,0,0,0,20.664,21.094h259.66a20.883,20.883,0,0,0,20.664-21.094V178.047A20.883,20.883,0,0,0,504.708,156.953Z" fill="#6426bc"/>
            <path id="Path_23687" data-name="Path 23687" d="M495.379,167.4h-241a19,19,0,0,0-19.18,18.821V321.56a19,19,0,0,0,19.18,18.821h241a19,19,0,0,0,19.18-18.821V186.222A19,19,0,0,0,495.379,167.4Z" fill="url(#linear-gradient-2)"/>
          </g>
          <path id="Rectangle_3509" data-name="Rectangle 3509" d="M9.579,0H154.691a9.579,9.579,0,0,1,9.579,9.579v.336a0,0,0,0,1,0,0H0a0,0,0,0,1,0,0V9.579A9.579,9.579,0,0,1,9.579,0Z" transform="translate(292.743 371.861)" fill="#4141aa"/>
        </g>
      </g>
      <rect id="Rectangle_3510" data-name="Rectangle 3510" width="144.4" height="89.628" transform="translate(519.021 152.149)" fill="#4141aa"/>
      <rect id="Rectangle_3511" data-name="Rectangle 3511" width="144.4" height="89.628" transform="translate(519.021 252.593)" fill="#4141aa"/>
      <rect id="Rectangle_3512" data-name="Rectangle 3512" width="133.527" height="76.296" transform="translate(524.457 158.815)" fill="url(#linear-gradient-7)"/>
      <rect id="Rectangle_3513" data-name="Rectangle 3513" width="133.527" height="76.296" transform="translate(524.457 259.259)" fill="#fff"/>
      <g id="Group_6584" data-name="Group 6584" transform="translate(-34.914 -25.44)">
        <g id="Group_6582" data-name="Group 6582">
          <path id="Path_23688" data-name="Path 23688" d="M541.385,94.363V78.628h-9.972a29.736,29.736,0,0,0-2.9-6.984l7.054-7.054L524.444,53.463l-7.054,7.055a29.694,29.694,0,0,0-6.984-2.9V47.649H494.671v9.972a29.741,29.741,0,0,0-6.985,2.9l-7.054-7.054L469.506,64.59l7.054,7.054a29.736,29.736,0,0,0-2.9,6.984h-9.972V94.363h9.972a29.743,29.743,0,0,0,2.9,6.985l-7.054,7.054,11.126,11.126,7.054-7.054a29.743,29.743,0,0,0,6.985,2.9v9.972h15.735v-9.972a29.736,29.736,0,0,0,6.984-2.9l7.054,7.054L535.571,108.4l-7.054-7.054a29.743,29.743,0,0,0,2.9-6.985Zm-38.847,6.84A14.707,14.707,0,1,1,517.245,86.5,14.708,14.708,0,0,1,502.538,101.2Z" fill="#4141aa" opacity="0.35"/>
          <path id="Path_23689" data-name="Path 23689" d="M535.44,89.093V73.358h-9.972a29.784,29.784,0,0,0-2.9-6.985l7.054-7.054L518.5,48.193l-7.054,7.054a29.735,29.735,0,0,0-6.984-2.9V42.378H488.725V52.35a29.718,29.718,0,0,0-6.984,2.9l-7.055-7.054L463.56,59.319l7.054,7.054a29.742,29.742,0,0,0-2.9,6.985h-9.972V89.093h9.972a29.734,29.734,0,0,0,2.9,6.984l-7.054,7.054,11.126,11.126,7.055-7.054a29.676,29.676,0,0,0,6.984,2.9v9.972H504.46V110.1a29.693,29.693,0,0,0,6.984-2.9l7.054,7.054,11.127-11.126-7.054-7.054a29.777,29.777,0,0,0,2.9-6.984Zm-38.848,6.839A14.707,14.707,0,1,1,511.3,81.225,14.707,14.707,0,0,1,496.592,95.932Z" fill="url(#linear-gradient-8)"/>
        </g>
        <g id="Group_6583" data-name="Group 6583">
          <path id="Path_23690" data-name="Path 23690" d="M602.55,133.693v-11.43h-7.244a21.617,21.617,0,0,0-2.1-5.073l5.124-5.124-8.082-8.082-5.124,5.124a21.615,21.615,0,0,0-5.073-2.1V99.761H568.618V107a21.581,21.581,0,0,0-5.073,2.1l-5.124-5.124-8.082,8.082,5.124,5.124a21.62,21.62,0,0,0-2.105,5.073h-7.243v11.43h7.243a21.62,21.62,0,0,0,2.105,5.073l-5.124,5.124,8.082,8.081,5.124-5.123a21.581,21.581,0,0,0,5.073,2.1V156.2h11.429v-7.243a21.615,21.615,0,0,0,5.073-2.1l5.124,5.123,8.082-8.081-5.124-5.124a21.617,21.617,0,0,0,2.1-5.073Zm-28.218,4.968a10.683,10.683,0,1,1,10.683-10.683A10.682,10.682,0,0,1,574.332,138.661Z" fill="#4141aa" opacity="0.35"/>
          <path id="Path_23691" data-name="Path 23691" d="M598.231,129.864V118.435h-7.244a21.556,21.556,0,0,0-2.1-5.073l5.124-5.124-8.082-8.082L580.8,105.28a21.556,21.556,0,0,0-5.073-2.1V95.932H564.3v7.244a21.556,21.556,0,0,0-5.073,2.1l-5.124-5.124-8.082,8.082,5.124,5.124a21.556,21.556,0,0,0-2.1,5.073H541.8v11.429h7.244a21.556,21.556,0,0,0,2.1,5.073l-5.124,5.124,8.082,8.082,5.124-5.124a21.556,21.556,0,0,0,5.073,2.1v7.244h11.429v-7.244a21.556,21.556,0,0,0,5.073-2.1l5.124,5.124,8.082-8.082-5.124-5.124a21.556,21.556,0,0,0,2.1-5.073Zm-28.218,4.968A10.682,10.682,0,1,1,580.7,124.15,10.683,10.683,0,0,1,570.013,134.832Z" fill="url(#linear-gradient-7)"/>
        </g>
      </g>
      <g id="Group_6585" data-name="Group 6585" transform="translate(-34.914 -25.44)">
        <path id="Path_23692" data-name="Path 23692" d="M246.66,388.477H163.349a6.625,6.625,0,0,0-6.625,6.625v45.91a6.625,6.625,0,0,0,6.625,6.625h57.917l25.795,16.015-.4-16.015a6.625,6.625,0,0,0,6.626-6.625V395.1A6.625,6.625,0,0,0,246.66,388.477Zm-69.83,38.411a8.995,8.995,0,1,1,8.995-8.994A8.994,8.994,0,0,1,176.83,426.888Zm28.175,0A8.995,8.995,0,1,1,214,417.894,8.995,8.995,0,0,1,205.005,426.888Zm28.174,0a8.995,8.995,0,1,1,8.995-8.994A8.995,8.995,0,0,1,233.179,426.888Z" fill="#4141aa" opacity="0.35"/>
        <path id="Path_23693" data-name="Path 23693" d="M240.911,382.712H157.6a6.627,6.627,0,0,0-6.626,6.626v45.909a6.626,6.626,0,0,0,6.626,6.625h57.917l25.795,16.015-.4-16.015a6.625,6.625,0,0,0,6.626-6.625V389.338A6.626,6.626,0,0,0,240.911,382.712Zm-69.83,38.412a8.994,8.994,0,1,1,9-8.995A8.995,8.995,0,0,1,171.081,421.124Zm28.175,0a8.994,8.994,0,1,1,8.994-8.995A8.995,8.995,0,0,1,199.256,421.124Zm28.174,0a8.994,8.994,0,1,1,9-8.995A8.995,8.995,0,0,1,227.43,421.124Z" fill="url(#linear-gradient-7)"/>
      </g>
      <g id="Group_6589" data-name="Group 6589" transform="translate(-34.914 -25.44)">
        <g id="Group_6586" data-name="Group 6586">
          <path id="Path_23694" data-name="Path 23694" d="M596.858,242.507l-20.1-20.1,20.1-20.1,3.158,3.158L583.07,222.4l16.946,16.946Z" fill="#202060"/>
        </g>
        <g id="Group_6587" data-name="Group 6587">
          <path id="Path_23695" data-name="Path 23695" d="M655.411,242.507l-3.158-3.158L669.2,222.4l-16.946-16.946,3.158-3.158,20.1,20.1Z" fill="#202060"/>
        </g>
        <g id="Group_6588" data-name="Group 6588">
          <rect id="Rectangle_3514" data-name="Rectangle 3514" width="41.185" height="4.466" transform="matrix(0.437, -0.9, 0.9, 0.437, 615.494, 239.954)" fill="#202060"/>
        </g>
      </g>
      <g id="Group_6590" data-name="Group 6590" transform="translate(-34.914 -25.44)">
        <rect id="Rectangle_3515" data-name="Rectangle 3515" width="47.673" height="47.673" rx="6.656" transform="translate(604.202 301.561)" fill="#4141aa"/>
        <rect id="Rectangle_3516" data-name="Rectangle 3516" width="47.673" height="47.673" rx="6.656" transform="translate(600.395 296.819)" fill="url(#linear-gradient-2)"/>
        <path id="Path_23696" data-name="Path 23696" d="M634.586,320.656l-18.731-10.815V331.47Z" fill="#fff"/>
      </g>
      <g id="Group_6591" data-name="Group 6591" transform="translate(-34.914 -25.44)">
        <rect id="Rectangle_3517" data-name="Rectangle 3517" width="72.544" height="8.328" rx="3.254" transform="translate(127.039 79.601)" fill="#8fcefd"/>
        <rect id="Rectangle_3518" data-name="Rectangle 3518" width="120.115" height="8.327" rx="3.254" transform="translate(127.039 128.199)" fill="#8fcefd"/>
        <rect id="Rectangle_3519" data-name="Rectangle 3519" width="72.544" height="8.328" rx="3.254" transform="translate(127.039 111.205)" fill="#8fcefd"/>
        <rect id="Rectangle_3520" data-name="Rectangle 3520" width="37.915" height="8.328" rx="3.254" transform="translate(209.239 79.601)" fill="#8fcefd"/>
        <rect id="Rectangle_3521" data-name="Rectangle 3521" width="37.915" height="8.328" rx="3.254" transform="translate(209.239 111.205)" fill="#8fcefd"/>
        <rect id="Rectangle_3522" data-name="Rectangle 3522" width="51.188" height="8.817" rx="3.445" transform="translate(127.039 95.158)" fill="#8fcefd"/>
        <rect id="Rectangle_3523" data-name="Rectangle 3523" width="37.827" height="8.817" rx="3.445" transform="translate(187.023 95.158)" fill="#8fcefd"/>
        <rect id="Rectangle_3524" data-name="Rectangle 3524" width="13.487" height="8.817" rx="3.445" transform="translate(233.667 95.158)" fill="#8fcefd"/>
      </g>
      <g id="Group_6592" data-name="Group 6592" transform="translate(-34.914 -25.44)">
        <rect id="Rectangle_3525" data-name="Rectangle 3525" width="68.443" height="7.857" rx="3.254" transform="translate(615.854 399.694) rotate(180)" fill="#8fcefd"/>
        <rect id="Rectangle_3526" data-name="Rectangle 3526" width="113.324" height="7.857" rx="3.254" transform="translate(615.854 445.544) rotate(180)" fill="#8fcefd"/>
        <rect id="Rectangle_3527" data-name="Rectangle 3527" width="68.443" height="7.857" rx="3.254" transform="translate(615.854 429.511) rotate(180)" fill="#8fcefd"/>
        <rect id="Rectangle_3528" data-name="Rectangle 3528" width="35.772" height="7.857" rx="3.254" transform="translate(538.302 399.694) rotate(180)" fill="#8fcefd"/>
        <rect id="Rectangle_3529" data-name="Rectangle 3529" width="35.772" height="7.857" rx="3.254" transform="translate(538.302 429.511) rotate(180)" fill="#8fcefd"/>
        <rect id="Rectangle_3530" data-name="Rectangle 3530" width="48.294" height="8.319" rx="3.445" transform="translate(615.854 414.834) rotate(180)" fill="#8fcefd"/>
        <rect id="Rectangle_3531" data-name="Rectangle 3531" width="35.688" height="8.319" rx="3.445" transform="translate(559.262 414.834) rotate(180)" fill="#8fcefd"/>
        <rect id="Rectangle_3532" data-name="Rectangle 3532" width="12.724" height="8.319" rx="3.445" transform="translate(515.255 414.834) rotate(180)" fill="#8fcefd"/>
      </g>
      <g id="Group_6593" data-name="Group 6593" transform="translate(-34.914 -25.44)">
        <path id="Rectangle_3533" data-name="Rectangle 3533" d="M7.615,0H40.435A7.616,7.616,0,0,1,48.05,7.616V40.435a7.615,7.615,0,0,1-7.615,7.615H7.615A7.615,7.615,0,0,1,0,40.435V7.615A7.615,7.615,0,0,1,7.615,0Z" transform="translate(270.99 141.717)" fill="#4141aa"/>
        <rect id="Rectangle_3534" data-name="Rectangle 3534" width="48.05" height="48.05" rx="7.615" transform="translate(266.591 135.038)" fill="#fff"/>
        <path id="Path_23697" data-name="Path 23697" d="M305.326,155.377V153.3H300.09l2.149-5.178-1.919-.8-2.48,5.975h-9.691l2.149-5.178-1.919-.8L285.9,153.3H275.127v2.077h9.91l-2.906,7h-7v2.078h6.142l-3.055,7.362,1.919.8,3.385-8.158h9.692l-3.055,7.362,1.919.8,3.386-8.158h9.866v-2.078h-9l2.906-7Zm-11.254,7H284.38l2.907-7h9.691Z" fill="#8fcefd"/>
      </g>
      <g id="Group_6595" data-name="Group 6595" transform="translate(-34.914 -25.44)">
        <rect id="Rectangle_3535" data-name="Rectangle 3535" width="48.05" height="48.05" rx="7.615" transform="translate(432.448 319.695)" fill="#4141aa"/>
        <rect id="Rectangle_3536" data-name="Rectangle 3536" width="48.05" height="48.05" rx="7.615" transform="translate(428.049 313.016)" fill="#fff"/>
        <g id="Group_6594" data-name="Group 6594">
          <circle id="Ellipse_251" data-name="Ellipse 251" cx="7.721" cy="7.721" r="7.721" transform="translate(444.114 320.344)" fill="#8fcefd"/>
          <path id="Path_23698" data-name="Path 23698" d="M451.835,335.787h0c-7.107,0-12.87,4.9-12.87,10.938V355h25.741v-8.275C464.706,340.684,458.943,335.787,451.835,335.787Z" fill="#8fcefd"/>
        </g>
      </g>
      <circle id="Ellipse_252" data-name="Ellipse 252" cx="8.228" cy="8.228" r="8.228" transform="matrix(0.231, -0.973, 0.973, 0.231, 34.638, 112.605)" fill="#9f88fa"/>
      <circle id="Ellipse_253" data-name="Ellipse 253" cx="10.716" cy="10.716" r="10.716" transform="translate(604.672 99.969) rotate(-45)" fill="#202060"/>
      <circle id="Ellipse_254" data-name="Ellipse 254" cx="10.716" cy="10.716" r="10.716" transform="translate(236.195 392.454) rotate(-45)" fill="#202060"/>
      <circle id="Ellipse_255" data-name="Ellipse 255" cx="8.228" cy="8.228" r="8.228" transform="translate(616.96 380.434)" fill="#9f88fa"/>
      <circle id="Ellipse_256" data-name="Ellipse 256" cx="18.218" cy="18.218" r="18.218" transform="translate(19.154 368.471)" fill="none" stroke="#9f88fa" stroke-miterlimit="10" stroke-width="5"/>
      <line id="Line_1" data-name="Line 1" x2="280.872" transform="translate(0 43.127)" fill="none" stroke="#8fcefd" stroke-miterlimit="10" stroke-width="1" stroke-dasharray="3"/>
      <path id="Path_23699" data-name="Path 23699" d="M721.523,297.583v135.1H628.038" transform="translate(-34.914 -25.44)" fill="none" stroke="#8fcefd" stroke-miterlimit="10" stroke-width="1" stroke-dasharray="3"/>
      <line id="Line_2" data-name="Line 2" x2="152.843" transform="translate(284.683 404.907)" fill="none" stroke="#8fcefd" stroke-miterlimit="10" stroke-width="1" stroke-dasharray="3"/>
      <line id="Line_3" data-name="Line 3" x2="152.843" transform="translate(284.683 413.383)" fill="none" stroke="#8fcefd" stroke-miterlimit="10" stroke-width="1" stroke-dasharray="3"/>
      <line id="Line_4" data-name="Line 4" x2="155.471" transform="translate(524.457 46.937)" fill="none" stroke="#8fcefd" stroke-miterlimit="10" stroke-width="1" stroke-dasharray="3"/>
      <g id="Group_6596" data-name="Group 6596" transform="translate(-34.914 -25.44)">
        <path id="Path_23700" data-name="Path 23700" d="M134.609,185.894a5.811,5.811,0,1,1-5.812-5.812A5.812,5.812,0,0,1,134.609,185.894Z" fill="#fff"/>
        <path id="Path_23701" data-name="Path 23701" d="M253.348,185.894a5.812,5.812,0,1,1-5.811-5.812A5.812,5.812,0,0,1,253.348,185.894Z" fill="#fff"/>
        <line id="Line_5" data-name="Line 5" x2="118.357" transform="translate(128.797 185.894)" fill="none" stroke="#fff" stroke-miterlimit="10" stroke-width="1"/>
      </g>
      <g id="Group_6597" data-name="Group 6597" transform="translate(-34.914 -25.44)">
        <path id="Path_23702" data-name="Path 23702" d="M506.465,325.563a5.811,5.811,0,1,1-5.812-5.812A5.812,5.812,0,0,1,506.465,325.563Z" fill="#fff"/>
        <path id="Path_23703" data-name="Path 23703" d="M500.653,325.563h41.988V222.4h25.432" fill="none" stroke="#fff" stroke-miterlimit="10" stroke-width="1"/>
        <path id="Path_23704" data-name="Path 23704" d="M573.833,222.4a5.76,5.76,0,1,1-5.76-5.76A5.76,5.76,0,0,1,573.833,222.4Z" fill="#fff"/>
      </g>
      <g id="Group_6598" data-name="Group 6598" transform="translate(-34.914 -25.44)" opacity="0.7">
        <rect id="Rectangle_3537" data-name="Rectangle 3537" width="46.451" height="4.075" transform="translate(246.293 201.928)" fill="#fff"/>
        <rect id="Rectangle_3538" data-name="Rectangle 3538" width="46.451" height="4.075" transform="translate(246.293 210.38)" fill="#fff"/>
        <rect id="Rectangle_3539" data-name="Rectangle 3539" width="46.451" height="4.075" transform="translate(246.293 218.831)" fill="#fff"/>
        <rect id="Rectangle_3540" data-name="Rectangle 3540" width="46.451" height="4.075" transform="translate(246.293 227.283)" fill="#fff"/>
      </g>
      <g id="Group_6599" data-name="Group 6599" transform="translate(-34.914 -25.44)" opacity="0.7">
        <rect id="Rectangle_3541" data-name="Rectangle 3541" width="38.587" height="4.075" transform="translate(466.209 239.176)" fill="#fff"/>
        <rect id="Rectangle_3542" data-name="Rectangle 3542" width="38.587" height="4.075" transform="translate(466.209 247.628)" fill="#fff"/>
        <rect id="Rectangle_3543" data-name="Rectangle 3543" width="38.587" height="4.075" transform="translate(466.209 256.079)" fill="#fff"/>
        <rect id="Rectangle_3544" data-name="Rectangle 3544" width="38.587" height="4.075" transform="translate(466.209 264.531)" fill="#fff"/>
      </g>
      <g id="Group_6600" data-name="Group 6600" transform="translate(-34.914 -25.44)">
        <rect id="Rectangle_3545" data-name="Rectangle 3545" width="15.982" height="15.982" transform="translate(407.699 124.366)" fill="#8fcefd"/>
        <rect id="Rectangle_3546" data-name="Rectangle 3546" width="15.982" height="15.982" transform="translate(428.211 124.366)" fill="#8fcefd"/>
        <rect id="Rectangle_3547" data-name="Rectangle 3547" width="15.982" height="15.982" transform="translate(448.723 124.366)" fill="#8fcefd"/>
      </g>
    </g>
    <g id="TEXTS">
      <g id="Group_6601" data-name="Group 6601">
        <text id="API" transform="translate(375.083 275.47)" fill="#fff" font-size="96.341" font-family="SegoeUI, Segoe UI"><tspan x="-70.868" y="0">API</tspan></text>
        <text id="APPLICATION_PROGRAMMING_INTERFACE" data-name="APPLICATION PROGRAMMING INTERFACE" transform="translate(375.083 297.495)" fill="#fff" font-size="12.65" font-family="SegoeUI, Segoe UI"><tspan x="-118.181" y="0">APPLICATION PROGRAMMING INTERFACE</tspan></text>
      </g>
    </g>
  </g>
</svg>
