<svg id="Component_18_1" data-name="Component 18 – 1" xmlns="http://www.w3.org/2000/svg" xmlns:xlink="http://www.w3.org/1999/xlink" width="520" height="471.732" viewBox="0 0 520 471.732">
  <defs>
    <linearGradient id="linear-gradient" x1="22.952" y1="0.5" x2="23.952" y2="0.5" gradientUnits="objectBoundingBox">
      <stop offset="0" stop-color="#2f054a"/>
      <stop offset="1" stop-color="#5824b0"/>
    </linearGradient>
    <linearGradient id="linear-gradient-2" x1="23.084" y1="0.5" x2="24.084" y2="0.5" gradientUnits="objectBoundingBox">
      <stop offset="0.056" stop-color="#2f0d5e"/>
      <stop offset="0.278" stop-color="#2f105e"/>
      <stop offset="0.47" stop-color="#311b61"/>
      <stop offset="0.482" stop-color="#351f65"/>
      <stop offset="0.495" stop-color="#422c72"/>
      <stop offset="0.509" stop-color="#574188"/>
      <stop offset="0.523" stop-color="#755fa6"/>
      <stop offset="0.53" stop-color="#8770b8"/>
      <stop offset="0.537" stop-color="#7d66ae"/>
      <stop offset="0.562" stop-color="#5c458c"/>
      <stop offset="0.586" stop-color="#442e74"/>
      <stop offset="0.608" stop-color="#351f66"/>
      <stop offset="0.626" stop-color="#311b61"/>
      <stop offset="0.672" stop-color="#2a1054"/>
      <stop offset="0.749" stop-color="#220446"/>
      <stop offset="0.813" stop-color="#200041"/>
      <stop offset="1" stop-color="#200041"/>
    </linearGradient>
    <linearGradient id="linear-gradient-3" x1="22.952" y1="0.5" x2="23.952" y2="0.5" gradientUnits="objectBoundingBox">
      <stop offset="0" stop-color="#58098a"/>
      <stop offset="1" stop-color="#9e3bdb"/>
    </linearGradient>
    <radialGradient id="radial-gradient" cx="0.433" cy="0.549" r="0.963" gradientTransform="translate(0.303) scale(0.395 1)" gradientUnits="objectBoundingBox">
      <stop offset="0" stop-color="#fff"/>
      <stop offset="1"/>
    </radialGradient>
    <linearGradient id="linear-gradient-4" x1="23.42" y1="0.5" x2="24.42" y2="0.5" gradientUnits="objectBoundingBox">
      <stop offset="0" stop-color="#2f054a"/>
      <stop offset="1" stop-color="#5e1d9a"/>
    </linearGradient>
    <linearGradient id="linear-gradient-5" x1="0.554" y1="0.03" x2="0.366" y2="1.666" gradientUnits="objectBoundingBox">
      <stop offset="0" stop-color="#861eb2"/>
      <stop offset="0.429" stop-color="#5f27bd"/>
      <stop offset="0.904" stop-color="#3d065f"/>
    </linearGradient>
    <linearGradient id="linear-gradient-6" x1="757.684" y1="-107.808" x2="758.895" y2="-107.808" gradientUnits="objectBoundingBox">
      <stop offset="0" stop-color="#3d065f"/>
      <stop offset="1" stop-color="#5f27bd"/>
    </linearGradient>
    <linearGradient id="linear-gradient-7" x1="757.684" y1="-107.808" x2="758.895" y2="-107.808" xlink:href="#linear-gradient"/>
    <linearGradient id="linear-gradient-8" x1="823.252" y1="-114.576" x2="822.707" y2="-113.362" gradientUnits="objectBoundingBox">
      <stop offset="0.056" stop-color="#9f79b8"/>
      <stop offset="0.257" stop-color="#a07bb9"/>
      <stop offset="0.357" stop-color="#a782bf"/>
      <stop offset="0.434" stop-color="#b28fc8"/>
      <stop offset="0.495" stop-color="#c1a1d5"/>
      <stop offset="0.507" stop-color="#c3a5d6"/>
      <stop offset="0.52" stop-color="#ccb2dc"/>
      <stop offset="0.533" stop-color="#dac8e6"/>
      <stop offset="0.547" stop-color="#eee6f4"/>
      <stop offset="0.556" stop-color="#fff"/>
      <stop offset="0.568" stop-color="#ebdff3"/>
      <stop offset="0.58" stop-color="#ddc7ea"/>
      <stop offset="0.591" stop-color="#d4b9e4"/>
      <stop offset="0.601" stop-color="#d1b4e3"/>
      <stop offset="0.658" stop-color="#b294d5"/>
      <stop offset="0.715" stop-color="#9b7ccb"/>
      <stop offset="0.769" stop-color="#8d6ec5"/>
      <stop offset="0.813" stop-color="#8969c3"/>
      <stop offset="1" stop-color="#b086cc"/>
    </linearGradient>
    <linearGradient id="linear-gradient-9" x1="760.397" y1="-108.643" x2="761.608" y2="-108.643" xlink:href="#linear-gradient-6"/>
    <linearGradient id="linear-gradient-10" x1="760.397" y1="-108.643" x2="761.608" y2="-108.643" xlink:href="#linear-gradient"/>
    <linearGradient id="linear-gradient-11" x1="825.711" y1="-114.743" x2="825.166" y2="-113.528" xlink:href="#linear-gradient-8"/>
    <radialGradient id="radial-gradient-2" cx="0.5" cy="0.5" r="0.753" gradientTransform="matrix(-0.664, 0, 0, 0.664, 90.495, -4.39)" gradientUnits="objectBoundingBox">
      <stop offset="0" stop-color="#972a74"/>
      <stop offset="0.041" stop-color="#8a266a"/>
      <stop offset="0.194" stop-color="#601a49"/>
      <stop offset="0.35" stop-color="#3d112f"/>
      <stop offset="0.507" stop-color="#22091a"/>
      <stop offset="0.667" stop-color="#0f040b"/>
      <stop offset="0.829" stop-color="#030102"/>
      <stop offset="1"/>
    </radialGradient>
    <radialGradient id="radial-gradient-3" cx="0.5" cy="0.5" r="0.5" gradientTransform="matrix(0, -1, -1, 0, 247.575, 247.563)" xlink:href="#radial-gradient-2"/>
    <linearGradient id="linear-gradient-12" x1="-0.011" y1="0.013" x2="0.971" y2="0.949" gradientUnits="objectBoundingBox">
      <stop offset="0" stop-color="#acff68"/>
      <stop offset="0.035" stop-color="#acff68"/>
      <stop offset="0.163" stop-color="#a0df6d"/>
      <stop offset="0.411" stop-color="#72b63c"/>
      <stop offset="0.751" stop-color="#c430ae"/>
      <stop offset="0.985" stop-color="#ad00bd"/>
      <stop offset="1" stop-color="#ad00bd"/>
    </linearGradient>
    <radialGradient id="radial-gradient-4" cx="0.589" cy="0.55" r="0.834" gradientTransform="translate(0.266) scale(0.468 1)" xlink:href="#radial-gradient"/>
    <linearGradient id="linear-gradient-13" x1="-21.193" y1="18.1" x2="-20.797" y2="18.1" gradientUnits="objectBoundingBox">
      <stop offset="0" stop-color="#25054d"/>
      <stop offset="1" stop-color="#45108a"/>
    </linearGradient>
    <linearGradient id="linear-gradient-14" x1="-294.431" y1="169.116" x2="-292.092" y2="169.116" gradientUnits="objectBoundingBox">
      <stop offset="0.035" stop-color="#9d9eb3"/>
      <stop offset="0.581" stop-color="#d4d1d8"/>
      <stop offset="1" stop-color="#eeebf2"/>
    </linearGradient>
    <radialGradient id="radial-gradient-5" cx="0.585" cy="0.383" r="0.989" gradientTransform="translate(0.307) scale(0.386 1)" xlink:href="#radial-gradient"/>
    <radialGradient id="radial-gradient-6" cx="0.5" cy="0.5" r="0.5" gradientUnits="objectBoundingBox">
      <stop offset="0.101" stop-color="#dc3daa"/>
      <stop offset="0.114" stop-color="#bb3198"/>
      <stop offset="0.152" stop-color="#5e0f66"/>
      <stop offset="0.179" stop-color="#500c57"/>
      <stop offset="0.241" stop-color="#37083c"/>
      <stop offset="0.313" stop-color="#230526"/>
      <stop offset="0.395" stop-color="#130314"/>
      <stop offset="0.497" stop-color="#080108"/>
      <stop offset="0.637" stop-color="#010001"/>
      <stop offset="1"/>
    </radialGradient>
    <radialGradient id="radial-gradient-7" cx="0.5" cy="0.5" r="0.5" gradientUnits="objectBoundingBox">
      <stop offset="0.101" stop-color="#fff"/>
      <stop offset="0.13" stop-color="#c677cd"/>
      <stop offset="0.152" stop-color="#9f19ab"/>
      <stop offset="0.165" stop-color="#93179e"/>
      <stop offset="0.212" stop-color="#701179"/>
      <stop offset="0.264" stop-color="#520c58"/>
      <stop offset="0.321" stop-color="#38083c"/>
      <stop offset="0.385" stop-color="#230526"/>
      <stop offset="0.459" stop-color="#130314"/>
      <stop offset="0.55" stop-color="#080108"/>
      <stop offset="0.675" stop-color="#010001"/>
      <stop offset="1"/>
    </radialGradient>
    <linearGradient id="linear-gradient-15" x1="0.174" y1="0.109" x2="0.568" y2="0.581" gradientUnits="objectBoundingBox">
      <stop offset="0" stop-color="#acff68"/>
      <stop offset="0.041" stop-color="#acff68"/>
      <stop offset="0.194" stop-color="#601a49"/>
      <stop offset="0.35" stop-color="#3d112f"/>
      <stop offset="0.507" stop-color="#22091a"/>
      <stop offset="0.667" stop-color="#0f040b"/>
      <stop offset="0.829" stop-color="#030102"/>
      <stop offset="1"/>
    </linearGradient>
  </defs>
  <g id="Group_6484" data-name="Group 6484">
    <g id="Group_6483" data-name="Group 6483" transform="translate(0 0)">
      <path id="Path_23492" data-name="Path 23492" d="M581.266,298.955a.836.836,0,0,1-.424-1.556l2.881-1.7a.836.836,0,0,1,.849,1.44l-2.881,1.694A.834.834,0,0,1,581.266,298.955Zm5.758-3.392a.836.836,0,0,1-.424-1.556l2.881-1.7a.836.836,0,1,1,.849,1.44l-2.881,1.694A.834.834,0,0,1,587.024,295.563Zm5.76-3.394a.835.835,0,0,1-.424-1.554l2.879-1.7a.835.835,0,1,1,.849,1.439l-2.879,1.7A.837.837,0,0,1,592.784,292.169Zm5.758-3.392a.836.836,0,0,1-.424-1.556L601,285.527a.835.835,0,1,1,.847,1.439l-2.879,1.7A.832.832,0,0,1,598.543,288.777Zm5.76-3.392a.836.836,0,0,1-.424-1.556l2.879-1.7a.836.836,0,0,1,.849,1.44l-2.879,1.694A.835.835,0,0,1,604.3,285.385Zm5.758-3.394a.835.835,0,0,1-.423-1.554l2.878-1.7a.836.836,0,1,1,.849,1.44l-2.879,1.694A.832.832,0,0,1,610.061,281.991Zm5.76-3.392a.835.835,0,0,1-.424-1.554l2.879-1.7a.835.835,0,1,1,.849,1.439l-2.879,1.7A.833.833,0,0,1,615.821,278.6Zm5.758-3.392a.836.836,0,0,1-.424-1.556l2.881-1.694a.835.835,0,0,1,.849,1.439l-2.881,1.7A.832.832,0,0,1,621.58,275.206Zm5.759-3.392a.836.836,0,0,1-.424-1.556l2.881-1.7a.836.836,0,0,1,.849,1.44l-2.881,1.694A.835.835,0,0,1,627.338,271.814Zm5.76-3.394a.835.835,0,0,1-.424-1.554l2.879-1.7a.835.835,0,1,1,.849,1.439l-2.879,1.7A.837.837,0,0,1,633.1,268.42Zm5.76-3.392a.835.835,0,0,1-.424-1.554l2.879-1.7a.835.835,0,1,1,.847,1.439l-2.878,1.7A.832.832,0,0,1,638.858,265.028Zm5.758-3.392a.836.836,0,0,1-.424-1.556l2.879-1.694a.835.835,0,1,1,.849,1.439l-2.879,1.7A.849.849,0,0,1,644.617,261.636Zm5.758-3.392a.836.836,0,0,1-.423-1.556l2.879-1.7a.836.836,0,0,1,.849,1.44l-2.881,1.694A.834.834,0,0,1,650.375,258.244Zm4.416-4.161a.835.835,0,0,1-.835-.836v-3.342a.836.836,0,1,1,1.671,0v3.342A.835.835,0,0,1,654.792,254.083Zm0-6.684a.835.835,0,0,1-.835-.836v-3.342a.836.836,0,1,1,1.671,0v3.342A.835.835,0,0,1,654.792,247.4Zm0-6.684a.835.835,0,0,1-.835-.836v-3.342a.836.836,0,1,1,1.671,0v3.342A.835.835,0,0,1,654.792,240.714Zm0-6.684a.835.835,0,0,1-.835-.836v-3.342a.836.836,0,1,1,1.671,0v3.342A.835.835,0,0,1,654.792,234.03Zm0-6.684a.835.835,0,0,1-.835-.836v-3.342a.836.836,0,1,1,1.671,0v3.342A.835.835,0,0,1,654.792,227.346Zm0-6.684a.835.835,0,0,1-.835-.836v-3.342a.836.836,0,1,1,1.671,0v3.342A.835.835,0,0,1,654.792,220.662Zm0-6.684a.835.835,0,0,1-.835-.836V209.8a.836.836,0,1,1,1.671,0v3.342A.835.835,0,0,1,654.792,213.978Zm0-6.684a.835.835,0,0,1-.835-.836v-3.342a.836.836,0,1,1,1.671,0v3.342A.835.835,0,0,1,654.792,207.294Zm0-6.684a.835.835,0,0,1-.835-.836v-.561l-1.572-.912a.836.836,0,1,1,.839-1.447l1.988,1.156a.836.836,0,0,1,.416.722v1.043A.835.835,0,0,1,654.792,200.61Zm-4.878-3.877a.843.843,0,0,1-.419-.112l-2.889-1.679a.836.836,0,1,1,.839-1.445l2.889,1.678a.836.836,0,0,1-.42,1.559Zm-5.78-3.357a.828.828,0,0,1-.42-.112l-2.889-1.679a.836.836,0,1,1,.839-1.445l2.889,1.679a.835.835,0,0,1-.419,1.557Zm-5.78-3.359a.827.827,0,0,1-.419-.112l-2.889-1.679a.836.836,0,1,1,.839-1.445l2.889,1.679a.835.835,0,0,1-.419,1.557Zm-5.78-3.355a.829.829,0,0,1-.419-.114l-2.887-1.679a.836.836,0,1,1,.839-1.445l2.888,1.679a.836.836,0,0,1-.419,1.559ZM626.8,183.3a.83.83,0,0,1-.42-.114l-2.889-1.678a.836.836,0,0,1,.839-1.447l2.889,1.679a.836.836,0,0,1-.419,1.559Zm-5.78-3.359a.827.827,0,0,1-.419-.112l-2.889-1.678a.836.836,0,1,1,.839-1.445l2.889,1.676a.836.836,0,0,1-.419,1.559Zm-5.78-3.357a.827.827,0,0,1-.419-.112l-2.889-1.679a.836.836,0,1,1,.839-1.445l2.889,1.679a.835.835,0,0,1-.419,1.557Zm-5.778-3.357a.829.829,0,0,1-.419-.114l-2.889-1.678a.836.836,0,1,1,.839-1.445l2.889,1.678a.836.836,0,0,1-.419,1.559Zm-5.78-3.357a.829.829,0,0,1-.419-.114l-2.889-1.679a.836.836,0,1,1,.839-1.445l2.889,1.679a.836.836,0,0,1-.42,1.559Zm-5.78-3.359a.845.845,0,0,1-.42-.112l-2.889-1.679a.836.836,0,0,1,.839-1.447l2.889,1.679a.836.836,0,0,1-.419,1.559Zm-5.778-3.357a.826.826,0,0,1-.419-.112l-2.889-1.679a.836.836,0,1,1,.839-1.445l2.889,1.679a.835.835,0,0,1-.419,1.557Zm-5.78-3.357a.83.83,0,0,1-.42-.114l-2.889-1.679a.836.836,0,1,1,.839-1.445l2.889,1.679a.836.836,0,0,1-.419,1.559Zm-5.78-3.359a.828.828,0,0,1-.419-.114l-2.889-1.678a.836.836,0,1,1,.839-1.445l2.889,1.678a.836.836,0,0,1-.419,1.559Zm-5.78-3.357a.845.845,0,0,1-.419-.112l-2.888-1.679a.836.836,0,0,1,.839-1.447l2.888,1.679a.836.836,0,0,1-.419,1.559ZM569,149.725a.827.827,0,0,1-.419-.112l-2.889-1.678a.836.836,0,1,1,.839-1.445l2.889,1.678a.835.835,0,0,1-.419,1.557Zm-5.78-3.357a.827.827,0,0,1-.419-.112l-2.889-1.679a.836.836,0,1,1,.839-1.445l2.889,1.679a.835.835,0,0,1-.419,1.557Zm-5.78-3.357a.829.829,0,0,1-.42-.114l-2.889-1.679a.836.836,0,1,1,.839-1.445l2.889,1.679a.836.836,0,0,1-.419,1.559Zm-5.778-3.357a.829.829,0,0,1-.419-.114l-2.889-1.679a.836.836,0,1,1,.839-1.445l2.889,1.679a.836.836,0,0,1-.419,1.559Z" transform="translate(-135.627 -31.826)" fill="#45108a" style="mix-blend-mode: screen;isolation: isolate"/>
      <path id="Path_23493" data-name="Path 23493" d="M319.413,268.216l-2.881-1.694a.835.835,0,1,1,.849-1.439l2.879,1.694a.835.835,0,1,1-.847,1.439Zm-5.76-3.392-2.879-1.694a.836.836,0,0,1,.847-1.44l2.881,1.7a.835.835,0,1,1-.849,1.439Zm-5.76-3.392-2.879-1.7a.835.835,0,0,1,.849-1.439l2.879,1.7a.835.835,0,0,1-.849,1.439Zm-5.758-3.392-2.879-1.7a.835.835,0,1,1,.849-1.439l2.878,1.694a.836.836,0,0,1-.847,1.44Zm-5.76-3.394-2.879-1.694a.835.835,0,1,1,.849-1.439l2.879,1.694a.835.835,0,1,1-.849,1.439Zm-4.826-4.878v-3.342a.836.836,0,0,1,1.671,0v3.342a.836.836,0,0,1-1.671,0Zm0-6.684v-3.342a.836.836,0,1,1,1.671,0v3.342a.836.836,0,1,1-1.671,0Zm0-6.684v-3.342a.836.836,0,1,1,1.671,0V236.4a.836.836,0,0,1-1.671,0Zm0-6.684v-3.342a.836.836,0,0,1,1.671,0v3.342a.836.836,0,0,1-1.671,0Zm0-6.684v-3.342a.836.836,0,1,1,1.671,0v3.342a.836.836,0,1,1-1.671,0Zm0-6.684V213a.836.836,0,0,1,1.671,0v3.342a.836.836,0,0,1-1.671,0Zm0-6.684v-4.387a.835.835,0,0,1,.416-.722l1.989-1.156a.836.836,0,0,1,.839,1.447l-1.572.914v3.9a.836.836,0,0,1-1.671,0Zm4.99-6.8a.833.833,0,0,1,.3-1.141l2.889-1.679a.836.836,0,1,1,.839,1.445l-2.889,1.679a.827.827,0,0,1-.419.112A.836.836,0,0,1,296.538,202.861Zm5.78-3.357a.833.833,0,0,1,.3-1.141l2.889-1.679a.836.836,0,1,1,.839,1.445l-2.889,1.679a.839.839,0,0,1-1.143-.3Zm5.78-3.357a.835.835,0,0,1,.3-1.143l2.889-1.679a.836.836,0,1,1,.839,1.445l-2.889,1.679a.835.835,0,0,1-1.143-.3Z" transform="translate(-287.75 4.85)" fill="#45108a" style="mix-blend-mode: screen;isolation: isolate"/>
      <g id="Group_6443" data-name="Group 6443" transform="translate(66.139 215.547)" style="mix-blend-mode: screen;isolation: isolate">
        <g id="Group_6434" data-name="Group 6434" transform="translate(187.417 32.066)">
          <g id="Group_6432" data-name="Group 6432">
            <path id="Path_23494" data-name="Path 23494" d="M559.27,254.177l-46.035,26.578-45.94-26.524,46.034-26.578,45.942,26.524Zm3.434.007-49.386-28.513-49.458,28.555,49.386,28.513L562.7,254.184Z" transform="translate(-445.599 -225.671)" fill="#45108a"/>
            <path id="Path_23495" data-name="Path 23495" d="M509.014,273.958l-49.195-28.4,2-1.153,49.195,28.4Z" transform="translate(-448.311 -213.102)" fill="#45108a"/>
            <path id="Path_23496" data-name="Path 23496" d="M505.6,275.929l-49.195-28.4,2-1.153,49.195,28.4Z" transform="translate(-450.602 -211.779)" fill="#45108a"/>
            <path id="Path_23497" data-name="Path 23497" d="M479.157,264.672l-26.224-15.141,2-1.153,26.224,15.141Z" transform="translate(-452.932 -210.434)" fill="#45108a"/>
          </g>
          <g id="Group_6433" data-name="Group 6433" transform="translate(63.743 36.801)">
            <path id="Path_23498" data-name="Path 23498" d="M597.416,276.2l-46.034,26.578-45.94-26.523,46.034-26.58,45.94,26.524Zm3.436.007-49.386-28.513-49.459,28.555,49.386,28.513,49.459-28.555Z" transform="translate(-483.745 -247.694)" fill="#45108a"/>
            <path id="Path_23499" data-name="Path 23499" d="M547.16,295.981l-49.195-28.4,2-1.153,49.195,28.4Z" transform="translate(-486.456 -235.125)" fill="#45108a"/>
            <path id="Path_23500" data-name="Path 23500" d="M543.745,297.953l-49.195-28.4,2-1.153,49.195,28.4Z" transform="translate(-488.748 -233.802)" fill="#45108a"/>
            <path id="Path_23501" data-name="Path 23501" d="M517.3,286.7l-26.225-15.141,2-1.153L519.3,285.542Z" transform="translate(-491.078 -232.457)" fill="#45108a"/>
          </g>
        </g>
        <g id="Group_6437" data-name="Group 6437" transform="translate(112.512 81.487)">
          <g id="Group_6435" data-name="Group 6435">
            <path id="Path_23502" data-name="Path 23502" d="M508.044,283.752,462.01,310.33l-45.94-26.523L462.1,257.23l45.94,26.523Zm3.436.007-49.386-28.513L412.634,283.8l49.386,28.513,49.459-28.555Z" transform="translate(-394.373 -255.246)" fill="#45108a"/>
            <path id="Path_23503" data-name="Path 23503" d="M457.788,303.533l-49.195-28.4,2-1.153,49.195,28.4Z" transform="translate(-397.085 -242.677)" fill="#45108a"/>
            <path id="Path_23504" data-name="Path 23504" d="M454.373,305.5l-49.195-28.4,2-1.153,49.195,28.4Z" transform="translate(-399.376 -241.354)" fill="#45108a"/>
            <path id="Path_23505" data-name="Path 23505" d="M427.931,294.247l-26.224-15.141,2-1.153,26.224,15.141Z" transform="translate(-401.706 -240.008)" fill="#45108a"/>
          </g>
          <g id="Group_6436" data-name="Group 6436" transform="translate(63.743 36.801)">
            <path id="Path_23506" data-name="Path 23506" d="M546.19,305.777l-46.034,26.578L454.214,305.83l46.035-26.578,45.94,26.524Zm3.434.005-49.386-28.513L450.78,305.824l49.386,28.515,49.458-28.556Z" transform="translate(-432.518 -277.269)" fill="#45108a"/>
            <path id="Path_23507" data-name="Path 23507" d="M495.933,325.556l-49.195-28.4,2-1.153,49.195,28.4Z" transform="translate(-435.23 -264.699)" fill="#45108a"/>
            <path id="Path_23508" data-name="Path 23508" d="M492.518,327.528l-49.195-28.4,2-1.153,49.195,28.4Z" transform="translate(-437.522 -263.376)" fill="#45108a"/>
            <path id="Path_23509" data-name="Path 23509" d="M466.076,316.271,439.852,301.13l2-1.153,26.224,15.141Z" transform="translate(-439.852 -262.031)" fill="#45108a"/>
          </g>
        </g>
        <g id="Group_6440" data-name="Group 6440" transform="translate(35.756 131.129)">
          <g id="Group_6438" data-name="Group 6438">
            <path id="Path_23510" data-name="Path 23510" d="M456.59,313.459l-46.034,26.578-45.94-26.523,46.034-26.578,45.94,26.523Zm3.436.007-49.386-28.513L361.18,313.508l49.386,28.513,49.459-28.555Z" transform="translate(-342.919 -284.953)" fill="#45108a"/>
            <path id="Path_23511" data-name="Path 23511" d="M406.334,333.24l-49.195-28.4,2-1.153,49.195,28.4Z" transform="translate(-345.631 -272.384)" fill="#45108a"/>
            <path id="Path_23512" data-name="Path 23512" d="M402.919,335.212l-49.195-28.4,2-1.153,49.195,28.4Z" transform="translate(-347.922 -271.061)" fill="#45108a"/>
            <path id="Path_23513" data-name="Path 23513" d="M376.477,323.954l-26.224-15.141,2-1.153L378.474,322.8Z" transform="translate(-350.252 -269.715)" fill="#45108a"/>
          </g>
          <g id="Group_6439" data-name="Group 6439" transform="translate(63.743 36.801)">
            <path id="Path_23514" data-name="Path 23514" d="M494.736,335.484,448.7,362.062,402.76,335.537,448.8,308.96l45.94,26.524Zm3.434,0-49.386-28.513-49.458,28.555,49.386,28.515,49.458-28.556Z" transform="translate(-381.064 -306.976)" fill="#45108a"/>
            <path id="Path_23515" data-name="Path 23515" d="M444.479,355.263l-49.195-28.4,2-1.153,49.195,28.4Z" transform="translate(-383.776 -294.407)" fill="#45108a"/>
            <path id="Path_23516" data-name="Path 23516" d="M441.064,357.235l-49.195-28.4,2-1.153,49.195,28.4Z" transform="translate(-386.068 -293.083)" fill="#45108a"/>
            <path id="Path_23517" data-name="Path 23517" d="M414.622,345.977,388.4,330.837l2-1.153,26.224,15.141Z" transform="translate(-388.398 -291.738)" fill="#45108a"/>
          </g>
        </g>
        <g id="Group_6442" data-name="Group 6442">
          <path id="Path_23518" data-name="Path 23518" d="M512.17,213.823l16.821,9.712a2.77,2.77,0,0,0,2.508.005.764.764,0,0,0-.008-1.447l-16.821-9.712a2.775,2.775,0,0,0-2.508-.005A.764.764,0,0,0,512.17,213.823Zm15.1,10.7-16.822-9.712a2.766,2.766,0,0,0-2.507,0,.764.764,0,0,0,.008,1.447l16.821,9.712a2.77,2.77,0,0,0,2.508,0C527.971,225.577,527.966,224.929,527.273,224.528Zm-4.218,2.436-16.822-9.712a2.766,2.766,0,0,0-2.507-.005.764.764,0,0,0,.007,1.447l16.822,9.712a2.772,2.772,0,0,0,2.507.005A.764.764,0,0,0,523.055,226.964Z" transform="translate(-225.845 -202.725)" fill="#45108a"/>
          <path id="Path_23519" data-name="Path 23519" d="M449.364,459.223l-114.812-69.4c-7.562-4.57-7.6-11.985-.086-16.525L604.811,209.873c7.514-4.542,19.778-4.518,27.338.052l114.814,69.4c7.56,4.57,7.6,11.985.085,16.527L476.7,459.275C469.19,463.817,456.926,463.794,449.364,459.223Zm181.7-248.64c-6.955-4.2-18.239-4.224-25.152-.047L335.562,373.957c-6.912,4.179-6.876,11,.08,15.2l114.813,69.4c6.955,4.2,18.239,4.226,25.151.047L745.951,295.191c6.912-4.178,6.877-11-.078-15.2Z" transform="translate(-328.855 -206.482)" fill="#45108a"/>
          <path id="Path_23520" data-name="Path 23520" d="M578.676,255.405c0,.516-.72.932-1.614.931s-1.622-.421-1.624-.937.719-.932,1.614-.931S578.673,254.889,578.676,255.405Z" transform="translate(-183.31 -174.281)" fill="#45108a"/>
          <g id="Group_6441" data-name="Group 6441" transform="translate(392.631 73.642)">
            <path id="Path_23521" data-name="Path 23521" d="M576,250.551c-.089,0-.175.007-.266.007l.005.936c.09,0,.177-.008.266-.008,6.7.013,12.162,3.167,12.182,7.033l0,.032,1.619,0c0-.01,0-.022,0-.032C589.787,254.14,583.593,250.564,576,250.551Z" transform="translate(-575.739 -250.551)" fill="#45108a"/>
            <path id="Path_23522" data-name="Path 23522" d="M576.017,252.789c-.09,0-.175.013-.266.015l.005.934c.09,0,.175-.015.266-.015,3.125.005,5.677,1.479,5.685,3.282,0,.012,0,.022,0,.032l1.619,0c0-.012,0-.022,0-.032C583.314,254.689,580.036,252.8,576.017,252.789Z" transform="translate(-575.731 -249.049)" fill="#45108a"/>
            <path id="Path_23523" data-name="Path 23523" d="M576.011,251.67c-.089,0-.175.005-.266.007l.005.936c.09,0,.177-.008.266-.008,4.909.01,8.918,2.323,8.933,5.158,0,.01,0,.02,0,.032l1.619,0,0-.032C586.55,254.416,581.814,251.68,576.011,251.67Z" transform="translate(-575.735 -249.8)" fill="#45108a"/>
          </g>
          <path id="Path_23524" data-name="Path 23524" d="M576.681,256.7l-48.525-28.016,3.139-1.812L579.82,254.89Z" transform="translate(-215.038 -192.798)" fill="#45108a"/>
        </g>
      </g>
      <g id="Group_6445" data-name="Group 6445" transform="translate(5.04 101.297)">
        <g id="Group_6444" data-name="Group 6444" transform="translate(0 37.197)" opacity="0.2">
          <path id="Path_23525" data-name="Path 23525" d="M459.539,467.9c8.051,0,15.359-1.831,21.13-5.3L775.078,286.324c7.7-4.629,12.123-11.951,12.122-20.091,0-8.923-5.32-17.235-14.6-22.806l-126.989-76.27a50.468,50.468,0,0,0-25.66-6.786c-8.053,0-15.359,1.833-21.13,5.3L304.413,341.953c-7.7,4.627-12.122,11.95-12.122,20.089,0,8.92,5.32,17.233,14.6,22.806l126.99,76.27A50.451,50.451,0,0,0,459.539,467.9Z" transform="translate(-292.291 -160.371)" opacity="0"/>
          <path id="Path_23526" data-name="Path 23526" d="M598.7,165.913,304.345,342.194c-7.4,4.447-11.591,11.43-11.556,19.165.037,8.455,5.13,16.366,14.031,21.713l121.254,72.839c.2.117,6.124,3.645,6.35,3.716a49.024,49.024,0,0,0,25.819,6.019,43.986,43.986,0,0,0,20.829-5.789L773.8,284.548c7.4-4.447,11.594-11.43,11.557-19.167-.037-8.454-5.131-16.366-14.032-21.712L645.12,167.855a51.729,51.729,0,0,0-9.351-4.326,52.635,52.635,0,0,0-16.051-2.73C611.733,160.718,604.415,162.479,598.7,165.913Z" transform="translate(-291.957 -160.086)" opacity="0.091"/>
          <path id="Path_23527" data-name="Path 23527" d="M598.576,166.158,304.277,342.44c-7.1,4.264-11.061,10.909-10.99,18.241.074,7.988,4.941,15.5,13.465,20.621l121.8,73.181c.39.234,5.961,3.512,6.415,3.658a47.529,47.529,0,0,0,25.978,5.252c6.585,0,15.807-3.442,20.528-6.28L772.529,282.777c7.1-4.264,11.064-10.91,10.992-18.243-.074-7.989-4.941-15.5-13.466-20.619L644.628,168.556a59.251,59.251,0,0,0-9.248-4.4,52.4,52.4,0,0,0-15.9-2.933C611.567,161.065,604.238,162.756,598.576,166.158Z" transform="translate(-291.623 -159.804)" opacity="0.182"/>
          <path id="Path_23528" data-name="Path 23528" d="M598.453,166.407,304.21,342.688c-6.791,4.082-10.53,10.387-10.423,17.317.109,7.52,4.749,14.63,12.9,19.526l122.352,73.526c.584.351,5.8,3.381,6.478,3.6a46.025,46.025,0,0,0,26.139,4.487c5.852,0,16.031-4.249,20.226-6.771L771.254,281.006c6.793-4.082,10.534-10.389,10.424-17.319-.109-7.52-4.749-14.63-12.9-19.524l-124.643-74.9a68.862,68.862,0,0,0-9.146-4.465,52.117,52.117,0,0,0-15.742-3.138C611.4,161.415,604.061,163.036,598.453,166.407Z" transform="translate(-291.289 -159.524)" opacity="0.273"/>
          <path id="Path_23529" data-name="Path 23529" d="M598.331,166.656,304.143,342.937c-6.487,3.9-10,9.866-9.857,16.393.146,7.053,4.559,13.761,12.331,18.433l122.9,73.868c.777.468,5.636,3.25,6.543,3.541a44.515,44.515,0,0,0,26.3,3.72c5.119,0,16.254-5.055,19.925-7.261l287.7-172.393c6.488-3.9,10-9.868,9.859-16.395-.146-7.053-4.559-13.763-12.333-18.433L643.645,169.965a82.255,82.255,0,0,0-9.044-4.534,51.853,51.853,0,0,0-15.586-3.34C611.233,161.768,603.883,163.319,598.331,166.656Z" transform="translate(-290.955 -159.245)" opacity="0.364"/>
          <path id="Path_23530" data-name="Path 23530" d="M598.209,166.906,304.078,343.188c-6.185,3.718-9.472,9.346-9.294,15.47.183,6.586,4.368,12.892,11.765,17.339L430,450.208a68.987,68.987,0,0,0,6.609,3.484,43.047,43.047,0,0,0,26.456,2.953c4.386,0,16.479-5.86,19.624-7.75L768.707,277.472c6.185-3.718,9.472-9.346,9.294-15.47-.183-6.586-4.37-12.892-11.767-17.339l-123.08-73.99a99.734,99.734,0,0,0-8.942-4.6,51.62,51.62,0,0,0-15.431-3.546C611.067,162.122,603.705,163.6,598.209,166.906Z" transform="translate(-290.622 -158.969)" opacity="0.455"/>
          <path id="Path_23531" data-name="Path 23531" d="M598.087,167.16,304.013,343.441c-5.881,3.536-8.942,8.825-8.729,14.546.22,6.119,4.18,12.023,11.2,16.246l123.995,74.553a58.008,58.008,0,0,0,6.672,3.426c8.422,3.631,18.607,4.473,26.615,2.186,3.657,0,16.7-6.664,19.324-8.242L767.434,275.709c5.881-3.536,8.942-8.826,8.727-14.546-.218-6.119-4.178-12.025-11.2-16.246l-122.3-73.536c-1.316-.79-7.341-4.082-8.84-4.671a51.382,51.382,0,0,0-15.275-3.748C610.9,162.478,603.529,163.888,598.087,167.16Z" transform="translate(-290.29 -158.695)" opacity="0.545"/>
          <path id="Path_23532" data-name="Path 23532" d="M597.964,167.416,303.947,343.7c-5.576,3.354-8.413,8.305-8.162,13.622.255,5.651,3.988,11.156,10.633,15.153l124.542,74.9a50.229,50.229,0,0,0,6.736,3.367c8.61,3.507,18.973,4.087,26.773,1.419,2.925,0,16.927-7.47,19.023-8.731L766.161,273.946c5.576-3.354,8.413-8.305,8.162-13.622-.255-5.651-3.988-11.156-10.635-15.151L642.171,172.093c-1.051-.633-7.543-4.258-8.737-4.739a51.075,51.075,0,0,0-15.12-3.952C610.734,162.835,603.351,164.175,597.964,167.416Z" transform="translate(-289.957 -158.422)" opacity="0.636"/>
          <path id="Path_23533" data-name="Path 23533" d="M597.842,167.673,303.883,343.954c-5.274,3.172-7.883,7.784-7.6,12.7.292,5.185,3.8,10.289,10.068,14.06l125.088,75.24a44.324,44.324,0,0,0,6.8,3.307c8.8,3.384,19.34,3.7,26.932.655,2.193,0,17.151-8.277,18.721-9.222L764.888,272.185c5.274-3.17,7.883-7.782,7.6-12.7-.292-5.185-3.8-10.289-10.07-14.06L641.681,172.8c-.789-.475-7.744-4.437-8.637-4.808a50.873,50.873,0,0,0-14.963-4.156C610.568,163.2,603.174,164.466,597.842,167.673Z" transform="translate(-289.625 -158.152)" opacity="0.727"/>
          <path id="Path_23534" data-name="Path 23534" d="M597.721,167.931l-293.9,176.283c-4.97,2.989-7.354,7.262-7.034,11.772.329,4.719,3.608,9.42,9.5,12.967l125.633,75.583a39.833,39.833,0,0,0,6.865,3.249c8.988,3.26,19.709,3.319,27.092-.112,1.461,0,17.374-9.082,18.421-9.712L763.616,270.427c4.97-2.989,7.354-7.262,7.032-11.774-.327-4.717-3.608-9.42-9.5-12.966L641.19,173.52c-.526-.316-7.941-4.622-8.534-4.876-4.564-1.96-9.564-3.847-14.808-4.36C610.4,163.558,603,164.757,597.721,167.931Z" transform="translate(-289.294 -157.883)" opacity="0.818"/>
          <path id="Path_23535" data-name="Path 23535" d="M597.6,168.192,303.756,344.473c-4.666,2.807-6.825,6.743-6.468,10.85.364,4.251,3.418,8.551,8.937,11.873L432.4,443.123a36.306,36.306,0,0,0,6.929,3.19c9.176,3.137,20.075,2.933,27.25-.879.73,0,17.6-9.888,18.121-10.2L762.344,268.67c4.666-2.807,6.825-6.741,6.468-10.848-.364-4.251-3.418-8.552-8.938-11.873L640.7,174.238c-.263-.159-8.138-4.816-8.433-4.946-4.512-2-9.447-3.992-14.653-4.564C610.237,163.921,602.821,165.051,597.6,168.192Z" transform="translate(-288.963 -157.616)" opacity="0.909"/>
          <path id="Path_23536" data-name="Path 23536" d="M467.289,443.2,761.073,266.916c8.818-5.307,7.712-14.576-2.47-20.7l-126.723-76.27c-10.182-6.129-25.584-6.794-34.4-1.487L303.694,344.736c-8.818,5.307-7.712,14.576,2.469,20.706l126.724,76.269C443.068,447.839,458.471,448.5,467.289,443.2Z" transform="translate(-288.634 -157.351)"/>
        </g>
        <path id="Path_23537" data-name="Path 23537" d="M425.525,423.749l-118.494-71.3c-13.366-8.044-11.689-22.093,3.744-31.38L589.4,153.393c15.434-9.288,38.781-10.3,52.147-2.253l118.493,71.3c13.366,8.043,11.689,22.093-3.744,31.38L477.672,421.5C462.237,430.784,438.891,431.792,425.525,423.749Z" transform="translate(-288.455 -133.012)" fill="url(#linear-gradient)"/>
        <path id="Path_23538" data-name="Path 23538" d="M425.525,422.481l-118.494-71.3c-5.972-3.593-8.941-8.385-9.021-13.417-.008-.444.008-10.128.047-10.574.492-5.825,4.789-2.617,12.718-7.389L589.4,152.128c15.434-9.288,38.781-10.3,52.147-2.254l118.493,71.3c5.967,3.593,8.936-2.729,9.021,2.3.008.438-.006,11.986-.043,12.426-.479,5.835-4.779,11.876-12.722,16.657L477.672,420.229C462.237,429.516,438.891,430.526,425.525,422.481Z" transform="translate(-288.455 -133.861)" fill="url(#linear-gradient-2)"/>
        <path id="Path_23539" data-name="Path 23539" d="M425.525,416.15,307.031,344.843c-13.366-8.043-11.689-22.093,3.744-31.38L589.4,145.794c15.434-9.288,38.781-10.3,52.147-2.254l118.493,71.307c13.366,8.043,11.689,22.093-3.744,31.38L477.672,413.9C462.237,423.183,438.891,424.193,425.525,416.15Z" transform="translate(-288.455 -138.111)" fill="url(#linear-gradient-3)"/>
        <path id="Path_23540" data-name="Path 23540" d="M307.029,307.445l118.493,71.3c13.366,8.044,36.714,7.035,52.147-2.253L756.3,208.827c8.124-4.888,12.43-11.1,12.742-17.053.337,6.37-3.986,13.173-12.742,18.443L477.669,377.886c-15.433,9.288-38.781,10.3-52.147,2.254L307.029,308.834c-6.331-3.808-9.281-8.967-9-14.326C298.286,299.362,301.248,303.966,307.029,307.445Z" transform="translate(-288.452 -102.101)" fill="url(#radial-gradient)" style="mix-blend-mode: color-dodge;isolation: isolate"/>
        <path id="Path_23541" data-name="Path 23541" d="M312.127,314.413,590.851,146.542c13.518-8.143,33.967-9.027,45.675-1.975l117.762,70.927C766,222.544,764.527,234.86,751.009,243L472.285,410.873c-13.518,8.143-33.967,9.027-45.675,1.975L308.848,341.921C297.14,334.871,298.609,322.556,312.127,314.413Z" transform="translate(-286.485 -136.974)" fill="url(#linear-gradient-4)"/>
        <path id="Path_23542" data-name="Path 23542" d="M314.8,315.086,591.754,148.048c11.3-6.814,28.392-7.555,38.176-1.653l115.091,69.413c9.785,5.9,8.558,16.211-2.742,23.025L465.327,405.872c-11.3,6.815-28.392,7.555-38.176,1.653L312.06,338.112C302.275,332.209,303.5,321.9,314.8,315.086Z" transform="translate(-283.458 -135.226)" fill="#1f0d3d"/>
        <path id="Path_23543" data-name="Path 23543" d="M627.464,147.8c-9.217-5.561-24.114-5.59-33.272-.062L314.373,316.62c-9.158,5.528-9.112,14.518.105,20.081l112.348,67.806c9.216,5.561,24.112,5.59,33.27.062l279.818-168.88c9.158-5.528,9.112-14.518-.106-20.079Z" transform="translate(-282.062 -134.42)" fill="#3d065f"/>
        <path id="Path_23544" data-name="Path 23544" d="M442.639,405.36a30.229,30.229,0,0,0,15.4-3.81L737.719,232.672c3.675-2.219,5.7-5.031,5.7-7.922,0-2.923-2.06-5.777-5.8-8.036l-112.295-67.8a30.579,30.579,0,0,0-15.586-3.874,30.227,30.227,0,0,0-15.391,3.808L314.658,317.726c-3.675,2.217-5.7,5.031-5.7,7.919,0,2.924,2.061,5.778,5.8,8.036l112.295,67.807A30.583,30.583,0,0,0,442.639,405.36Z" transform="translate(-281.105 -133.464)" fill="url(#linear-gradient-5)"/>
        <path id="Path_23545" data-name="Path 23545" d="M552.261,233.835l13.462-7.772a7.286,7.286,0,0,0,3.043-5.814h0c0-2.239-1.362-3.27-3.043-2.3l-13.462,7.772a7.286,7.286,0,0,0-3.043,5.814h0C549.218,233.776,550.58,234.805,552.261,233.835Z" transform="translate(-139.805 -84.781)" fill="url(#linear-gradient-6)"/>
        <path id="Path_23546" data-name="Path 23546" d="M552.261,233.835l13.462-7.772a7.286,7.286,0,0,0,3.043-5.814h0c0-2.239-1.362-3.27-3.043-2.3l-13.462,7.772a7.286,7.286,0,0,0-3.043,5.814h0C549.218,233.776,550.58,234.805,552.261,233.835Z" transform="translate(-139.805 -84.781)" fill="url(#linear-gradient-7)"/>
        <path id="Path_23547" data-name="Path 23547" d="M550.733,233.088a1.689,1.689,0,0,0,.81-.259l13.464-7.772a6.522,6.522,0,0,0,2.645-5.125c0-.864-.274-1.873-1.041-1.873a1.689,1.689,0,0,0-.81.259l-13.464,7.772a6.527,6.527,0,0,0-2.644,5.127C549.694,232.081,549.966,233.088,550.733,233.088Z" transform="translate(-139.486 -84.463)" fill="url(#linear-gradient-8)"/>
        <path id="Path_23548" data-name="Path 23548" d="M537.879,242.139l13.462-7.772a7.289,7.289,0,0,0,3.041-5.814h0c0-2.241-1.362-3.27-3.041-2.3l-13.462,7.774a7.283,7.283,0,0,0-3.043,5.814h0C534.836,242.079,536.2,243.108,537.879,242.139Z" transform="translate(-145.836 -79.209)" fill="url(#linear-gradient-9)"/>
        <path id="Path_23549" data-name="Path 23549" d="M537.879,242.139l13.462-7.772a7.289,7.289,0,0,0,3.041-5.814h0c0-2.241-1.362-3.27-3.041-2.3l-13.462,7.774a7.283,7.283,0,0,0-3.043,5.814h0C534.836,242.079,536.2,243.108,537.879,242.139Z" transform="translate(-145.836 -79.209)" fill="url(#linear-gradient-10)"/>
        <path id="Path_23550" data-name="Path 23550" d="M536.35,241.391a1.7,1.7,0,0,0,.812-.259l13.462-7.77a6.525,6.525,0,0,0,2.647-5.127c0-.862-.272-1.872-1.041-1.872a1.7,1.7,0,0,0-.812.257l-13.462,7.774a6.525,6.525,0,0,0-2.645,5.127C535.311,240.383,535.583,241.391,536.35,241.391Z" transform="translate(-145.498 -78.89)" fill="url(#linear-gradient-11)"/>
        <path id="Path_23551" data-name="Path 23551" d="M466.449,325.19l196.2-113.781c8.278-4.779,12.76-10.82,13.26-16.655.017-.194.028-2.545.037-5.152,0,.048,0,12.118-.037,12.559-.5,5.835-4.981,11.876-13.26,16.655Z" transform="translate(-195.346 -103.559)" fill="#3d065f" style="mix-blend-mode: color-dodge;isolation: isolate"/>
        <ellipse id="Ellipse_240" data-name="Ellipse 240" cx="88.525" cy="58.765" rx="88.525" ry="58.765" transform="translate(261.708 145.612) rotate(-22.66)" fill="url(#radial-gradient-2)" style="mix-blend-mode: color-dodge;isolation: isolate"/>
        <ellipse id="Ellipse_241" data-name="Ellipse 241" cx="30.581" cy="46.068" rx="30.581" ry="46.068" transform="translate(113.297 298.418) rotate(-67.66)" fill="url(#radial-gradient-3)" style="mix-blend-mode: color-dodge;isolation: isolate"/>
        <path id="Path_23552" data-name="Path 23552" d="M333.833,287.008l22.1,12.762h0c0-4.039-2.455-8.73-5.484-10.479l-11.136-6.428c-3.03-1.75-5.484.107-5.484,4.146Z" transform="translate(-264.415 -41.419)"/>
        <path id="Path_23553" data-name="Path 23553" d="M345.371,250.579a6.087,6.087,0,0,1,3.085.867c2.385,1.377,1.6,2.647-.067,3.708.2.216.062.541-.358.784a1.568,1.568,0,0,1-.757.16,2.78,2.78,0,0,1-.846-.13,11.25,11.25,0,0,1-2.488.271c-.637,0-1.168.294-1.151.662a2.6,2.6,0,0,0,.916,1.755c.762.715.612,1.663-.456,2.278L341.4,262a1.324,1.324,0,0,1-.648.155,1.359,1.359,0,0,1-.657-.157l-9.916-5.727a.4.4,0,0,1-.005-.752l1.852-1.069a4.621,4.621,0,0,1,2.258-.538,5.145,5.145,0,0,1,1.689.274,9.583,9.583,0,0,0,3.038.53h.028c.623,0,1.116-.3,1.118-.665a2.532,2.532,0,0,1,.47-1.437.553.553,0,0,1,.052-.924,2,2,0,0,1,.974-.259,1.308,1.308,0,0,1,.383.052,7.194,7.194,0,0,1,3.339-.906Zm0-1.337h0a8.315,8.315,0,0,0-3.558.859c-.055,0-.109-.005-.164-.005a3.327,3.327,0,0,0-1.643.438,1.848,1.848,0,0,0-.931,1.362,1.881,1.881,0,0,0,.043.69,3.821,3.821,0,0,0-.239.792,8.236,8.236,0,0,1-2.463-.448,6.464,6.464,0,0,0-2.137-.353,5.941,5.941,0,0,0-2.926.717l-1.852,1.069a1.723,1.723,0,0,0,.005,3.068l9.916,5.727a2.66,2.66,0,0,0,1.325.336,2.631,2.631,0,0,0,1.317-.334l1.852-1.069a2.959,2.959,0,0,0,1.586-2.184,2.617,2.617,0,0,0-.884-2.227c-.042-.038-.08-.077-.117-.115a12.6,12.6,0,0,0,1.895-.222,4.312,4.312,0,0,0,.877.094,2.829,2.829,0,0,0,1.425-.339,2.158,2.158,0,0,0,1.051-1.258,3.418,3.418,0,0,0,1.544-2.662c-.023-1.1-.754-2.069-2.171-2.888a7.455,7.455,0,0,0-3.753-1.046Z" transform="translate(-267.948 -63.538)" fill="#a56ef4"/>
        <path id="Path_23554" data-name="Path 23554" d="M394.386,282.707l1.308,1.227q.519-.045,1.043-.045c.363,0,.727.017,1.086.048l1.3-1.222a13.861,13.861,0,0,1,2.323.558l-.573,1.4a7.425,7.425,0,0,1,.819.4,6.039,6.039,0,0,1,.692.473l2.42-.331a4.585,4.585,0,0,1,.966,1.34l-2.117.747a2.345,2.345,0,0,1,.007,1.23l2.125.755a4.509,4.509,0,0,1-.951,1.337l-2.425-.339a5.613,5.613,0,0,1-.687.47,7.351,7.351,0,0,1-.814.4l.588,1.4a13.573,13.573,0,0,1-2.316.55l-1.308-1.227q-.519.045-1.043.045c-.363,0-.727-.017-1.086-.05l-1.3,1.223a13.866,13.866,0,0,1-2.323-.558l.573-1.4a7.449,7.449,0,0,1-.819-.4,5.9,5.9,0,0,1-.692-.473l-2.42.331a4.544,4.544,0,0,1-.966-1.34l2.117-.749a2.339,2.339,0,0,1-.007-1.228l-2.126-.755a4.516,4.516,0,0,1,.951-1.339l2.425.341a5.806,5.806,0,0,1,.687-.471,7.645,7.645,0,0,1,.814-.4l-.588-1.4a13.731,13.731,0,0,1,2.316-.548Zm2.411,6.809a4.016,4.016,0,0,0,1.965-.47,1.2,1.2,0,0,0-.012-2.283,4.368,4.368,0,0,0-3.954-.007c-1.088.628-1.081,1.649.013,2.283a4.063,4.063,0,0,0,1.987.476Zm-2.411-8.146a1.3,1.3,0,0,0-.2.015,14.913,14.913,0,0,0-2.545.6,1.336,1.336,0,0,0-.805,1.785l.109.259c-.047.03-.094.06-.139.092l-1.89-.266a1.388,1.388,0,0,0-.185-.013,1.342,1.342,0,0,0-.941.388,5.835,5.835,0,0,0-1.23,1.74,1.338,1.338,0,0,0,.772,1.808l.307.109-.289.1a1.335,1.335,0,0,0-.77,1.818,5.9,5.9,0,0,0,1.242,1.736,1.342,1.342,0,0,0,.939.384,1.308,1.308,0,0,0,.18-.012l1.888-.259.159.1-.107.262a1.336,1.336,0,0,0,.809,1.773,15.2,15.2,0,0,0,2.548.613,1.38,1.38,0,0,0,.2.015,1.329,1.329,0,0,0,.917-.366l.871-.82c.2.008.4.013.593.013s.368-.005.55-.012l.886.831a1.343,1.343,0,0,0,.916.363,1.3,1.3,0,0,0,.2-.015,15.1,15.1,0,0,0,2.545-.6,1.337,1.337,0,0,0,.805-1.786l-.109-.259c.047-.028.092-.059.139-.09l1.89.266a1.376,1.376,0,0,0,.185.012,1.335,1.335,0,0,0,.941-.388,5.837,5.837,0,0,0,1.23-1.738,1.337,1.337,0,0,0-.772-1.808l-.307-.109.289-.1a1.337,1.337,0,0,0,.77-1.82,5.912,5.912,0,0,0-1.242-1.734,1.342,1.342,0,0,0-.939-.384,1.307,1.307,0,0,0-.18.012l-1.89.259-.157-.1.107-.262a1.335,1.335,0,0,0-.809-1.773,15.017,15.017,0,0,0-2.548-.613,1.371,1.371,0,0,0-.2-.015,1.335,1.335,0,0,0-.917.364l-.871.822c-.2-.008-.4-.013-.593-.013s-.368,0-.55.012l-.886-.832a1.341,1.341,0,0,0-.916-.361ZM395.5,287.9a2.778,2.778,0,0,1,1.26-.271,2.808,2.808,0,0,1,1.3.284,2.779,2.779,0,0,1-1.262.271,2.827,2.827,0,0,1-1.3-.284Z" transform="translate(-235.453 -41.979)" fill="#a56ef4"/>
        <path id="Path_23555" data-name="Path 23555" d="M352.978,262.3,356,264.047l-5.483,3.165-3.026-1.748,5.483-3.165Zm8.074.635,3.026,1.748-8.968,5.179-3.028-1.748,8.97-5.179Zm8.074.635,3.026,1.746L359.7,272.507l-3.025-1.746,12.456-7.192Zm-16.149-2.607a1.344,1.344,0,0,0-.668.179l-5.483,3.165a1.337,1.337,0,0,0,0,2.316l3.026,1.748a1.345,1.345,0,0,0,.668.179,1.285,1.285,0,0,0,.287-.032,1.331,1.331,0,0,0,.6.754l3.028,1.748a1.337,1.337,0,0,0,.668.179,1.27,1.27,0,0,0,.286-.032,1.334,1.334,0,0,0,.607.754l3.025,1.746a1.328,1.328,0,0,0,1.337,0l12.458-7.192a1.336,1.336,0,0,0,0-2.314l-3.026-1.748a1.338,1.338,0,0,0-1.337,0l-3.126,1.8a1.33,1.33,0,0,0-.585-.692l-3.026-1.748a1.339,1.339,0,0,0-1.337,0l-3.126,1.8a1.332,1.332,0,0,0-.585-.692l-3.026-1.748a1.341,1.341,0,0,0-.669-.179Z" transform="translate(-259.822 -55.673)" fill="#a56ef4"/>
        <path id="Path_23556" data-name="Path 23556" d="M375.881,271.523a6.934,6.934,0,0,1,3.392.812c1.3.752,1.7,1.827,1.191,2.771a8.083,8.083,0,0,1,1.414-.122,6.941,6.941,0,0,1,3.387.81c1.868,1.079,1.878,2.822.022,3.893-1.484.857-4.34,1.1-7.085,1.1a66.037,66.037,0,0,1-6.881-.4s-2.186-6.1,1.208-8.063a6.84,6.84,0,0,1,3.352-.8Zm0-1.337v0a8.165,8.165,0,0,0-4.021.979c-4.31,2.488-1.9,9.38-1.8,9.672a1.343,1.343,0,0,0,1.1.877,67.42,67.42,0,0,0,7.04.408c3.73,0,6.265-.418,7.754-1.277a3.367,3.367,0,0,0-.022-6.21,8.217,8.217,0,0,0-3.99-.989,3.853,3.853,0,0,0-2-2.47,8.239,8.239,0,0,0-4.061-.991Z" transform="translate(-245.783 -49.484)" fill="#a56ef4"/>
      </g>
      <g id="Group_6448" data-name="Group 6448" transform="translate(111.558 265.703)">
        <g id="Group_6446" data-name="Group 6446" transform="translate(0 2.926)">
          <path id="Path_23557" data-name="Path 23557" d="M442.423,303.1a26.642,26.642,0,0,1-13.29-3.153l-31.532-18.2-31.534-18.206c-4.321-2.495-6.8-6.347-6.8-10.564,0-4.762,3.13-9.3,8.586-12.449a34.037,34.037,0,0,1,16.55-4.179,26.621,26.621,0,0,1,13.285,3.152L429.218,257.7l31.534,18.206c4.323,2.495,6.8,6.345,6.8,10.564,0,4.761-3.128,9.3-8.584,12.448A34.029,34.029,0,0,1,442.423,303.1Z" transform="translate(-359.265 -236.346)" opacity="0.02"/>
          <path id="Path_23558" data-name="Path 23558" d="M368.294,240.9h0a33.065,33.065,0,0,1,16.119-4.056,27.1,27.1,0,0,1,11.4,2.306c.493.231,1.063.53,1.521.794l30.712,17.731,2.568,1.484,28.137,16.246a15.12,15.12,0,0,1,5.516,5.341,10.638,10.638,0,0,1,1.36,4.744c.154,4.592-2.811,9.045-8.18,12.145h0A33.076,33.076,0,0,1,441.33,301.7a27.134,27.134,0,0,1-11.4-2.308c-.495-.231-1.064-.53-1.522-.794l-30.712-17.731-2.57-1.484-28.135-16.244a15.11,15.11,0,0,1-5.516-5.342,10.638,10.638,0,0,1-1.36-4.744C359.959,248.458,362.925,244,368.294,240.9Z" transform="translate(-358.7 -236.009)" opacity="0.045"/>
          <path id="Path_23559" data-name="Path 23559" d="M368.741,241.282h0a32.111,32.111,0,0,1,15.688-3.932,26.27,26.27,0,0,1,11.081,2.274c.443.209,1.058.536,1.471.774l29.891,17.258,2.5,1.445,27.375,15.806a16.483,16.483,0,0,1,5.456,5.09,10.546,10.546,0,0,1,1.494,4.517c.311,4.422-2.493,8.791-7.775,11.839h0a32.086,32.086,0,0,1-15.684,3.934,26.292,26.292,0,0,1-11.084-2.276c-.443-.209-1.059-.535-1.47-.774l-29.892-17.257-2.5-1.445-27.375-15.8a16.536,16.536,0,0,1-5.456-5.092,10.57,10.57,0,0,1-1.494-4.515C360.655,248.7,363.459,244.333,368.741,241.282Z" transform="translate(-358.14 -235.672)" opacity="0.071"/>
          <path id="Path_23560" data-name="Path 23560" d="M369.194,241.662h0a31.134,31.134,0,0,1,15.255-3.81,25.449,25.449,0,0,1,10.763,2.244c.393.185,1.054.541,1.42.752l29.071,16.786,2.438,1.407,26.615,15.365a18.3,18.3,0,0,1,5.394,4.841,10.55,10.55,0,0,1,1.629,4.288c.468,4.254-2.176,8.537-7.371,11.535h0a31.138,31.138,0,0,1-15.253,3.812,25.489,25.489,0,0,1-10.766-2.244c-.393-.187-1.056-.541-1.422-.754L397.9,279.1l-2.44-1.409-26.613-15.365a18.288,18.288,0,0,1-5.4-4.841,10.568,10.568,0,0,1-1.629-4.286C361.353,248.944,364,244.662,369.194,241.662Z" transform="translate(-357.585 -235.336)" opacity="0.096"/>
          <path id="Path_23561" data-name="Path 23561" d="M369.653,242.041h0a30.16,30.16,0,0,1,14.822-3.686,24.637,24.637,0,0,1,10.447,2.212c.343.164,1.049.548,1.37.732l28.251,16.311,2.373,1.37,25.853,14.926a20.757,20.757,0,0,1,5.336,4.59,10.687,10.687,0,0,1,1.763,4.061c.627,4.084-1.858,8.282-6.968,11.231h0a30.172,30.172,0,0,1-14.82,3.688,24.639,24.639,0,0,1-10.449-2.214c-.344-.165-1.051-.548-1.372-.734l-28.251-16.309-2.373-1.37-25.853-14.926a20.7,20.7,0,0,1-5.336-4.59,10.69,10.69,0,0,1-1.763-4.059C362.057,249.188,364.543,244.992,369.653,242.041Z" transform="translate(-357.035 -234.999)" opacity="0.122"/>
          <path id="Path_23562" data-name="Path 23562" d="M370.116,242.42h0a29.225,29.225,0,0,1,14.391-3.564,23.836,23.836,0,0,1,10.13,2.182c.294.142,1.046.555,1.32.714l27.43,15.836,2.308,1.332,25.091,14.486a24.1,24.1,0,0,1,5.276,4.34,10.945,10.945,0,0,1,1.9,3.832c.787,3.917-1.541,8.028-6.566,10.927h0a29.2,29.2,0,0,1-14.388,3.566,23.833,23.833,0,0,1-10.133-2.184c-.294-.142-1.046-.553-1.322-.712l-27.428-15.836-2.308-1.332L370.724,261.52a24.073,24.073,0,0,1-5.277-4.341,10.922,10.922,0,0,1-1.9-3.828C362.763,249.431,365.093,245.321,370.116,242.42Z" transform="translate(-356.49 -234.663)" opacity="0.147"/>
          <path id="Path_23563" data-name="Path 23563" d="M370.584,242.8h0a28.217,28.217,0,0,1,13.96-3.441,22.968,22.968,0,0,1,9.812,2.151c.244.119,1.043.56,1.272.692l26.608,15.362,2.241,1.3L448.808,272.9a29.089,29.089,0,0,1,5.215,4.089,11.408,11.408,0,0,1,2.032,3.6c.951,3.75-1.225,7.774-6.161,10.624h0a28.227,28.227,0,0,1-13.957,3.441,22.984,22.984,0,0,1-9.816-2.151c-.244-.12-1.043-.56-1.272-.692l-26.61-15.363L396,275.162l-24.33-14.047a28.912,28.912,0,0,1-5.215-4.091,11.352,11.352,0,0,1-2.032-3.6C363.472,249.674,365.646,245.65,370.584,242.8Z" transform="translate(-355.951 -234.325)" opacity="0.173"/>
          <path id="Path_23564" data-name="Path 23564" d="M371.057,243.178h0a27.286,27.286,0,0,1,13.529-3.319,22.153,22.153,0,0,1,9.495,2.121c.2.1,1.038.566,1.222.672l25.787,14.889,2.176,1.257,23.57,13.607a36.654,36.654,0,0,1,5.155,3.84,12.017,12.017,0,0,1,2.166,3.374c1.118,3.579-.906,7.518-5.757,10.319h0a27.253,27.253,0,0,1-13.524,3.319,22.162,22.162,0,0,1-9.5-2.12c-.2-.1-1.039-.566-1.223-.672l-25.787-14.889-2.176-1.255-23.568-13.609a36.533,36.533,0,0,1-5.157-3.838A12.043,12.043,0,0,1,365.3,253.5C364.183,249.918,366.206,245.979,371.057,243.178Z" transform="translate(-355.416 -233.989)" opacity="0.198"/>
          <path id="Path_23565" data-name="Path 23565" d="M371.538,243.557h0a26.32,26.32,0,0,1,13.1-3.2,21.343,21.343,0,0,1,9.177,2.09c.145.072,1.034.572,1.171.65l24.967,14.416,2.111,1.218L444.868,271.9c.692.4,4.786,2.99,5.1,3.589a7.677,7.677,0,0,1,2.3,3.145c1.288,3.411-.588,7.266-5.352,10.015h0a26.29,26.29,0,0,1-13.094,3.2,21.353,21.353,0,0,1-9.181-2.089c-.145-.074-1.034-.573-1.171-.653L398.5,274.693l-2.111-1.218L373.58,260.307c-.692-.4-4.786-2.989-5.095-3.589a7.667,7.667,0,0,1-2.3-3.145C364.9,250.162,366.772,246.309,371.538,243.557Z" transform="translate(-354.888 -233.653)" opacity="0.224"/>
          <path id="Path_23566" data-name="Path 23566" d="M372.022,243.937h0a25.33,25.33,0,0,1,12.663-3.073,20.526,20.526,0,0,1,8.861,2.059c.1.048,1.029.578,1.121.63l24.147,13.941,2.045,1.181L442.906,271.4a48.385,48.385,0,0,1,5.037,3.339,7.577,7.577,0,0,1,2.435,2.918c1.461,3.239-.271,7.01-4.95,9.71h0a25.323,25.323,0,0,1-12.661,3.073,20.539,20.539,0,0,1-8.863-2.059c-.1-.05-1.031-.578-1.123-.632l-24.147-13.94-2.044-1.181L374.544,259.9a48.379,48.379,0,0,1-5.037-3.339,7.585,7.585,0,0,1-2.435-2.916C365.611,250.409,367.343,246.638,372.022,243.937Z" transform="translate(-354.365 -233.316)" opacity="0.249"/>
          <path id="Path_23567" data-name="Path 23567" d="M372.512,244.316h0a24.378,24.378,0,0,1,12.232-2.949,19.7,19.7,0,0,1,8.544,2.027c.048.025,1.026.585,1.071.612l23.326,13.467,1.98,1.143L440.951,270.9c.231.134,4.871,2.889,4.975,3.088a7.545,7.545,0,0,1,2.57,2.689c1.638,3.065.047,6.756-4.545,9.406h0a24.342,24.342,0,0,1-12.23,2.949,19.674,19.674,0,0,1-8.546-2.027c-.048-.025-1.028-.585-1.073-.61l-23.326-13.467-1.979-1.143L375.511,259.5c-.231-.134-4.873-2.889-4.976-3.09a7.537,7.537,0,0,1-2.568-2.687C366.329,250.659,367.92,246.968,372.512,244.316Z" transform="translate(-353.846 -232.979)" opacity="0.275"/>
          <path id="Path_23568" data-name="Path 23568" d="M422.45,285.635l-25.44-14.688-25.44-14.688c-5.133-2.964-4.49-8.141,1.437-11.562h0c5.927-3.422,14.894-3.795,20.027-.831l25.44,14.688,25.442,14.687c5.132,2.964,4.488,8.141-1.439,11.564h0C436.55,288.227,427.583,288.6,422.45,285.635Z" transform="translate(-353.334 -232.643)" opacity="0.3"/>
        </g>
        <path id="Path_23569" data-name="Path 23569" d="M429.626,288.847l-63.065-36.41c-6.363-3.673-5.564-10.09,1.781-14.332h0c7.348-4.241,18.462-4.7,24.823-1.029l63.065,36.412c6.363,3.673,5.566,10.09-1.781,14.331h0C447.1,292.06,435.989,292.52,429.626,288.847Z" transform="translate(-357.252 -234.595)" fill="url(#linear-gradient-12)"/>
        <path id="Path_23570" data-name="Path 23570" d="M454.445,281.832h0c-7.348,4.243-18.462,4.7-24.823,1.029l-63.065-36.41c-2.552-1.474-3.932-3.391-4.219-5.428-.394,2.644.977,5.227,4.219,7.1l63.065,36.41c6.362,3.673,17.476,3.213,24.823-1.029h0c4.4-2.54,6.432-5.859,6-8.9C460.068,277.147,458.049,279.752,454.445,281.832Z" transform="translate(-357.248 -230.281)" fill="url(#radial-gradient-4)" style="mix-blend-mode: color-dodge;isolation: isolate"/>
        <g id="Group_6447" data-name="Group 6447" transform="translate(30.578 13.491)">
          <path id="Path_23571" data-name="Path 23571" d="M377.564,250.072a.3.3,0,0,1,.185-.261l12.157-7.018a.92.92,0,0,1,.458-.124.86.86,0,0,1,.459.115l5.449,3.145q2.2,1.268,2.328,2.455t-1.534,2.144a5.274,5.274,0,0,1-2.132.677,6.881,6.881,0,0,1-2.1-.078,1.577,1.577,0,0,1,.176,1.437,2.62,2.62,0,0,1-1.285,1.372,7.363,7.363,0,0,1-3.984.934,9.208,9.208,0,0,1-4.371-1.3l-5.618-3.243A.311.311,0,0,1,377.564,250.072Zm7.485,2.164a4.117,4.117,0,0,0,2.055.571,3.682,3.682,0,0,0,1.9-.466q.822-.476.8-1.1t-.979-1.18l-3.1-1.791-3.772,2.179Zm5.528-3.407a4.09,4.09,0,0,0,1.942.582,3.262,3.262,0,0,0,1.768-.423c.523-.3.757-.633.705-.994s-.4-.73-1.054-1.1l-2.913-1.683-3.362,1.942Z" transform="translate(-377.564 -242.669)" fill="#fff"/>
          <path id="Path_23572" data-name="Path 23572" d="M386.851,254.831q-.123-1.557,2.492-3.068l7.6-4.386a.907.907,0,0,1,.458-.124.858.858,0,0,1,.46.114l1.73,1c.137.079.206.169.207.271s-.069.191-.2.271l-7.6,4.387c-.982.568-1.491,1.131-1.516,1.689s.389,1.088,1.253,1.586a5.225,5.225,0,0,0,2.747.725,6.015,6.015,0,0,0,2.928-.876l7.6-4.388a.923.923,0,0,1,.468-.119.907.907,0,0,1,.468.12l1.73,1c.139.08.2.169.2.266s-.078.185-.216.266l-7.6,4.386a10.014,10.014,0,0,1-5.3,1.445,10.867,10.867,0,0,1-5.225-1.529Q386.972,256.388,386.851,254.831Z" transform="translate(-371.336 -239.593)" fill="#fff"/>
          <path id="Path_23573" data-name="Path 23573" d="M395.949,261.734a.306.306,0,0,1,.185-.259l4.2-2.425,3.372-7.089a.954.954,0,0,1,.149-.152.765.765,0,0,1,.4-.09.82.82,0,0,1,.384.092l1.693.978a.407.407,0,0,1,.227.541l-2.258,4.948,8.591-1.293a2.141,2.141,0,0,1,.458-.013,1.037,1.037,0,0,1,.46.134l1.691.978a.278.278,0,0,1,.17.227c0,.087-.057.162-.169.227a.75.75,0,0,1-.261.087l-12.259,1.955-4.2,2.426a.857.857,0,0,1-.46.112.959.959,0,0,1-.46-.124l-1.728-1A.311.311,0,0,1,395.949,261.734Z" transform="translate(-365.227 -236.596)" fill="#fff"/>
        </g>
      </g>
      <g id="Group_6449" data-name="Group 6449" transform="translate(134.538 84.536)">
        <path id="Path_23574" data-name="Path 23574" d="M373.717,215.629a.835.835,0,0,1-.836-.836v-3.342a.836.836,0,0,1,1.671,0v3.342A.836.836,0,0,1,373.717,215.629Zm0-6.684a.835.835,0,0,1-.836-.836v-3.342a.836.836,0,1,1,1.671,0v3.342A.836.836,0,0,1,373.717,208.945Zm0-6.684a.835.835,0,0,1-.836-.836v-3.342a.836.836,0,1,1,1.671,0v3.342A.836.836,0,0,1,373.717,202.261Zm0-6.684a.835.835,0,0,1-.836-.836V191.4a.836.836,0,1,1,1.671,0v3.342A.836.836,0,0,1,373.717,195.577Zm0-6.684a.835.835,0,0,1-.836-.836v-3.342a.836.836,0,1,1,1.671,0v3.342A.836.836,0,0,1,373.717,188.892Zm0-6.684a.835.835,0,0,1-.836-.836v-3.342a.836.836,0,1,1,1.671,0v3.342A.836.836,0,0,1,373.717,182.208Zm0-6.684a.835.835,0,0,1-.836-.836v-3.342a.836.836,0,1,1,1.671,0v3.342A.836.836,0,0,1,373.717,175.524Zm0-6.684a.835.835,0,0,1-.836-.836v-3.342a.836.836,0,0,1,1.671,0V168A.836.836,0,0,1,373.717,168.84Zm0-6.684a.835.835,0,0,1-.836-.836v-3.342a.836.836,0,1,1,1.671,0v3.342A.836.836,0,0,1,373.717,162.156Zm0-6.684a.835.835,0,0,1-.836-.836v-3.342a.836.836,0,1,1,1.671,0v3.342A.836.836,0,0,1,373.717,155.472Zm0-6.684a.835.835,0,0,1-.836-.836V144.61a.836.836,0,1,1,1.671,0v3.342A.836.836,0,0,1,373.717,148.788Zm0-6.684a.835.835,0,0,1-.836-.836v-3.342a.836.836,0,0,1,1.671,0v3.342A.836.836,0,0,1,373.717,142.1Zm0-6.684a.835.835,0,0,1-.836-.836v-3.342a.836.836,0,1,1,1.671,0v3.342A.836.836,0,0,1,373.717,135.419Zm0-6.684a.835.835,0,0,1-.836-.836v-3.342a.836.836,0,1,1,1.671,0V127.9A.836.836,0,0,1,373.717,128.735Z" transform="translate(-372.881 -123.722)" fill="#acff68"/>
      </g>
      <path id="Path_23575" data-name="Path 23575" d="M499.764,152.524l16.821,9.712a2.772,2.772,0,0,0,2.507.005.764.764,0,0,0-.007-1.447l-16.822-9.712a2.772,2.772,0,0,0-2.507-.005A.764.764,0,0,0,499.764,152.524Zm15.1,10.7-16.821-9.712a2.772,2.772,0,0,0-2.507-.005.765.765,0,0,0,.007,1.449l16.822,9.712a2.767,2.767,0,0,0,2.507,0A.764.764,0,0,0,514.865,163.229Zm-4.218,2.435-16.821-9.71a2.77,2.77,0,0,0-2.508-.005.764.764,0,0,0,.008,1.447l16.821,9.712a2.775,2.775,0,0,0,2.508.005A.765.765,0,0,0,510.648,165.664Z" transform="translate(-167.168 -21.603)" fill="#a56ef4"/>
      <g id="Group_6455" data-name="Group 6455" transform="translate(133.66 112.153)">
        <g id="Group_6450" data-name="Group 6450" transform="translate(0 16.585)">
          <path id="Path_23576" data-name="Path 23576" d="M503.221,357.786,381.183,287.328l234.15-135.875,122.038,70.459Z" transform="translate(-381.183 -151.453)" opacity="0.02"/>
          <path id="Path_23577" data-name="Path 23577" d="M502.813,355.823,382.481,286.349l231.285-134.22L734.1,221.6Z" transform="translate(-380.312 -151)" opacity="0.045"/>
          <path id="Path_23578" data-name="Path 23578" d="M502.406,353.86,383.778,285.371,612.2,152.8l118.627,68.489Z" transform="translate(-379.442 -150.546)" opacity="0.071"/>
          <path id="Path_23579" data-name="Path 23579" d="M502,351.9l-116.922-67.5L610.631,153.481l116.922,67.5Z" transform="translate(-378.571 -150.093)" opacity="0.096"/>
          <path id="Path_23580" data-name="Path 23580" d="M501.59,349.934l-115.216-66.52,222.69-129.258,115.216,66.52Z" transform="translate(-377.7 -149.639)" opacity="0.122"/>
          <path id="Path_23581" data-name="Path 23581" d="M501.182,347.972,387.671,282.436,607.5,154.832l113.511,65.536Z" transform="translate(-376.83 -149.186)" opacity="0.147"/>
          <path id="Path_23582" data-name="Path 23582" d="M500.774,346.009,388.969,281.458l216.96-125.95,111.805,64.551Z" transform="translate(-375.959 -148.732)" opacity="0.173"/>
          <path id="Path_23583" data-name="Path 23583" d="M500.366,344.046l-110.1-63.566,214.095-124.3,110.1,63.566Z" transform="translate(-375.088 -148.279)" opacity="0.198"/>
          <path id="Path_23584" data-name="Path 23584" d="M499.959,342.083,391.564,279.5,602.793,156.86l108.395,62.582Z" transform="translate(-374.217 -147.825)" opacity="0.224"/>
          <path id="Path_23585" data-name="Path 23585" d="M499.551,340.12l-106.689-61.6L601.226,157.536l106.689,61.6Z" transform="translate(-373.347 -147.371)" opacity="0.249"/>
          <path id="Path_23586" data-name="Path 23586" d="M499.143,338.157,394.159,277.544l205.5-119.333,104.984,60.613Z" transform="translate(-372.476 -146.918)" opacity="0.275"/>
          <path id="Path_23587" data-name="Path 23587" d="M498.735,336.194,395.457,276.566,598.091,158.887,701.37,218.515Z" transform="translate(-371.605 -146.464)" opacity="0.3"/>
        </g>
        <path id="Path_23588" data-name="Path 23588" d="M502.425,343.086,384.669,275.1,611.626,143.377l117.757,67.987Z" transform="translate(-378.844 -140.288)" fill="url(#linear-gradient-13)"/>
        <path id="Path_23589" data-name="Path 23589" d="M622.327,228.131,504.57,160.144l31.95-18.615,117.757,67.987Z" transform="translate(-298.386 -141.528)" fill="#72b63c"/>
        <path id="Path_23590" data-name="Path 23590" d="M471.546,262l-32.806-18.94c-3.183-1.838-2.784-5.048.892-7.172h0c3.678-2.122,9.239-2.353,12.422-.515l32.8,18.94c3.185,1.838,2.786,5.05-.891,7.172h0C480.29,263.611,474.729,263.841,471.546,262Z" transform="translate(-344.002 -79.386)" fill="#72b63c"/>
        <path id="Path_23591" data-name="Path 23591" d="M449.863,235.346c3.1,1.79,3.115,4.692.035,6.472a12.409,12.409,0,0,1-11.209-.02l-30.936-17.862c-3.1-1.79-3.117-4.694-.035-6.472a12.405,12.405,0,0,1,11.208.02l30.937,17.862Zm1.07-.618L420,216.866a14.765,14.765,0,0,0-13.357-.023c-3.676,2.122-3.658,5.575.042,7.712l30.938,17.86a14.756,14.756,0,0,0,13.355.025c3.678-2.122,3.658-5.575-.042-7.712Z" transform="translate(-365.943 -92.053)" fill="#72b63c"/>
        <path id="Path_23592" data-name="Path 23592" d="M530.209,175.712l-19.047,11-19.4-11.2,19.045-11,19.4,11.2Zm3.22,0-22.634-13.068L488.538,175.5l22.634,13.068,22.257-12.85Z" transform="translate(-309.144 -127.356)" fill="#7c1dc9"/>
        <path id="Path_23593" data-name="Path 23593" d="M554.216,197.5l-38.64-22.309,1.569-.906,38.64,22.309Z" transform="translate(-291 -119.55)" fill="#7c1dc9"/>
        <path id="Path_23594" data-name="Path 23594" d="M525.61,270.42,415.393,206.786l.495-.286,110.217,63.634Z" transform="translate(-358.227 -97.93)" fill="#7c1dc9"/>
        <path id="Path_23595" data-name="Path 23595" d="M551.534,199.044l-38.64-22.309,1.569-.906,38.64,22.309Z" transform="translate(-292.8 -118.511)" fill="#7c1dc9"/>
        <path id="Path_23596" data-name="Path 23596" d="M536.15,193.311l-25.983-15,1.569-.906,25.983,15Z" transform="translate(-294.63 -117.454)" fill="#7c1dc9"/>
        <path id="Path_23597" data-name="Path 23597" d="M505.985,189.7l-19.045,11-19.4-11.2,19.047-11,19.4,11.2Zm3.222,0-22.634-13.068-22.256,12.85,22.634,13.067,22.256-12.85Z" transform="translate(-325.398 -117.971)" fill="#7c1dc9"/>
        <path id="Path_23598" data-name="Path 23598" d="M529.994,211.48l-38.64-22.309,1.569-.906,38.64,22.309Z" transform="translate(-307.254 -110.166)" fill="#7c1dc9"/>
        <path id="Path_23599" data-name="Path 23599" d="M527.312,213.029l-38.64-22.309,1.569-.906,38.64,22.309Z" transform="translate(-309.054 -109.127)" fill="#7c1dc9"/>
        <path id="Path_23600" data-name="Path 23600" d="M511.928,207.3l-25.983-15,1.569-.906,25.983,15Z" transform="translate(-310.884 -108.07)" fill="#7c1dc9"/>
        <path id="Path_23601" data-name="Path 23601" d="M481.692,203.723l-19.046,11-19.4-11.2,19.046-11,19.4,11.2Zm3.22.007L462.278,190.66l-22.257,12.85,22.634,13.068,22.257-12.849Z" transform="translate(-341.701 -108.559)" fill="#7c1dc9"/>
        <path id="Path_23602" data-name="Path 23602" d="M505.7,225.506,467.06,203.2l1.569-.906,38.64,22.309Z" transform="translate(-323.557 -100.754)" fill="#7c1dc9"/>
        <path id="Path_23603" data-name="Path 23603" d="M503.017,227.055l-38.64-22.309,1.569-.906,38.64,22.308Z" transform="translate(-325.357 -99.714)" fill="#7c1dc9"/>
        <path id="Path_23604" data-name="Path 23604" d="M487.634,221.322l-25.983-15,1.569-.906,25.983,15Z" transform="translate(-327.187 -98.658)" fill="#7c1dc9"/>
        <g id="Group_6451" data-name="Group 6451" transform="translate(280.63 89.544)">
          <path id="Path_23605" data-name="Path 23605" d="M551.133,201.838c-2.672-1.544-2.685-4.046-.03-5.58a10.692,10.692,0,0,1,9.662.018c2.674,1.542,2.687,4.046.032,5.578A10.7,10.7,0,0,1,551.133,201.838Zm8.945-5.165a9.173,9.173,0,0,0-8.283-.015c-2.276,1.315-2.264,3.461.027,4.783a9.17,9.17,0,0,0,8.282.015C562.381,200.14,562.369,198,560.078,196.673Z" transform="translate(-549.121 -195.114)" fill="#7c1dc9"/>
          <path id="Path_23606" data-name="Path 23606" d="M555.526,198.813l1.383,0c.538,0,.974-.251.973-.561s-.44-.565-.979-.565l-1.384,0,0-.8c0-.311-.44-.563-.979-.565s-.974.251-.972.561l0,.8-1.382,0c-.54,0-.976.251-.974.561a.5.5,0,0,0,.289.4,1.408,1.408,0,0,0,.69.165l1.384,0,0,.8a.488.488,0,0,0,.287.4,1.409,1.409,0,0,0,.69.167c.54,0,.976-.251.974-.561Z" transform="translate(-547.718 -194.304)" fill="#7c1dc9"/>
        </g>
        <g id="Group_6452" data-name="Group 6452" transform="translate(240.67 112.613)">
          <path id="Path_23607" data-name="Path 23607" d="M527.22,215.643c-2.672-1.542-2.685-4.046-.03-5.578a10.7,10.7,0,0,1,9.664.017c2.672,1.544,2.685,4.047.03,5.58A10.7,10.7,0,0,1,527.22,215.643Zm8.945-5.164a9.17,9.17,0,0,0-8.282-.015c-2.278,1.315-2.266,3.459.025,4.783a9.173,9.173,0,0,0,8.283.015C538.468,213.947,538.456,211.8,536.165,210.479Z" transform="translate(-525.207 -208.92)" fill="#7c1dc9"/>
          <path id="Path_23608" data-name="Path 23608" d="M531.614,212.619l1.382,0c.54,0,.976-.251.974-.561s-.441-.565-.979-.565l-1.384,0-.005-.8c0-.311-.439-.563-.979-.565s-.974.251-.973.561l.005.8-1.384,0c-.54,0-.974.249-.972.561a.488.488,0,0,0,.287.4,1.393,1.393,0,0,0,.692.167l1.382,0,.005.8a.492.492,0,0,0,.287.4,1.434,1.434,0,0,0,.692.167c.54,0,.974-.251.973-.563Z" transform="translate(-523.804 -208.109)" fill="#7c1dc9"/>
        </g>
        <g id="Group_6453" data-name="Group 6453" transform="translate(199.731 136.25)">
          <path id="Path_23609" data-name="Path 23609" d="M502.721,229.788c-2.672-1.542-2.685-4.046-.03-5.578a10.692,10.692,0,0,1,9.662.017c2.674,1.542,2.687,4.046.032,5.58A10.7,10.7,0,0,1,502.721,229.788Zm8.945-5.164a9.163,9.163,0,0,0-8.283-.015c-2.276,1.313-2.264,3.459.027,4.783a9.17,9.17,0,0,0,8.282.015C513.969,228.092,513.957,225.946,511.666,224.624Z" transform="translate(-500.708 -223.065)" fill="#7c1dc9"/>
          <path id="Path_23610" data-name="Path 23610" d="M507.114,226.764l1.384,0c.538,0,.974-.251.972-.561s-.439-.565-.979-.565l-1.384,0,0-.8c0-.311-.44-.565-.979-.565s-.974.251-.973.561l0,.8-1.382,0c-.54,0-.976.251-.974.563a.494.494,0,0,0,.289.4,1.391,1.391,0,0,0,.69.167l1.384,0,0,.8a.5.5,0,0,0,.289.4,1.409,1.409,0,0,0,.69.165c.54,0,.976-.249.974-.561Z" transform="translate(-499.306 -222.254)" fill="#7c1dc9"/>
        </g>
        <path id="Path_23611" data-name="Path 23611" d="M546.093,160.709l-14.859-8.579,1.5-1.831c.164-.2.092-.439-.18-.6l-4.328-2.5a1.418,1.418,0,0,0-1.283,0,.392.392,0,0,0,0,.742l3.872,2.234L522.183,160.7c-.164.2-.09.438.182.6l1.38.8c-.094-.007-.185-.017-.284-.017-1.32,0-2.388.615-2.385,1.377s1.079,1.384,2.4,1.385,2.39-.613,2.385-1.377a.8.8,0,0,0-.028-.164l2.995,1.73c-.094-.007-.187-.017-.284-.017-1.32,0-2.388.613-2.385,1.377s1.079,1.382,2.4,1.385,2.39-.615,2.384-1.377a.783.783,0,0,0-.03-.164l.64.369a1.418,1.418,0,0,0,1.283,0,.392.392,0,0,0,0-.742l-8.731-5.042,1.761-2.147,10.661,6.154a3.055,3.055,0,0,0,2.41.152l6.853-2.552C546.814,162.046,546.963,161.212,546.093,160.709Z" transform="translate(-287.309 -137.823)" fill="url(#linear-gradient-14)"/>
        <path id="Path_23612" data-name="Path 23612" d="M540.609,158.576a12.958,12.958,0,0,1-11.724-.022c-3.248-1.875-3.265-4.906-.037-6.769a12.958,12.958,0,0,1,11.724.022C543.821,153.681,543.837,156.712,540.609,158.576Z" transform="translate(-283.712 -135.579)" fill="#f745be"/>
        <g id="Group_6454" data-name="Group 6454" transform="translate(246.352 16.816)">
          <path id="Path_23613" data-name="Path 23613" d="M534.532,154.714a.864.864,0,0,1,.383.852,1.334,1.334,0,0,1-.734.836,3.063,3.063,0,0,1-.954.353,4.1,4.1,0,0,1-1.075.065,5.011,5.011,0,0,1-1.133-.217,5.637,5.637,0,0,1-1.133-.5,3.18,3.18,0,0,1-1.021-.849,1.193,1.193,0,0,1-.244-.9l1.577-.1a.833.833,0,0,0,.105.6,1.8,1.8,0,0,0,.669.578,2.628,2.628,0,0,0,1.083.369,1.638,1.638,0,0,0,.976-.222c.319-.184.451-.393.394-.623s-.318-.48-.78-.747l-.259-.15.921-.531.287.165a2.578,2.578,0,0,0,1.141.368,1.686,1.686,0,0,0,.964-.192c.251-.145.353-.3.3-.475a.977.977,0,0,0-.493-.5,2.744,2.744,0,0,0-.958-.329,3.638,3.638,0,0,0-1.094-.005l.088-.949a3.624,3.624,0,0,1,.752-.007,6.039,6.039,0,0,1,.819.132,6.787,6.787,0,0,1,.827.254,5.477,5.477,0,0,1,.772.368,3.092,3.092,0,0,1,.742.566,1.362,1.362,0,0,1,.341.578.729.729,0,0,1-.075.546,1.323,1.323,0,0,1-.515.473,2.714,2.714,0,0,1-.608.256,3.484,3.484,0,0,1-.692.122,3.653,3.653,0,0,1-.715-.02A2.747,2.747,0,0,1,534.532,154.714Z" transform="translate(-528.608 -151.591)" fill="#fff"/>
        </g>
        <path id="Path_23614" data-name="Path 23614" d="M580.565,185.538l5.8.01c.5,0,.911-.234.907-.523s-.409-.526-.912-.528l-5.8-.01-.018-3.345c0-.291-.409-.526-.912-.528s-.911.234-.907.523l.018,3.347-5.8-.01c-.5,0-.909.234-.907.523a.462.462,0,0,0,.269.373,1.332,1.332,0,0,0,.645.155l5.8.01.018,3.347a.456.456,0,0,0,.269.371,1.307,1.307,0,0,0,.643.155c.5,0,.911-.234.907-.523Z" transform="translate(-253.114 -115.301)" fill="#e6e7e8"/>
        <path id="Path_23615" data-name="Path 23615" d="M502.426,315.85,386.478,248.072l-1.809,1.044L502.426,317.1l232.054-134.8-1.809-.209Z" transform="translate(-378.844 -114.305)" fill="url(#radial-gradient-5)" style="mix-blend-mode: color-dodge;isolation: isolate"/>
      </g>
      <g id="Group_6458" data-name="Group 6458" transform="translate(247.958 142.977)">
        <g id="Group_6456" data-name="Group 6456" transform="translate(0 1.295)">
          <path id="Path_23616" data-name="Path 23616" d="M570.781,260.73,446.206,188.807l49.5-28.419,124.575,71.923Z" transform="translate(-446.206 -160.388)" opacity="0.02"/>
          <path id="Path_23617" data-name="Path 23617" d="M569.788,259.339,447.145,188.531l48.234-27.7,122.643,70.808Z" transform="translate(-445.577 -160.091)" opacity="0.045"/>
          <path id="Path_23618" data-name="Path 23618" d="M568.795,257.948,448.083,188.255l46.964-26.982,120.712,69.693Z" transform="translate(-444.948 -159.794)" opacity="0.071"/>
          <path id="Path_23619" data-name="Path 23619" d="M567.8,256.557l-118.78-68.578,45.694-26.263L613.5,230.294Z" transform="translate(-444.318 -159.497)" opacity="0.096"/>
          <path id="Path_23620" data-name="Path 23620" d="M566.807,255.166,449.959,187.7l44.424-25.545,116.849,67.463Z" transform="translate(-443.689 -159.2)" opacity="0.122"/>
          <path id="Path_23621" data-name="Path 23621" d="M565.814,253.775,450.9,187.427,494.05,162.6l114.917,66.348Z" transform="translate(-443.059 -158.903)" opacity="0.147"/>
          <path id="Path_23622" data-name="Path 23622" d="M564.821,252.383,451.835,187.151l41.883-24.107L606.7,228.276Z" transform="translate(-442.43 -158.606)" opacity="0.173"/>
          <path id="Path_23623" data-name="Path 23623" d="M563.827,250.992,452.773,186.875l40.613-23.389L604.44,227.6Z" transform="translate(-441.8 -158.309)" opacity="0.198"/>
          <path id="Path_23624" data-name="Path 23624" d="M562.834,249.6l-109.123-63,39.343-22.67,109.123,63Z" transform="translate(-441.171 -158.012)" opacity="0.224"/>
          <path id="Path_23625" data-name="Path 23625" d="M561.84,248.21,454.649,186.323l38.073-21.952,107.191,61.887Z" transform="translate(-440.541 -157.715)" opacity="0.249"/>
          <path id="Path_23626" data-name="Path 23626" d="M560.847,246.819l-105.26-60.772,36.8-21.233,105.26,60.772Z" transform="translate(-439.912 -157.418)" opacity="0.275"/>
          <path id="Path_23627" data-name="Path 23627" d="M559.854,245.427,456.525,185.771l35.532-20.515,103.329,59.657Z" transform="translate(-439.283 -157.121)" opacity="0.3"/>
        </g>
        <path id="Path_23628" data-name="Path 23628" d="M568.2,249.574,452.258,182.633l39.871-23.02,115.946,66.941Z" transform="translate(-442.146 -159.613)" fill="#afccde"/>
        <path id="Path_23629" data-name="Path 23629" d="M505.349,180.02,486.6,190.847l-19.1-11.031,18.754-10.827,19.1,11.031Zm3.172.005-22.285-12.867L464.32,179.811l22.287,12.867,21.914-12.653Z" transform="translate(-434.052 -154.55)" fill="#a56ef4"/>
        <path id="Path_23630" data-name="Path 23630" d="M528.989,201.468,490.943,179.5l1.544-.892,38.046,21.965Z" transform="translate(-416.186 -146.865)" fill="#a56ef4"/>
        <path id="Path_23631" data-name="Path 23631" d="M526.348,202.993,488.3,181.028l1.545-.892L527.892,202.1Z" transform="translate(-417.959 -145.842)" fill="#a56ef4"/>
        <path id="Path_23632" data-name="Path 23632" d="M511.2,197.349l-25.583-14.771,1.545-.892,25.583,14.771Z" transform="translate(-419.761 -144.801)" fill="#a56ef4"/>
        <g id="Group_6457" data-name="Group 6457" transform="translate(130.458 65.729)" style="mix-blend-mode: screen;isolation: isolate">
          <path id="Path_23633" data-name="Path 23633" d="M526.258,205.567c-2.63-1.519-2.644-3.984-.03-5.493a10.534,10.534,0,0,1,9.515.017c2.632,1.519,2.645,3.984.03,5.494A10.535,10.535,0,0,1,526.258,205.567Zm8.808-5.085a9.026,9.026,0,0,0-8.156-.013c-2.241,1.293-2.229,3.406.027,4.707a9.018,9.018,0,0,0,8.155.015C537.333,203.9,537.322,201.786,535.066,200.482Z" transform="translate(-524.276 -198.947)" fill="#a56ef4"/>
          <path id="Path_23634" data-name="Path 23634" d="M530.583,202.589l1.362,0c.531,0,.959-.246.957-.553s-.433-.555-.962-.556l-1.362,0-.005-.787c0-.306-.433-.555-.964-.556s-.959.247-.958.553l0,.787-1.362,0c-.53,0-.959.247-.958.553a.484.484,0,0,0,.284.393,1.369,1.369,0,0,0,.68.164l1.362,0,0,.785a.482.482,0,0,0,.282.393,1.378,1.378,0,0,0,.68.164c.531,0,.961-.246.959-.553Z" transform="translate(-522.895 -198.15)" fill="#a56ef4"/>
        </g>
      </g>
      <g id="Group_6480" data-name="Group 6480" transform="translate(0 6.185)" style="mix-blend-mode: screen;isolation: isolate">
        <g id="Group_6459" data-name="Group 6459" transform="translate(213.146 45.082)">
          <path id="Path_23635" data-name="Path 23635" d="M566.657,149.461l-68.6,39.607-77.788-44.911,68.6-39.607,77.788,44.911Zm3.441.007-81.239-46.9-72.03,41.585,81.239,46.9,72.03-41.587Z" transform="translate(-416.828 -102.565)" fill="#72b63c"/>
        </g>
        <g id="Group_6460" data-name="Group 6460" transform="translate(169.761 86.797)">
          <path id="Path_23636" data-name="Path 23636" d="M442.727,146.007,422.87,157.472l-28.565-16.491,19.857-11.465,28.565,16.491Zm3.441.007-32.015-18.485-23.288,13.445,32.017,18.485,23.286-13.445Z" transform="translate(-390.865 -127.529)" fill="#72b63c"/>
          <path id="Path_23637" data-name="Path 23637" d="M463.4,157.944l-19.857,11.463L414.98,152.916l19.857-11.465L463.4,157.944Zm3.441.005-32.015-18.483L411.539,152.91l32.017,18.485,23.286-13.445Z" transform="translate(-376.992 -119.519)" fill="#72b63c"/>
          <path id="Path_23638" data-name="Path 23638" d="M484.075,169.88l-19.857,11.463-28.563-16.491,19.855-11.463,28.565,16.491Zm3.441.005L455.5,151.4l-23.287,13.444,32.017,18.485,23.286-13.445Z" transform="translate(-363.119 -111.509)" fill="#72b63c"/>
        </g>
        <g id="Group_6461" data-name="Group 6461" transform="translate(150.317 109.645)">
          <path id="Path_23639" data-name="Path 23639" d="M480.037,201.227l-100.808-58.2,3.159-1.824L483.2,199.4Z" transform="translate(-379.229 -141.202)" fill="#72b63c"/>
        </g>
        <g id="Group_6462" data-name="Group 6462" transform="translate(141.292 114.856)">
          <path id="Path_23640" data-name="Path 23640" d="M474.636,204.345l-100.808-58.2,3.159-1.824,100.808,58.2Z" transform="translate(-373.828 -144.32)" fill="#72b63c"/>
        </g>
        <g id="Group_6463" data-name="Group 6463" transform="translate(132.117 120.153)">
          <path id="Path_23641" data-name="Path 23641" d="M421.315,179.9l-52.977-30.586,3.159-1.824,52.977,30.586Z" transform="translate(-368.338 -147.49)" fill="#72b63c"/>
        </g>
        <g id="Group_6464" data-name="Group 6464" transform="translate(38.28 178.62)">
          <path id="Path_23642" data-name="Path 23642" d="M324.532,189.7a2.318,2.318,0,0,1-.819-1.569c-.015-.329.46-.592,1.029-.592a10.1,10.1,0,0,0,2.226-.244,2.044,2.044,0,0,0,1.434-.025c.376-.217.5-.508.321-.7,1.492-.949,2.192-2.085.058-3.317a5.622,5.622,0,0,0-5.747.033,1.676,1.676,0,0,0-1.213.185.5.5,0,0,0-.047.827,2.253,2.253,0,0,0-.419,1.285c0,.329-.456.6-1.026.595a8.576,8.576,0,0,1-2.719-.473,4.554,4.554,0,0,0-3.531.236l-1.656.958c-.323.185-.321.486,0,.673L321.3,192.7a1.292,1.292,0,0,0,1.166,0l1.656-.958C325.078,191.192,325.214,190.345,324.532,189.7Z" transform="translate(-312.183 -182.479)" fill="#72b63c"/>
        </g>
        <g id="Group_6465" data-name="Group 6465" transform="translate(124.815 226.656)">
          <path id="Path_23643" data-name="Path 23643" d="M376.436,218.422a5.2,5.2,0,0,0,.615-.419l2.169.3a3.994,3.994,0,0,0,.851-1.2l-1.9-.677a2.1,2.1,0,0,0-.005-1.1l1.893-.668a4.073,4.073,0,0,0-.864-1.2l-2.166.3a5.261,5.261,0,0,0-.618-.423,6.619,6.619,0,0,0-.734-.358l.513-1.25a12.4,12.4,0,0,0-2.077-.5l-1.158,1.095a10.846,10.846,0,0,0-1.907,0l-1.17-1.1a12.127,12.127,0,0,0-2.072.491l.526,1.252a6.262,6.262,0,0,0-.729.356,5.2,5.2,0,0,0-.615.419l-2.169-.3a4.053,4.053,0,0,0-.851,1.2l1.9.677a2.1,2.1,0,0,0,.007,1.1l-1.895.668a4.069,4.069,0,0,0,.864,1.2l2.166-.3a5.3,5.3,0,0,0,.62.423,6.464,6.464,0,0,0,.732.358l-.513,1.25a12.236,12.236,0,0,0,2.077.5l1.16-1.095a10.669,10.669,0,0,0,1.905,0l1.17,1.1a12.091,12.091,0,0,0,2.072-.491l-.526-1.252A6.261,6.261,0,0,0,376.436,218.422Zm-6.18-1.531a1.078,1.078,0,0,1-.01-2.042,3.906,3.906,0,0,1,3.536.005,1.079,1.079,0,0,1,.012,2.044A3.915,3.915,0,0,1,370.256,216.892Z" transform="translate(-363.968 -211.225)" fill="#72b63c"/>
        </g>
        <g id="Group_6466" data-name="Group 6466" transform="translate(64.584 196.143)">
          <path id="Path_23644" data-name="Path 23644" d="M327.924,195.8l2.707,1.564,4.9-2.832-2.707-1.564Zm4.1,2.37,2.707,1.564,8.026-4.634-2.709-1.564Zm15.25-4.066-11.146,6.435,2.707,1.564,11.146-6.435Z" transform="translate(-327.924 -192.965)" fill="#72b63c"/>
        </g>
        <g id="Group_6467" data-name="Group 6467" transform="translate(99.173 209.935)">
          <path id="Path_23645" data-name="Path 23645" d="M361.719,205.039a6.662,6.662,0,0,0-4.295-.615c.453-.846.1-1.806-1.066-2.48a6.671,6.671,0,0,0-6.034-.01c-3.036,1.751-1.081,7.214-1.081,7.214s9.46,1.128,12.5-.625C363.4,207.564,363.391,206.005,361.719,205.039Z" transform="translate(-348.623 -201.218)" fill="#72b63c"/>
        </g>
        <g id="Group_6476" data-name="Group 6476">
          <g id="Group_6468" data-name="Group 6468" transform="translate(291.86 9.37)">
            <path id="Path_23646" data-name="Path 23646" d="M472.908,82.942l16.851,9.729a2.772,2.772,0,0,0,2.512.005c.692-.4.689-1.048-.008-1.45L475.413,81.5a2.781,2.781,0,0,0-2.513,0A.765.765,0,0,0,472.908,82.942Zm15.13,10.723-16.851-9.729a2.782,2.782,0,0,0-2.512-.005.765.765,0,0,0,.008,1.45l16.849,9.729a2.775,2.775,0,0,0,2.513.005A.766.766,0,0,0,488.038,93.665Zm-4.226,2.44-16.851-9.729a2.777,2.777,0,0,0-2.512-.005.765.765,0,0,0,.008,1.45l16.851,9.729a2.777,2.777,0,0,0,2.512.005A.765.765,0,0,0,483.812,96.1Z" transform="translate(-463.933 -81.194)" fill="#72b63c"/>
          </g>
          <g id="Group_6469" data-name="Group 6469">
            <path id="Path_23647" data-name="Path 23647" d="M415.669,328.768l-120.42-69.525c-7.929-4.579-7.971-12-.09-16.553L578.7,78.984c7.881-4.55,20.744-4.527,28.673.052L727.8,148.56c7.931,4.579,7.971,12,.09,16.555l-283.545,163.7C436.462,333.37,423.6,333.346,415.669,328.768ZM606.234,79.7c-7.3-4.213-19.13-4.234-26.379-.048L296.31,243.353c-7.251,4.186-7.212,11.019.082,15.23l120.42,69.525c7.3,4.211,19.13,4.233,26.379.047l283.545-163.7c7.251-4.186,7.214-11.019-.082-15.232Z" transform="translate(-289.275 -75.587)" fill="#72b63c"/>
          </g>
          <g id="Group_6470" data-name="Group 6470" transform="translate(412.765 80.325)">
            <path id="Path_23648" data-name="Path 23648" d="M539.529,124.6c0,.518-.72.936-1.616.934s-1.624-.423-1.628-.939.722-.936,1.618-.934S539.528,124.079,539.529,124.6Z" transform="translate(-536.286 -123.656)" fill="#72b63c"/>
          </g>
          <g id="Group_6474" data-name="Group 6474" transform="translate(413.269 73.77)">
            <g id="Group_6471" data-name="Group 6471">
              <path id="Path_23649" data-name="Path 23649" d="M536.854,119.733c-.089,0-.176.007-.266.007l.005.936c.09,0,.177-.007.266-.007,6.709.012,12.182,3.173,12.2,7.045,0,.012,0,.022,0,.032l1.623,0,0-.032C550.66,123.329,544.455,119.746,536.854,119.733Z" transform="translate(-536.588 -119.733)" fill="#72b63c"/>
            </g>
            <g id="Group_6472" data-name="Group 6472" transform="translate(0.02 3.745)">
              <path id="Path_23650" data-name="Path 23650" d="M536.866,121.974c-.09,0-.175.013-.266.015l.005.937c.09,0,.175-.015.267-.015,3.13.005,5.685,1.481,5.693,3.287,0,.012-.005.022-.005.032l1.623,0c0-.012.005-.02.005-.032C544.176,123.879,540.891,121.982,536.866,121.974Z" transform="translate(-536.6 -121.974)" fill="#72b63c"/>
            </g>
            <g id="Group_6473" data-name="Group 6473" transform="translate(0.01 1.873)">
              <path id="Path_23651" data-name="Path 23651" d="M536.86,120.854c-.089,0-.176.005-.266.007l.005.936c.09,0,.177-.007.266-.007,4.92.008,8.933,2.328,8.95,5.167,0,.01,0,.02,0,.032l1.623,0,0-.03C547.417,123.6,542.673,120.864,536.86,120.854Z" transform="translate(-536.594 -120.854)" fill="#72b63c"/>
            </g>
          </g>
          <g id="Group_6475" data-name="Group 6475" transform="translate(333.619 34.136)">
            <path id="Path_23652" data-name="Path 23652" d="M537.532,125.894,488.923,97.83l3.144-1.815,48.609,28.064Z" transform="translate(-488.923 -96.015)" fill="#72b63c"/>
          </g>
        </g>
        <g id="Group_6477" data-name="Group 6477" transform="translate(102.13 151.806)">
          <path id="Path_23653" data-name="Path 23653" d="M402.87,209.6l-47.818-27.607c-6.184-3.571-6.216-9.364-.07-12.912s16.181-3.531,22.365.04l47.818,27.607c6.184,3.571,6.216,9.365.07,12.912S409.055,213.173,402.87,209.6Zm-27.238-39.49c-5.234-3.021-13.723-3.036-18.924-.033s-5.174,7.9.06,10.925l47.817,27.607c5.234,3.023,13.724,3.038,18.925.035s5.175-7.9-.059-10.925Z" transform="translate(-350.393 -166.432)" fill="#72b63c"/>
        </g>
        <g id="Group_6478" data-name="Group 6478" transform="translate(328.954 111.943)">
          <path id="Path_23654" data-name="Path 23654" d="M486.609,152.575a.82.82,0,0,1-.478-.663c0-.518.72-.936,1.616-.934l12.977.023-.042-7.491c0-.516.72-.934,1.618-.932s1.623.421,1.626.939l.052,9.364-16.221-.03A2.349,2.349,0,0,1,486.609,152.575Z" transform="translate(-486.131 -142.577)" fill="#7c1dc9"/>
        </g>
        <g id="Group_6479" data-name="Group 6479" transform="translate(232.451 56.227)">
          <path id="Path_23655" data-name="Path 23655" d="M428.911,119.263a.819.819,0,0,1-.478-.663l-.052-9.364,16.221.03c.9,0,1.622.421,1.626.939s-.72.934-1.616.932l-12.976-.023.04,7.491c0,.518-.72.936-1.618.934A2.368,2.368,0,0,1,428.911,119.263Z" transform="translate(-428.381 -109.235)" fill="#72b63c"/>
        </g>
      </g>
      <g id="Group_6481" data-name="Group 6481" transform="translate(68.507)" style="mix-blend-mode: screen;isolation: isolate">
        <path id="Path_23656" data-name="Path 23656" d="M371.426,102.917c.005,1-1.394,1.806-3.123,1.8s-3.137-.815-3.142-1.815,1.392-1.8,3.123-1.8S371.419,101.918,371.426,102.917Z" transform="translate(-306.86 -52.279)" fill="#afccde"/>
        <path id="Path_23657" data-name="Path 23657" d="M377.385,106.359c.005,1-1.392,1.8-3.123,1.8s-3.135-.814-3.142-1.813,1.394-1.806,3.123-1.8S377.38,105.359,377.385,106.359Z" transform="translate(-302.861 -49.97)" fill="#afccde"/>
        <path id="Path_23658" data-name="Path 23658" d="M383.6,118.266l-16.789-9.692,9.968-16.649-5.9-3.4a.524.524,0,0,1-.005-.993,1.9,1.9,0,0,1,1.718,0l6.978,4.029L369.6,108.209l15.706,9.069a.523.523,0,0,1,.005.991A1.894,1.894,0,0,1,383.6,118.266Z" transform="translate(-305.753 -61.525)" fill="#afccde"/>
        <path id="Path_23659" data-name="Path 23659" d="M385.621,112.02l-15.26-8.81a.524.524,0,0,1-.005-.993,1.9,1.9,0,0,1,1.718,0l14.563,8.409,11.214-4.178L375.927,93.794a.523.523,0,0,1-.005-.991,1.892,1.892,0,0,1,1.718,0l22.988,13.273a.572.572,0,0,1,.353.57.769.769,0,0,1-.545.513l-13.3,4.953A1.931,1.931,0,0,1,385.621,112.02Z" transform="translate(-303.611 -57.986)" fill="#afccde"/>
        <path id="Path_23660" data-name="Path 23660" d="M361.421,129.275c-18.936-10.934-19.031-28.665-.214-39.53s49.53-10.808,68.466.125,19.031,28.663.214,39.528S380.356,140.207,361.421,129.275Zm65.969-38.088c-17.67-10.2-46.328-10.253-63.887-.115s-17.469,26.683.2,36.885,46.328,10.253,63.887.115S445.06,101.389,427.391,91.187Z" transform="translate(-318.942 -65.344)" fill="#afccde"/>
        <path id="Path_23661" data-name="Path 23661" d="M357.277,138C333,123.981,332.877,101.247,357,87.317s63.5-13.856,87.778.16,24.4,36.749.276,50.678S381.552,152.013,357.277,138Zm84.078-48.544c-22.377-12.919-58.672-12.986-80.908-.147s-22.123,33.793.254,46.714,58.672,12.984,80.908.145S463.732,102.373,441.355,89.454Z" transform="translate(-324.423 -68.509)" fill="#afccde" opacity="0.4"/>
        <path id="Path_23662" data-name="Path 23662" d="M352.853,147.305c-29.975-17.307-30.127-45.38-.339-62.579s78.412-17.11,108.389.2,30.127,45.377.339,62.577S382.83,164.611,352.853,147.305ZM456.337,87.559c-27.443-15.845-71.958-15.925-99.228-.18s-27.133,41.447.311,57.29,71.955,15.925,99.226.179S483.779,103.4,456.337,87.559Z" transform="translate(-330.272 -71.885)" fill="#afccde" opacity="0.1"/>
      </g>
      <circle id="Ellipse_242" data-name="Ellipse 242" cx="16.71" cy="16.71" r="16.71" transform="translate(118.963 160.34)" fill="url(#radial-gradient-6)" style="mix-blend-mode: screen;isolation: isolate"/>
      <g id="Group_6482" data-name="Group 6482" transform="translate(134.538 187.294)">
        <path id="Path_23663" data-name="Path 23663" d="M373.717,277.237a.835.835,0,0,1-.836-.836v-1.948a.836.836,0,0,1,1.671,0V276.4A.836.836,0,0,1,373.717,277.237Zm0-5.29a.835.835,0,0,1-.836-.836v-3.342a.836.836,0,0,1,1.671,0v3.342A.836.836,0,0,1,373.717,271.947Zm0-6.684a.835.835,0,0,1-.836-.836v-3.342a.836.836,0,0,1,1.671,0v3.342A.836.836,0,0,1,373.717,265.262Zm0-6.684a.835.835,0,0,1-.836-.836V254.4a.836.836,0,1,1,1.671,0v3.342A.836.836,0,0,1,373.717,258.578Zm0-6.684a.835.835,0,0,1-.836-.836v-3.342a.836.836,0,1,1,1.671,0v3.342A.836.836,0,0,1,373.717,251.894Zm0-6.684a.835.835,0,0,1-.836-.836v-3.342a.836.836,0,1,1,1.671,0v3.342A.836.836,0,0,1,373.717,245.21Zm0-6.684a.835.835,0,0,1-.836-.836v-3.342a.836.836,0,1,1,1.671,0v3.342A.836.836,0,0,1,373.717,238.526Zm0-6.684a.835.835,0,0,1-.836-.836v-3.342a.836.836,0,1,1,1.671,0v3.342A.836.836,0,0,1,373.717,231.842Zm0-6.684a.835.835,0,0,1-.836-.836V220.98a.836.836,0,1,1,1.671,0v3.342A.836.836,0,0,1,373.717,225.158Zm0-6.684a.835.835,0,0,1-.836-.836v-3.344a.836.836,0,1,1,1.671,0v3.344A.836.836,0,0,1,373.717,218.473Zm0-6.686a.835.835,0,0,1-.836-.836V207.61a.836.836,0,1,1,1.671,0v3.342A.836.836,0,0,1,373.717,211.788Zm0-6.684a.835.835,0,0,1-.836-.836v-3.342a.836.836,0,1,1,1.671,0v3.342A.836.836,0,0,1,373.717,205.1Zm0-6.684a.835.835,0,0,1-.836-.836v-3.342a.836.836,0,1,1,1.671,0v3.342A.836.836,0,0,1,373.717,198.419Zm0-6.684a.835.835,0,0,1-.836-.836v-3.342a.836.836,0,1,1,1.671,0V190.9A.836.836,0,0,1,373.717,191.735Z" transform="translate(-372.881 -186.722)" fill="#acff68"/>
      </g>
      <circle id="Ellipse_243" data-name="Ellipse 243" cx="16.71" cy="16.71" r="16.71" transform="translate(118.963 259.323)" fill="url(#radial-gradient-7)" style="mix-blend-mode: screen;isolation: isolate"/>
      <path id="Path_23664" data-name="Path 23664" d="M605.583,79.32c-7.3-4.213-19.13-4.234-26.379-.048l-283.545,163.7c-7.251,4.186-7.212,11.019.082,15.23l120.42,69.525c7.3,4.211,19.13,4.233,26.379.047l283.545-163.7c7.251-4.186,7.214-11.019-.082-15.232Z" transform="translate(-288.623 -69.962)" fill="url(#linear-gradient-15)" style="mix-blend-mode: color-dodge;isolation: isolate"/>
    </g>
  </g>
</svg>
