<svg id="Component_20_1" data-name="Component 20 – 1" xmlns="http://www.w3.org/2000/svg" width="90.54" height="99.006" viewBox="0 0 90.54 99.006">
  <g id="Group_3288" data-name="Group 3288">
    <path id="Path_7037" data-name="Path 7037" d="M55.437,12.56A18.189,18.189,0,0,1,64.794,10a22.652,22.652,0,0,1,12.757,3.861L101.763,28s8.938,5.707,8.938,14.561V74.244a19.333,19.333,0,0,1-9.358,17.121c-10.239,6.294-27.192,15.4-27.192,15.4s-8.183,6.462-22.072-2.56L30.385,91.827s-10.2-5.035-10.2-17.121V43.024s-.713-9.442,11.036-16.281Z" transform="translate(-20.18 -10)" fill="#72b63c"/>
  </g>
  <g id="Group_6974" data-name="Group 6974" transform="translate(28.611 24.813)">
    <g id="graphic-design-book-svgrepo-com" transform="translate(0)">
      <g id="Group_6967" data-name="Group 6967" transform="translate(10.322 9.509)">
        <g id="Group_6966" data-name="Group 6966">
          <path id="Path_31823" data-name="Path 31823" d="M197.562,99.386a7.719,7.719,0,0,0-6.8,0,.825.825,0,0,0-.459.74v15.729a.825.825,0,0,0,.14.46l3.036,4.529a.825.825,0,0,0,1.371,0l3.036-4.529a.825.825,0,0,0,.14-.46V100.126A.825.825,0,0,0,197.562,99.386Zm-5.613,4.77a6.012,6.012,0,0,1,1.386-.361v10.649a8.485,8.485,0,0,0-1.386.253ZM194.16,118.9l-.371-.553a2.011,2.011,0,0,1,.742,0Zm1.335-1.991a3.726,3.726,0,0,0-2.67,0l-.421-.627a6.86,6.86,0,0,1,3.511,0Zm.876-2.213a8.483,8.483,0,0,0-1.386-.253V103.8a6.014,6.014,0,0,1,1.386.361Zm0-12.287a7.749,7.749,0,0,0-4.422,0v-1.748a6.072,6.072,0,0,1,4.422,0Z" transform="translate(-190.298 -98.596)" fill="#fff"/>
        </g>
      </g>
      <g id="Group_6969" data-name="Group 6969">
        <g id="Group_6968" data-name="Group 6968">
          <path id="Path_31824" data-name="Path 31824" d="M115.766,24.568h-1.977v-14.1a.825.825,0,0,0-.825-.825h-3.131V4.288a.825.825,0,0,0-.825-.825h-4.485V.825A.825.825,0,0,0,103.7,0H94.8a.825.825,0,0,0-.825.825V3.463H86.533a3.262,3.262,0,0,0-3.259,3.259V40.481h0a3.26,3.26,0,0,0,3.259,3.258h1.049v4.815a.825.825,0,0,0,.825.825h8.073a.825.825,0,0,0,.825-.825V46.8h1.8a.825.825,0,0,0,.825-.825V43.739h9.077a.825.825,0,0,0,.825-.825V38.048h0v-.4h5.933a.825.825,0,0,0,.825-.825V25.393A.826.826,0,0,0,115.766,24.568ZM95.627,1.651h7.245V3.463H95.627Zm.028,46.078H89.233V41.306h.974v4.665a.825.825,0,0,0,.825.825h4.624v.933Zm2.624-2.583H91.857V41.306H98.28Zm9.9-3.057H99.93v-.783h3.437a.825.825,0,1,0,0-1.651H88.407a.825.825,0,0,0-.825.825v1.608H86.533a1.608,1.608,0,0,1,0-3.215h21.649Zm0-4.866H86.533a3.237,3.237,0,0,0-1.608.426V6.722a1.607,1.607,0,0,1,.783-1.377V14.1a.825.825,0,0,0,1.651,0V5.114h20.824V37.222Zm1.651-25.934h2.305V33.413h-2.305Zm5.108,24.7h-5.108v-.929h3.131a.825.825,0,0,0,.825-.825v-8.02h1.151Z" transform="translate(-83.275)" fill="#fff"/>
        </g>
      </g>
      <g id="Group_6971" data-name="Group 6971" transform="translate(2.433 18.062)">
        <g id="Group_6970" data-name="Group 6970">
          <path id="Path_31825" data-name="Path 31825" d="M109.329,187.285a.825.825,0,0,0-.825.825v12.874a.825.825,0,1,0,1.651,0V188.11A.825.825,0,0,0,109.329,187.285Z" transform="translate(-108.504 -187.285)" fill="#fff"/>
        </g>
      </g>
    </g>
  </g>
</svg>
