<svg id="Component_14_1" data-name="Component 14 – 1" xmlns="http://www.w3.org/2000/svg" width="90.54" height="99.006" viewBox="0 0 90.54 99.006">
  <g id="hexagon">
    <g id="Group_3288" data-name="Group 3288">
      <path id="Path_7037" data-name="Path 7037" d="M55.437,12.56A18.189,18.189,0,0,1,64.794,10a22.652,22.652,0,0,1,12.757,3.861L101.763,28s8.938,5.707,8.938,14.561V74.244a19.333,19.333,0,0,1-9.358,17.121c-10.239,6.294-27.192,15.4-27.192,15.4s-8.183,6.462-22.072-2.56L30.385,91.827s-10.2-5.035-10.2-17.121V43.024s-.713-9.442,11.036-16.281Z" transform="translate(-20.18 -10)" fill="#72b63c"/>
    </g>
  </g>
  <g id="_34_ecommerce_2" data-name="34 ecommerce 2" transform="translate(27.094 21.294)">
    <path id="Path_23673" data-name="Path 23673" d="M44.31,3.5H19.69a6,6,0,0,0-6,6v45a6,6,0,0,0,6,6H44.31a6,6,0,0,0,6-6V9.5A6,6,0,0,0,44.31,3.5Zm-5.46,2-.83,3.09H25.98L25.15,5.5Zm9.46,49a4,4,0,0,1-4,4H19.69a4,4,0,0,1-4-4V52.35H48.31Zm0-4.15H15.69V9.5a4,4,0,0,1,4-4h3.39l.97,3.61a1.993,1.993,0,0,0,1.93,1.48H38.02a1.993,1.993,0,0,0,1.93-1.48l.97-3.61h3.39a4,4,0,0,1,4,4Z" transform="translate(-13.69 -3.5)" fill="#fff"/>
    <path id="Path_23674" data-name="Path 23674" d="M34.319,54.426H29.963a1,1,0,0,0,0,2h4.356a1,1,0,1,0,0-2Z" transform="translate(-13.69 -3.5)" fill="#fff"/>
    <path id="Path_23675" data-name="Path 23675" d="M38.83,25.88A2.01,2.01,0,0,0,36.67,24H35V22a3,3,0,0,0-6,0v2H27.33a2,2,0,0,0-2.16,1.78L24,38.12A2.013,2.013,0,0,0,26.17,40H37.83A2.025,2.025,0,0,0,40,38.03ZM31,22a1,1,0,0,1,2,0v2H31Zm6.83,16H26.17a.6.6,0,0,1-.15-.02l1.13-11.95a.662.662,0,0,1,.18-.03H29v3a1,1,0,0,0,2,0V26h2v3a1,1,0,0,0,2,0V26h1.67a.517.517,0,0,1,.17.03l1.15,11.95a.627.627,0,0,1-.16.02Z" transform="translate(-13.69 -3.5)" fill="#fff"/>
    <path id="Path_23676" data-name="Path 23676" d="M36.7,17.71A1,1,0,0,1,36,18a.976.976,0,0,1-.71-.3l-3.24-3.29-3.35,3.3a1,1,0,1,1-1.4-1.42l4.05-4a1,1,0,0,1,1.42.01l3.94,4a.987.987,0,0,1-.01,1.41Z" transform="translate(-13.69 -3.5)" fill="#fff"/>
    <path id="Path_23677" data-name="Path 23677" d="M36.71,44.7l-3.94,4a1,1,0,0,1-1.42.01l-4.05-4a1,1,0,1,1,1.4-1.42l3.35,3.3,3.24-3.29a1,1,0,1,1,1.42,1.4Z" transform="translate(-13.69 -3.5)" fill="#fff"/>
  </g>
</svg>
