<svg id="Component_13_1" data-name="Component 13 – 1" xmlns="http://www.w3.org/2000/svg" xmlns:xlink="http://www.w3.org/1999/xlink" width="790" height="754.253" viewBox="0 0 790 754.253">
  <defs>
    <radialGradient id="radial-gradient" cx="0.5" cy="0.5" r="0.5" gradientTransform="translate(0)" gradientUnits="objectBoundingBox">
      <stop offset="0" stop-color="#fff"/>
      <stop offset="0.772" stop-color="#176c25" stop-opacity="0"/>
    </radialGradient>
    <radialGradient id="radial-gradient-2" cy="0.5" r="0.5" gradientTransform="translate(0.5 -0.207) rotate(45)" xlink:href="#radial-gradient"/>
    <radialGradient id="radial-gradient-3" cx="0.5" cy="0.5" r="0.5" gradientTransform="matrix(0.707, 0.707, -0.707, 0.707, 0.5, -0.207)" gradientUnits="objectBoundingBox">
      <stop offset="0" stop-color="#fff"/>
      <stop offset="0.084" stop-color="#f8faf8" stop-opacity="0.973"/>
      <stop offset="0.21" stop-color="#e5eee7" stop-opacity="0.89"/>
      <stop offset="0.362" stop-color="#c6dbca" stop-opacity="0.757"/>
      <stop offset="0.535" stop-color="#9cc0a2" stop-opacity="0.576"/>
      <stop offset="0.726" stop-color="#659d6f" stop-opacity="0.341"/>
      <stop offset="0.928" stop-color="#247431" stop-opacity="0.059"/>
      <stop offset="0.967" stop-color="#176c25" stop-opacity="0"/>
    </radialGradient>
    <radialGradient id="radial-gradient-4" cx="0.5" cy="0.5" r="0.5" gradientTransform="translate(0.912 -0.075) rotate(80.596)" gradientUnits="objectBoundingBox">
      <stop offset="0" stop-color="#fff"/>
      <stop offset="0.09" stop-color="#f8f9f8" stop-opacity="0.973"/>
      <stop offset="0.217" stop-color="#e6ebe8" stop-opacity="0.902"/>
      <stop offset="0.366" stop-color="#c8d4cc" stop-opacity="0.784"/>
      <stop offset="0.531" stop-color="#9fb4a5" stop-opacity="0.616"/>
      <stop offset="0.711" stop-color="#698b74" stop-opacity="0.404"/>
      <stop offset="0.899" stop-color="#2a5938" stop-opacity="0.149"/>
      <stop offset="1" stop-color="#053d16" stop-opacity="0"/>
    </radialGradient>
    <radialGradient id="radial-gradient-5" cx="0.5" cy="0.5" r="0.5" gradientTransform="matrix(0.976, 0.219, -0.219, 0.976, 0.122, -0.097)" gradientUnits="objectBoundingBox">
      <stop offset="0" stop-color="#fff"/>
      <stop offset="1" stop-color="#053d16" stop-opacity="0"/>
    </radialGradient>
    <radialGradient id="radial-gradient-6" cx="0.5" cy="0.5" r="0.5" gradientTransform="matrix(0.055, 0.999, -0.999, 0.055, 1.288, -0.747)" gradientUnits="objectBoundingBox">
      <stop offset="0" stop-color="#20fd49"/>
      <stop offset="1" stop-color="#042141" stop-opacity="0"/>
    </radialGradient>
    <radialGradient id="radial-gradient-7" cx="0.5" cy="0.5" r="0.5" gradientTransform="translate(1.673 -0.531) rotate(86.867)" gradientUnits="objectBoundingBox">
      <stop offset="0" stop-color="#20fd49"/>
      <stop offset="0.166" stop-color="#1bdd47" stop-opacity="0.855"/>
      <stop offset="0.539" stop-color="#118c44" stop-opacity="0.486"/>
      <stop offset="1" stop-color="#042141" stop-opacity="0"/>
    </radialGradient>
    <linearGradient id="linear-gradient" x1="0.647" y1="0.978" x2="-0.044" y2="-0.073" gradientUnits="objectBoundingBox">
      <stop offset="0" stop-color="#042141"/>
      <stop offset="0.328" stop-color="#209"/>
      <stop offset="0.617" stop-color="#209"/>
      <stop offset="0.686" stop-color="#200293"/>
      <stop offset="0.773" stop-color="#1a0783"/>
      <stop offset="0.871" stop-color="#111169"/>
      <stop offset="0.975" stop-color="#051f46"/>
      <stop offset="0.988" stop-color="#042141"/>
    </linearGradient>
    <radialGradient id="radial-gradient-8" cx="0.856" cy="0.559" r="0.304" gradientTransform="translate(-0.27) scale(1.54 1)" gradientUnits="objectBoundingBox">
      <stop offset="0" stop-color="#20fd49"/>
      <stop offset="1" stop-color="#209" stop-opacity="0"/>
    </radialGradient>
    <radialGradient id="radial-gradient-9" cx="0.084" cy="0.51" r="0.239" gradientTransform="translate(-0.27) scale(1.54 1)" gradientUnits="objectBoundingBox">
      <stop offset="0" stop-color="#03182b"/>
      <stop offset="1" stop-color="#209" stop-opacity="0"/>
    </radialGradient>
    <radialGradient id="radial-gradient-10" cx="0.842" cy="0.194" r="0.493" gradientTransform="translate(-0.455 -0.124) scale(1.54 1.637)" xlink:href="#radial-gradient-8"/>
    <linearGradient id="linear-gradient-2" x1="0.13" y1="1.221" x2="0.761" y2="0.319" gradientUnits="objectBoundingBox">
      <stop offset="0" stop-color="#042141"/>
      <stop offset="1" stop-color="#03182b"/>
    </linearGradient>
    <linearGradient id="linear-gradient-3" x1="0.671" y1="0.923" x2="0.366" y2="0.089" xlink:href="#linear-gradient-2"/>
    <linearGradient id="linear-gradient-4" x1="1.435" y1="0.711" x2="-0.058" y2="0.317" gradientUnits="objectBoundingBox">
      <stop offset="0" stop-color="#209"/>
      <stop offset="1" stop-color="#00e98d"/>
    </linearGradient>
    <linearGradient id="linear-gradient-5" y1="0.5" x2="1" y2="0.5" gradientUnits="objectBoundingBox">
      <stop offset="0" stop-color="#003431"/>
      <stop offset="1" stop-color="#209"/>
    </linearGradient>
    <linearGradient id="linear-gradient-6" x1="0.674" y1="-0.117" x2="0.17" y2="0.97" xlink:href="#linear-gradient-5"/>
    <linearGradient id="linear-gradient-7" x1="0.97" y1="0.943" x2="-0.118" gradientUnits="objectBoundingBox">
      <stop offset="0" stop-color="#209"/>
      <stop offset="1" stop-color="#003431"/>
    </linearGradient>
    <linearGradient id="linear-gradient-8" x1="1.168" y1="0.622" x2="0.085" y2="0.372" xlink:href="#linear-gradient-4"/>
    <linearGradient id="linear-gradient-9" x1="0.928" y1="0.932" x2="0.102" y2="0.239" xlink:href="#linear-gradient-7"/>
    <linearGradient id="linear-gradient-10" x1="0.249" y1="0.424" x2="1.188" y2="0.641" gradientUnits="objectBoundingBox">
      <stop offset="0" stop-color="#00e98d"/>
      <stop offset="1" stop-color="#209"/>
    </linearGradient>
    <linearGradient id="linear-gradient-11" x1="0.956" y1="0.943" x2="-0.177" y2="-0.041" xlink:href="#linear-gradient-7"/>
    <linearGradient id="linear-gradient-12" x1="0.615" y1="0.954" x2="0.386" y2="-0.041" gradientUnits="objectBoundingBox">
      <stop offset="0" stop-color="#235e71"/>
      <stop offset="1" stop-color="#268d36"/>
    </linearGradient>
    <linearGradient id="linear-gradient-13" x1="0.55" y1="1.361" x2="0.361" y2="0.395" xlink:href="#linear-gradient-12"/>
    <linearGradient id="linear-gradient-14" x1="0.601" y1="0.944" x2="0.425" y2="-0.017" xlink:href="#linear-gradient-12"/>
    <linearGradient id="linear-gradient-15" x1="0" y1="0.5" x2="1" y2="0.5" xlink:href="#linear-gradient-2"/>
    <linearGradient id="linear-gradient-18" x1="1.276" y1="1.589" x2="0.308" y2="0.231" gradientUnits="objectBoundingBox">
      <stop offset="0" stop-color="#24fffa"/>
      <stop offset="1" stop-color="#053d16" stop-opacity="0"/>
    </linearGradient>
    <linearGradient id="linear-gradient-19" x1="1.305" y1="0.239" x2="-0.303" y2="1.484" gradientUnits="objectBoundingBox">
      <stop offset="0" stop-color="#fff"/>
      <stop offset="0.205" stop-color="#c8c8c8" stop-opacity="0.784"/>
      <stop offset="0.758" stop-color="#393939" stop-opacity="0.224"/>
      <stop offset="1" stop-opacity="0"/>
    </linearGradient>
    <radialGradient id="radial-gradient-11" cx="0.5" cy="0.5" r="7.169" gradientTransform="translate(-0.268 8.418) scale(0.07 0.07)" gradientUnits="objectBoundingBox">
      <stop offset="0" stop-color="#fff"/>
      <stop offset="0.14" stop-color="#d0d0d0" stop-opacity="0.82"/>
      <stop offset="0.378" stop-color="#878787" stop-opacity="0.529"/>
      <stop offset="0.592" stop-color="#4d4d4d" stop-opacity="0.302"/>
      <stop offset="0.773" stop-color="#232323" stop-opacity="0.137"/>
      <stop offset="0.915" stop-color="#090909" stop-opacity="0.039"/>
      <stop offset="1" stop-opacity="0"/>
    </radialGradient>
    <radialGradient id="radial-gradient-12" cx="0.5" cy="0.5" r="7.169" gradientTransform="translate(-0.268 56.758) scale(0.07 0.07)" xlink:href="#radial-gradient-11"/>
    <radialGradient id="radial-gradient-13" cx="0.5" cy="0.5" r="4.614" gradientTransform="translate(-0.357 37.993) scale(0.108 0.108)" xlink:href="#radial-gradient-11"/>
    <radialGradient id="radial-gradient-14" cx="0.5" cy="0.5" r="4.614" gradientTransform="translate(-0.357 43.662) scale(0.108 0.108)" xlink:href="#radial-gradient-11"/>
    <radialGradient id="radial-gradient-15" cx="0.5" cy="0.5" r="0.031" gradientTransform="matrix(0.707, 0.707, -16.378, 16.378, -40.047, 25.906)" xlink:href="#linear-gradient-19"/>
    <radialGradient id="radial-gradient-16" cx="0.5" cy="0.5" r="0.031" gradientTransform="matrix(-0.707, 0.707, -16.378, -16.378, -91.567, -48.068)" xlink:href="#linear-gradient-19"/>
    <linearGradient id="linear-gradient-20" x1="-0.102" y1="-0.522" x2="0.757" y2="0.937" xlink:href="#linear-gradient-18"/>
    <radialGradient id="radial-gradient-17" cx="0.5" cy="0.5" r="4.614" gradientTransform="translate(-0.586 12.735) scale(0.108 0.108)" xlink:href="#radial-gradient-11"/>
    <radialGradient id="radial-gradient-18" cx="0.5" cy="0.5" r="4.614" gradientTransform="translate(-0.586 33.416) scale(0.108 0.108)" xlink:href="#radial-gradient-11"/>
    <radialGradient id="radial-gradient-19" cx="0.5" cy="0.5" r="4.614" gradientTransform="translate(-0.128 12.735) scale(0.108 0.108)" xlink:href="#radial-gradient-11"/>
    <radialGradient id="radial-gradient-20" cx="0.5" cy="0.5" r="4.614" gradientTransform="translate(-0.128 33.416) scale(0.108 0.108)" xlink:href="#radial-gradient-11"/>
    <radialGradient id="radial-gradient-21" cx="0.5" cy="0.5" r="0.5" gradientTransform="translate(0.232 -0.154) rotate(22.718)" xlink:href="#linear-gradient-19"/>
    <radialGradient id="radial-gradient-22" cx="0.5" cy="0.5" r="0.022" gradientTransform="translate(-17989.617 -0.308) scale(23.159 23.159)" xlink:href="#linear-gradient-19"/>
    <radialGradient id="radial-gradient-23" cx="0.5" cy="0.5" r="0.5" gradientTransform="translate(-53.57 -61.77) rotate(90)" xlink:href="#linear-gradient-19"/>
    <radialGradient id="radial-gradient-24" cx="0.5" cy="0.5" r="0.5" gradientTransform="translate(0)" xlink:href="#linear-gradient-19"/>
    <radialGradient id="radial-gradient-25" cx="0.5" cy="0.5" r="0.022" gradientTransform="translate(-8841.04 1.589) scale(23.159 23.159)" xlink:href="#linear-gradient-19"/>
    <radialGradient id="radial-gradient-26" cx="0.5" cy="0.5" r="0.5" gradientTransform="translate(-33.509 -48.676) rotate(90)" xlink:href="#linear-gradient-19"/>
    <radialGradient id="radial-gradient-27" cx="0.5" cy="0.5" r="0.5" gradientTransform="matrix(0.745, 0.667, -0.667, 0.745, -2.212, -1.118)" gradientUnits="objectBoundingBox">
      <stop offset="0" stop-color="#24fffa"/>
      <stop offset="0.14" stop-color="#1dd0cc" stop-opacity="0.82"/>
      <stop offset="0.378" stop-color="#138784" stop-opacity="0.529"/>
      <stop offset="0.592" stop-color="#0a4d4b" stop-opacity="0.302"/>
      <stop offset="0.773" stop-color="#042322" stop-opacity="0.137"/>
      <stop offset="0.915" stop-color="#010909" stop-opacity="0.039"/>
      <stop offset="1" stop-opacity="0"/>
    </radialGradient>
    <radialGradient id="radial-gradient-28" cx="0.5" cy="0.5" r="0.5" gradientTransform="matrix(0.745, 0.667, -0.667, 0.745, 2.348, -0.224)" xlink:href="#radial-gradient-27"/>
    <radialGradient id="radial-gradient-29" cx="0.5" cy="0.5" r="0.5" gradientTransform="translate(1.833 -9.539) rotate(97.325)" xlink:href="#radial-gradient-27"/>
    <radialGradient id="radial-gradient-30" cx="0.5" cy="0.5" r="0.5" gradientTransform="matrix(0.745, 0.667, -0.667, 0.745, 0.616, 1.731)" xlink:href="#radial-gradient-27"/>
    <radialGradient id="radial-gradient-31" cx="0.5" cy="0.5" r="0.5" gradientTransform="matrix(0.692, 0.722, -0.722, 0.692, -1.798, 2.662)" gradientUnits="objectBoundingBox">
      <stop offset="0" stop-color="#fff"/>
      <stop offset="0.093" stop-color="#f0f0f0" stop-opacity="0.945"/>
      <stop offset="0.271" stop-color="#cacaca" stop-opacity="0.792"/>
      <stop offset="0.514" stop-color="#8c8c8c" stop-opacity="0.553"/>
      <stop offset="0.812" stop-color="#383838" stop-opacity="0.224"/>
      <stop offset="1" stop-opacity="0"/>
    </radialGradient>
    <radialGradient id="radial-gradient-32" cx="0.5" cy="0.5" r="0.5" gradientTransform="matrix(0.745, 0.667, -0.667, 0.745, -6.98, -6.747)" xlink:href="#radial-gradient-31"/>
    <radialGradient id="radial-gradient-33" cx="0.5" cy="0.5" r="0.5" gradientTransform="matrix(0.745, 0.667, -0.667, 0.745, 6.35, -3.11)" xlink:href="#radial-gradient-31"/>
    <radialGradient id="radial-gradient-34" cx="0.5" cy="0.5" r="0.5" gradientTransform="matrix(0.745, 0.667, -0.667, 0.745, -0.696, -9.171)" xlink:href="#radial-gradient-31"/>
  </defs>
  <circle id="Ellipse_273" data-name="Ellipse 273" cx="225.794" cy="225.794" r="225.794" transform="translate(50.302 88.175)" fill="url(#radial-gradient)" style="mix-blend-mode: overlay;isolation: isolate"/>
  <circle id="Ellipse_274" data-name="Ellipse 274" cx="209.77" cy="209.77" r="209.77" transform="translate(196.68 457.593) rotate(-45)" fill="url(#radial-gradient-2)" style="mix-blend-mode: overlay;isolation: isolate"/>
  <circle id="Ellipse_275" data-name="Ellipse 275" cx="209.77" cy="209.77" r="209.77" transform="translate(97.973 313.969) rotate(-45)" fill="url(#radial-gradient-3)" style="mix-blend-mode: overlay;isolation: isolate"/>
  <circle id="Ellipse_276" data-name="Ellipse 276" cx="102.8" cy="102.8" r="102.8" transform="translate(426.447 274.327) rotate(-80.596)" fill="url(#radial-gradient-4)" style="mix-blend-mode: overlay;isolation: isolate"/>
  <circle id="Ellipse_277" data-name="Ellipse 277" cx="102.799" cy="102.799" r="102.799" transform="translate(195.009 113.178) rotate(-12.662)" fill="url(#radial-gradient-5)" style="mix-blend-mode: overlay;isolation: isolate"/>
  <circle id="Ellipse_278" data-name="Ellipse 278" cx="167.488" cy="167.488" r="167.488" transform="translate(149.307 438.572) rotate(-45)" fill="url(#radial-gradient-6)" style="mix-blend-mode: color-dodge;isolation: isolate"/>
  <circle id="Ellipse_279" data-name="Ellipse 279" cx="167.488" cy="167.488" r="167.488" transform="translate(0 420.685) rotate(-45)" fill="url(#radial-gradient-7)" style="mix-blend-mode: color-dodge;isolation: isolate"/>
  <g id="Group_6772" data-name="Group 6772" transform="translate(335.059 141.418)">
    <path id="Path_24299" data-name="Path 24299" d="M705.477,423.345c-29.16-9.121-48.88.642-59.172,8.664-.875.679-1.687,1.356-2.428,2q-3.549,3.106-7.321,5.928-3.328,2.514-6.79,4.845a54.51,54.51,0,0,0-18.327,21.051c0-.875.036-25.192,15.825-52.393,1.418-2.441,2.959-4.906,4.646-7.383q1.7-13.756,3.056-26.72L635,379c1.5-14.42,2.7-28.127,3.623-41.043.086-1.06.161-2.119.234-3.18,1.294-18.266,2.071-34.954,2.478-49.941.011-.518.024-1.035.037-1.553v-.05c.776-29.506.148-52.369-.654-67.812a25.761,25.761,0,0,0-24.427-24.4c-.432-.024-.875-.037-1.307-.037a25.752,25.752,0,0,0-25.364,21.4l-10.662,62.056-.393,2.28L571.086,320.2l-5.447,31.688-.05.283c-.086.075-.185.136-.271.2-14.506,11.079-27.964,4.819-27.964,4.819L519,342.086l-8.935-7.357a34.685,34.685,0,0,0-3.414-2.478s7.125,22.568,2.589,58.2a82.713,82.713,0,0,0-.653,12.83c.3,9.319,1.343,25.9,5.052,41.843,2.231-.726,7.087-2.194,10.02-2.194l19.732,47.378a26.222,26.222,0,0,1,2.033,10.131c0,6.015-2.879,11.047-6.639,15.719-2.428,3.032-5.2,6.128-8.943,7.891a22.513,22.513,0,0,1-3.666,1.544l.38,1.431c3.782,3.968,36.641,35.274,99.917-3.008a128,128,0,0,0,10.785-8.973,105.759,105.759,0,0,1,18.389-13.8c5.509-3.29,12.744-7.74,21.371-13.3,3.451-.6,10.81-2.8,16.861-4.708a112.93,112.93,0,0,1,15.407-3.5c20.742-3.4,25.475-23.873,25.475-23.873C738.694,433.18,705.477,423.345,705.477,423.345Zm-180.043,4.216h-.013v-.271c.075-8.43-.776-20.755-3.956-38.024v-.011l-.037-.185a7.565,7.565,0,0,0,.383-.838c.011-.037.037-.075.049-.11.075-.174.148-.346.223-.531.011-.011.011-.011.011-.024,1.406-3.709,4.24-14.285-.516-31.367-.062-.185-.1-.32-.123-.406a.149.149,0,0,0-.013-.075c.357.505,6.064,8.8,6.064,26.881,0,0,.529,11.906,7.863,7.937a10.152,10.152,0,0,0,2.316-1.786c2.256-2.231,7.74-8.148,7.74-12.832C545.425,375.918,551.859,409.3,525.435,427.561Z" transform="translate(-506.651 -190.982)" fill="url(#linear-gradient)"/>
    <path id="Path_24300" data-name="Path 24300" d="M705.477,423.345c-29.16-9.121-48.88.642-59.172,8.664-.875.679-1.687,1.356-2.428,2q-3.549,3.106-7.321,5.928-3.328,2.514-6.79,4.845a54.51,54.51,0,0,0-18.327,21.051c0-.875.036-25.192,15.825-52.393,1.418-2.441,2.959-4.906,4.646-7.383q1.7-13.756,3.056-26.72L635,379c1.5-14.42,2.7-28.127,3.623-41.043.086-1.06.161-2.119.234-3.18,1.294-18.266,2.071-34.954,2.478-49.941.011-.518.024-1.035.037-1.553v-.05c.776-29.506.148-52.369-.654-67.812a25.761,25.761,0,0,0-24.427-24.4c-.432-.024-.875-.037-1.307-.037a25.752,25.752,0,0,0-25.364,21.4l-10.662,62.056-.393,2.28L571.086,320.2l-5.447,31.688-.05.283c-.086.075-.185.136-.271.2-14.506,11.079-27.964,4.819-27.964,4.819L519,342.086l-8.935-7.357a34.685,34.685,0,0,0-3.414-2.478s7.125,22.568,2.589,58.2a82.713,82.713,0,0,0-.653,12.83c.3,9.319,1.343,25.9,5.052,41.843,2.231-.726,7.087-2.194,10.02-2.194l19.732,47.378a26.222,26.222,0,0,1,2.033,10.131c0,6.015-2.879,11.047-6.639,15.719-2.428,3.032-5.2,6.128-8.943,7.891a22.513,22.513,0,0,1-3.666,1.544l.38,1.431c3.782,3.968,36.641,35.274,99.917-3.008a128,128,0,0,0,10.785-8.973,105.759,105.759,0,0,1,18.389-13.8c5.509-3.29,12.744-7.74,21.371-13.3,3.451-.6,10.81-2.8,16.861-4.708a112.93,112.93,0,0,1,15.407-3.5c20.742-3.4,25.475-23.873,25.475-23.873C738.694,433.18,705.477,423.345,705.477,423.345Zm-180.043,4.216h-.013v-.271c.075-8.43-.776-20.755-3.956-38.024v-.011l-.037-.185a7.565,7.565,0,0,0,.383-.838c.011-.037.037-.075.049-.11.075-.174.148-.346.223-.531.011-.011.011-.011.011-.024,1.406-3.709,4.24-14.285-.516-31.367-.062-.185-.1-.32-.123-.406a.149.149,0,0,0-.013-.075c.357.505,6.064,8.8,6.064,26.881,0,0,.529,11.906,7.863,7.937a10.152,10.152,0,0,0,2.316-1.786c2.256-2.231,7.74-8.148,7.74-12.832C545.425,375.918,551.859,409.3,525.435,427.561Z" transform="translate(-506.651 -190.982)" fill="url(#radial-gradient-8)"/>
    <path id="Path_24301" data-name="Path 24301" d="M705.477,423.345c-29.16-9.121-48.88.642-59.172,8.664-.875.679-1.687,1.356-2.428,2q-3.549,3.106-7.321,5.928-3.328,2.514-6.79,4.845a54.51,54.51,0,0,0-18.327,21.051c0-.875.036-25.192,15.825-52.393,1.418-2.441,2.959-4.906,4.646-7.383q1.7-13.756,3.056-26.72L635,379c1.5-14.42,2.7-28.127,3.623-41.043.086-1.06.161-2.119.234-3.18,1.294-18.266,2.071-34.954,2.478-49.941.011-.518.024-1.035.037-1.553v-.05c.776-29.506.148-52.369-.654-67.812a25.761,25.761,0,0,0-24.427-24.4c-.432-.024-.875-.037-1.307-.037a25.752,25.752,0,0,0-25.364,21.4l-10.662,62.056-.393,2.28L571.086,320.2l-5.447,31.688-.05.283c-.086.075-.185.136-.271.2-14.506,11.079-27.964,4.819-27.964,4.819L519,342.086l-8.935-7.357a34.685,34.685,0,0,0-3.414-2.478s7.125,22.568,2.589,58.2a82.713,82.713,0,0,0-.653,12.83c.3,9.319,1.343,25.9,5.052,41.843,2.231-.726,7.087-2.194,10.02-2.194l19.732,47.378a26.222,26.222,0,0,1,2.033,10.131c0,6.015-2.879,11.047-6.639,15.719-2.428,3.032-5.2,6.128-8.943,7.891a22.513,22.513,0,0,1-3.666,1.544l.38,1.431c3.782,3.968,36.641,35.274,99.917-3.008a128,128,0,0,0,10.785-8.973,105.759,105.759,0,0,1,18.389-13.8c5.509-3.29,12.744-7.74,21.371-13.3,3.451-.6,10.81-2.8,16.861-4.708a112.93,112.93,0,0,1,15.407-3.5c20.742-3.4,25.475-23.873,25.475-23.873C738.694,433.18,705.477,423.345,705.477,423.345Zm-180.043,4.216h-.013v-.271c.075-8.43-.776-20.755-3.956-38.024v-.011l-.037-.185a7.565,7.565,0,0,0,.383-.838c.011-.037.037-.075.049-.11.075-.174.148-.346.223-.531.011-.011.011-.011.011-.024,1.406-3.709,4.24-14.285-.516-31.367-.062-.185-.1-.32-.123-.406a.149.149,0,0,0-.013-.075c.357.505,6.064,8.8,6.064,26.881,0,0,.529,11.906,7.863,7.937a10.152,10.152,0,0,0,2.316-1.786c2.256-2.231,7.74-8.148,7.74-12.832C545.425,375.918,551.859,409.3,525.435,427.561Z" transform="translate(-506.651 -190.982)" fill="url(#radial-gradient-9)"/>
    <path id="Path_24302" data-name="Path 24302" d="M705.477,423.345c-29.16-9.121-48.88.642-59.172,8.664-.875.679-1.687,1.356-2.428,2q-3.549,3.106-7.321,5.928-3.328,2.514-6.79,4.845a54.51,54.51,0,0,0-18.327,21.051c0-.875.036-25.192,15.825-52.393,1.418-2.441,2.959-4.906,4.646-7.383q1.7-13.756,3.056-26.72L635,379c1.5-14.42,2.7-28.127,3.623-41.043.086-1.06.161-2.119.234-3.18,1.294-18.266,2.071-34.954,2.478-49.941.011-.518.024-1.035.037-1.553v-.05c.776-29.506.148-52.369-.654-67.812a25.761,25.761,0,0,0-24.427-24.4c-.432-.024-.875-.037-1.307-.037a25.752,25.752,0,0,0-25.364,21.4l-10.662,62.056-.393,2.28L571.086,320.2l-5.447,31.688-.05.283c-.086.075-.185.136-.271.2-14.506,11.079-27.964,4.819-27.964,4.819L519,342.086l-8.935-7.357a34.685,34.685,0,0,0-3.414-2.478s7.125,22.568,2.589,58.2a82.713,82.713,0,0,0-.653,12.83c.3,9.319,1.343,25.9,5.052,41.843,2.231-.726,7.087-2.194,10.02-2.194l19.732,47.378a26.222,26.222,0,0,1,2.033,10.131c0,6.015-2.879,11.047-6.639,15.719-2.428,3.032-5.2,6.128-8.943,7.891a22.513,22.513,0,0,1-3.666,1.544l.38,1.431c3.782,3.968,36.641,35.274,99.917-3.008a128,128,0,0,0,10.785-8.973,105.759,105.759,0,0,1,18.389-13.8c5.509-3.29,12.744-7.74,21.371-13.3,3.451-.6,10.81-2.8,16.861-4.708a112.93,112.93,0,0,1,15.407-3.5c20.742-3.4,25.475-23.873,25.475-23.873C738.694,433.18,705.477,423.345,705.477,423.345Zm-180.043,4.216h-.013v-.271c.075-8.43-.776-20.755-3.956-38.024v-.011l-.037-.185a7.565,7.565,0,0,0,.383-.838c.011-.037.037-.075.049-.11.075-.174.148-.346.223-.531.011-.011.011-.011.011-.024,1.406-3.709,4.24-14.285-.516-31.367-.062-.185-.1-.32-.123-.406a.149.149,0,0,0-.013-.075c.357.505,6.064,8.8,6.064,26.881,0,0,.529,11.906,7.863,7.937a10.152,10.152,0,0,0,2.316-1.786c2.256-2.231,7.74-8.148,7.74-12.832C545.425,375.918,551.859,409.3,525.435,427.561Z" transform="translate(-506.651 -190.982)" fill="url(#radial-gradient-10)"/>
  </g>
  <path id="Path_24303" data-name="Path 24303" d="M589.89,337.027s-3.255,21.668,6.4,20.262q-3.328,2.516-6.79,4.844A54.434,54.434,0,0,0,571.168,383.2c0-.666-.037-25.082,15.825-52.406,1.418-2.441,2.959-4.906,4.646-7.383Q590.808,330.119,589.89,337.027Z" transform="translate(-131.332 33.075)" fill="url(#linear-gradient-2)"/>
  <path id="Path_24304" data-name="Path 24304" d="M539.742,312.615s6.433,33.376-19.992,51.641h-.013c.088-8.468-.75-20.94-3.992-38.491,0,0,6.272-11.363.011-33.351.357.505,6.064,8.8,6.064,26.881,0,0,.529,11.906,7.864,7.937A10.194,10.194,0,0,0,532,325.445C534.256,323.214,539.742,317.3,539.742,312.615Z" transform="translate(-165.918 13.734)" fill="url(#linear-gradient-3)"/>
  <path id="Path_24305" data-name="Path 24305" d="M535.347,393.063c2.232,9.639,5.436,19.031,10.02,26.451,0,0,11.152,18,11.368,25.345-1.367-1.886-4.585-3.12-4.585-3.12-15.862-3.857-26.7,3.076-31.951,5.8-1.372.713-1.614,2.613-.948,4.007,2.514,5.286,8.775,18.339,16.257,22.678a26.363,26.363,0,0,1-15.789-9.934l-19.794-26.178L490.694,425.9a60.759,60.759,0,0,1-12.067-31.281l-6.618-74.123a39.909,39.909,0,0,1,5.5-24.046l7.5-12.585a17.081,17.081,0,0,1,11.648-8.06l4.671-.838a36.131,36.131,0,0,1,9.713-.419l1.367.135a35.514,35.514,0,0,1,15.948,5.51s7.125,22.566,2.589,58.2a82.691,82.691,0,0,0-.653,12.83C530.59,360.538,531.637,377.115,535.347,393.063Z" transform="translate(-193.311 2.49)" fill="url(#linear-gradient-4)"/>
  <path id="Path_24306" data-name="Path 24306" d="M524.72,411.316c3.946.78,8.288.174,12.387-.685l.37,1.424c-.247-.258-.37-.406-.37-.406a29.944,29.944,0,0,1-17.723,11.289,28.476,28.476,0,0,1-11.586.136,24.112,24.112,0,0,0,.309-2.589s-.494-13.767-7.074-21.7a13.282,13.282,0,0,1-1.96-3.169c-1.751-3.98-5.928-13.286-9.934-20.409l19.794,26.178A28.468,28.468,0,0,0,524.72,411.316Z" transform="translate(-182.522 65.398)" fill="url(#linear-gradient-5)"/>
  <path id="Path_24307" data-name="Path 24307" d="M567.268,414.565l.024.136-58.347,76.181C478.675,532.4,445.99,516.2,445.99,516.2c-37.949-23.739-35.113-64.78-31.8-82.454a50.541,50.541,0,0,1,4.845-13.89l16.244-31.232a62.216,62.216,0,0,0,15.469,27.792c5.829,6.077,12.411,13.41,15.653,18.722a37.982,37.982,0,0,0,8.874,10.243,41.039,41.039,0,0,0,9.884,5.718,1.018,1.018,0,0,0,.136.05c.666.283,1.367.542,2.082.788a16.757,16.757,0,0,0,21.249-10.168c1.639-4.794,1.947-11.462-.629-20.7,1.023.849,2.071,1.687,3.131,2.49l11.071,8.364a8.651,8.651,0,0,0,4.7,1.731l1.614.1s23.86,1.419,27.164-19.04A28.475,28.475,0,0,0,567.268,414.565Z" transform="translate(-230.407 73.771)" fill="url(#linear-gradient-6)"/>
  <path id="Path_24308" data-name="Path 24308" d="M527.812,465.68a24.1,24.1,0,0,1-.309,2.589c-2.672,23.083-28.958,19.37-28.958,19.37l2.129-.245c7.555-.7,14.881-6.979,18.787-10.529a4.238,4.238,0,0,0,.9-5.065l-6.892-11.053c-1.59-2.551-2.27-3.667-3.984-4.516-28.866-21.113-33.278-61.455-33.955-73.546-.2-3.586-.481-7.173-.9-10.748-7.05-61.342-17.07-69.155-17.07-69.155h23.368l6.618,74.123a60.757,60.757,0,0,0,12.067,31.281l9.231,12.214c4.006,7.123,8.184,16.429,9.934,20.409a13.28,13.28,0,0,0,1.96,3.168C527.318,451.913,527.812,465.68,527.812,465.68Z" transform="translate(-202.229 20.203)" fill="url(#linear-gradient-7)"/>
  <path id="Path_24309" data-name="Path 24309" d="M525.35,456.352a11.4,11.4,0,0,0-8-.9l-18.992,8.961a2.793,2.793,0,0,0-1.13,3.63c3.266,8.209,11.162,16.179,14.144,19.013l-13.15-9.933c-1.06-.8-2.108-1.64-3.131-2.49a78.951,78.951,0,0,1-6.878-6.447l-16.49-17.3a75.983,75.983,0,0,1-18.55-33.376L436.3,352.376l-2.28-8.775a29.125,29.125,0,0,1,10.525-30.467l1.874-1.431a43.508,43.508,0,0,1,26.412-8.922s10.02,7.813,17.07,69.155c.419,3.574.7,7.162.9,10.748C491.479,394.775,496.484,435.239,525.35,456.352Z" transform="translate(-217.501 20.203)" fill="url(#linear-gradient-8)"/>
  <path id="Path_24310" data-name="Path 24310" d="M498.137,455.572c2.576,9.242,2.267,15.911.628,20.7a16.758,16.758,0,0,1-21.249,10.168c-.715-.245-1.416-.505-2.082-.788.669.218,3.074.26,7.527-2.655,9.2-6.027,10.163-15.927,2.5-23.818-2.615-2.694-5.471-6.056-8.065-8.948-24.158-24.182-27.276-36.84-27.67-40.2-.123-1.085-.234-2.17-.395-3.255C443.2,367.991,428.623,342.81,428.2,342.1v-.013l11.142-8.763,16.872,65.126a75.982,75.982,0,0,0,18.55,33.376l16.491,17.3A78.941,78.941,0,0,0,498.137,455.572Z" transform="translate(-220.547 39.26)" fill="url(#linear-gradient-9)"/>
  <path id="Path_24311" data-name="Path 24311" d="M485.91,449.221c-2.033-.814-6.059-2.4-8.229-2.155a14.113,14.113,0,0,0-11.943,7.748c-.745,1.371,1.881,5.47,21.863,25.866.5.508-3.927,2.943-6.145,1.554a41.039,41.039,0,0,1-9.884-5.718,37.98,37.98,0,0,1-8.874-10.243c-3.242-5.312-9.824-12.645-15.653-18.722a62.216,62.216,0,0,1-15.469-27.792l-8.184-32.291c-1.367-4.968-3.167-13.5-4.622-20.83a22.452,22.452,0,0,1,8.135-22.05l7.456-5.866c.419.715,15,25.9,21.125,64.681.161,1.085.271,2.17.395,3.255C456.277,410.023,461.753,425.039,485.91,449.221Z" transform="translate(-226.705 42.633)" fill="url(#linear-gradient-10)"/>
  <path id="Path_24312" data-name="Path 24312" d="M545.419,446.149a26.224,26.224,0,0,0-2.035-10.131l-19.729-47.372,0,0a83.83,83.83,0,0,0,1.762-15.639c.505-18.217-3.488-35.989-3.956-38.022v-.013c-.037-.123-.05-.185-.05-.185.136-.271.271-.554.395-.838.013-.037.037-.073.05-.111.073-.172.148-.346.221-.529.013-.013.013-.013.013-.026,4.9-11.906.395-28.3-.518-31.367-.062-.185-.1-.32-.123-.406-.024-.062-.037-.1-.037-.1,0-3.451-2.415-13.606-2.415-13.606l-8.935-7.358a35.086,35.086,0,0,0-3.414-2.478s7.123,22.568,2.587,58.2a82.69,82.69,0,0,0-.653,12.83c.3,9.317,1.343,25.892,5.052,41.838h0c.1.427.209.848.312,1.272.153.625.3,1.251.456,1.877l0,0c2.181,8.52,5.166,16.7,9.249,23.3,0,0,10.334,18.344,11.368,25.345,2.3,3.18,1.978,7.8,1.978,21.592C543.538,459.824,545.419,452.165,545.419,446.149Z" transform="translate(-171.595 4.718)" fill="url(#linear-gradient-11)"/>
  <g id="Group_6773" data-name="Group 6773" transform="translate(236.564 441.72)">
    <path id="Path_24313" data-name="Path 24313" d="M451.125,408.937s12.817-9.28,19.74-.884l11.115,14.329a3.811,3.811,0,0,1,.661,3.367,26.1,26.1,0,0,1-4.2,8.689,13.868,13.868,0,0,1-10.99,5.441,11.02,11.02,0,0,1-8.075-2.951l-12.047-16.681a6.6,6.6,0,0,1-.661-6.823A11.489,11.489,0,0,1,451.125,408.937Z" transform="translate(-446.003 -358.016)" fill="url(#linear-gradient-12)"/>
    <path id="Path_24314" data-name="Path 24314" d="M472.936,412.578a2.9,2.9,0,0,1-.362-.679,5.991,5.991,0,0,1,2.829-7.514s18.615-12.8,26.647-5.908l9.41,11.3a4.254,4.254,0,0,1,.952,3.344c-.5,3.389-2.477,10.7-7.906,13.77a10.678,10.678,0,0,1-3.371,1.132,63.9,63.9,0,0,1-13.424,1.194,6.549,6.549,0,0,1-4.944-2.764Z" transform="translate(-429.674 -363.07)" fill="url(#linear-gradient-13)"/>
    <path id="Path_24315" data-name="Path 24315" d="M500.31,391.5a4.52,4.52,0,0,1-.633-3.178,6.224,6.224,0,0,1,3.282-4.31s14.824-9.186,26.534-8.015a14.469,14.469,0,0,1,9.259,4.788l5.879,6.532a4.783,4.783,0,0,1,1.177,3.985c-.848,5.059-3.76,15.474-12.7,18.332,0,0-18.155,5.2-23.294-2.675Z" transform="translate(-412.552 -375.892)" fill="url(#linear-gradient-14)"/>
  </g>
  <g id="Group_6774" data-name="Group 6774" transform="translate(405.683 232.556)">
    <path id="Path_24316" data-name="Path 24316" d="M587.105,318.452a37.486,37.486,0,0,1-5.846,1.285,31.985,31.985,0,0,1-11.919-.573c-.958-.279-1.928-.482-2.86-.825s-1.863-.666-2.756-1.085a46.368,46.368,0,0,1-5.127-2.816c1.967.237,3.8.81,5.673,1.095,1.846.383,3.708.58,5.54.8a48.458,48.458,0,0,0,10.972-.257,56.662,56.662,0,0,0,10.728-2.527l1.337-.422c.447-.141.862-.356,1.307-.51L596.8,311.6c1.773-.685,3.467-1.553,5.333-2.209a45.6,45.6,0,0,1-4.456,3.8,37.247,37.247,0,0,1-5.062,3.021Z" transform="translate(-544.859 -208.227)" fill="url(#linear-gradient-15)"/>
    <path id="Path_24317" data-name="Path 24317" d="M588.051,294.038c-1.389.078-2.967-.11-4.466-.158-.757-.049-1.518-.062-2.269-.136l-2.233-.326-2.241-.283c-.736-.141-1.46-.328-2.191-.489l-2.191-.5-2.123-.7a38.083,38.083,0,0,1-8.112-3.708A32.623,32.623,0,0,1,550.138,274.4c1.229,6.222,5.3,11.774,10.457,15.708a34.982,34.982,0,0,0,8.568,4.629c.76.294,1.527.567,2.295.836l2.36.586c.788.188,1.572.4,2.363.568l2.394.351,2.4.307c.8.065,1.6.068,2.4.1l2.4.081,1.215.036c.442,0,.853-.032,1.265-.071a34.454,34.454,0,0,0,9.509-2.184,27.5,27.5,0,0,0,8.341-4.953,21.824,21.824,0,0,0,5.609-7.677l0,0a.012.012,0,0,0,.011-.015c0,.006-.011.01-.011.01l0,0S601.787,293.256,588.051,294.038Z" transform="translate(-550.138 -230.065)" fill="url(#linear-gradient-15)"/>
    <path id="Path_24318" data-name="Path 24318" d="M588.853,254.342l.872.036c.146.007.3.011.377.008l.417-.011a59.124,59.124,0,0,0,6.847-.718,35.214,35.214,0,0,0,6.644-1.707,13.716,13.716,0,0,0,5.762-3.74,11.8,11.8,0,0,1-4.952,5.364,27.464,27.464,0,0,1-6.813,2.9,42.025,42.025,0,0,1-7.238,1.4l-.469.047a4.649,4.649,0,0,1-.515.016l-.909,0-1.82,0c-1.215-.013-2.431-.023-3.636-.115a56.61,56.61,0,0,1-14.353-2.457,32.086,32.086,0,0,1-6.725-3.016,18.757,18.757,0,0,1-2.936-2.266,8.147,8.147,0,0,1-2.124-2.972,9.654,9.654,0,0,0,2.743,2.162,21.226,21.226,0,0,0,3.128,1.463,44.928,44.928,0,0,0,6.646,1.85l3.414.593,3.45.43c1.163.081,2.316.218,3.472.325s2.329.13,3.492.2Z" transform="translate(-545.681 -247.1)" fill="url(#linear-gradient-15)"/>
  </g>
  <rect id="Rectangle_3548" data-name="Rectangle 3548" width="461.04" height="411.828" rx="16.727" transform="translate(200.481 56.737)" fill="url(#linear-gradient-18)" style="mix-blend-mode: color-dodge;isolation: isolate"/>
  <path id="Path_24319" data-name="Path 24319" d="M873.827,144.817a28.644,28.644,0,0,1,7.269,19.076V518.156a28.783,28.783,0,0,1-28.783,28.783H448.838a28.636,28.636,0,0,1-19.074-7.269,28.676,28.676,0,0,0,21.512,9.707H854.751a28.782,28.782,0,0,0,28.783-28.783V166.331A28.683,28.683,0,0,0,873.827,144.817Z" transform="translate(-219.573 -78.372)" fill="url(#linear-gradient-19)" style="mix-blend-mode: color-dodge;isolation: isolate"/>
  <ellipse id="Ellipse_280" data-name="Ellipse 280" cx="178.333" cy="12.438" rx="178.333" ry="12.438" transform="translate(252.669 44.299)" fill="url(#radial-gradient-11)" style="mix-blend-mode: color-dodge;isolation: isolate"/>
  <ellipse id="Ellipse_281" data-name="Ellipse 281" cx="178.333" cy="12.438" rx="178.333" ry="12.438" transform="translate(252.669 453.858)" fill="url(#radial-gradient-12)" style="mix-blend-mode: color-dodge;isolation: isolate"/>
  <g id="Group_6778" data-name="Group 6778" transform="translate(316.218 278.709)">
    <g id="Group_6776" data-name="Group 6776" transform="translate(20.404 42.589)">
      <g id="Group_6775" data-name="Group 6775" transform="translate(23.839 16.626)">
        <path id="Path_24320" data-name="Path 24320" d="M602.007,325.054a4.3,4.3,0,0,1,3.4-4.276,3.96,3.96,0,0,1-2.993-4.024c0-2.943,2.214-4.6,5.811-4.6h8.5v17.733h-8.78C604.146,329.884,602.007,328.047,602.007,325.054Zm5.057-.7c0,1.057.629,1.559,1.861,1.559h2.866v-3.219H608.95C607.743,322.691,607.064,323.269,607.064,324.351Zm.377-6.691c0,1.031.653,1.535,1.861,1.535h2.49v-3.12H609.3C608.094,316.075,607.441,316.6,607.441,317.66Z" transform="translate(-472.548 -311.873)" fill="#80ffc8"/>
        <path id="Path_24321" data-name="Path 24321" d="M604.234,322.438c0,5.057-3.22,7.623-7.495,7.623-4.252,0-7.773-2.566-7.773-7.623V312.151H593.9v10.287c0,1.837.882,2.995,2.743,2.995s2.691-1.158,2.691-2.995V312.151h4.9Z" transform="translate(-480.686 -311.873)" fill="#80ffc8"/>
        <path id="Path_24322" data-name="Path 24322" d="M586.206,324.25v5.634h-4.955V324.25l-6.238-12.1h5.559l3.118,6.842,3.118-6.842h5.635Z" transform="translate(-489.394 -311.873)" fill="#80ffc8"/>
        <path id="Path_24323" data-name="Path 24323" d="M561.235,312.151v10.037l6.564-10.037h4.929v17.733H567.8v-9.91l-6.564,9.91H556.3V312.151Z" transform="translate(-501.069 -311.873)" fill="#80ffc8"/>
        <path id="Path_24324" data-name="Path 24324" d="M541.389,321.062a9.093,9.093,0,1,1,9.082,9.106A8.862,8.862,0,0,1,541.389,321.062Zm13.156,0c0-2.792-1.51-4.552-4.075-4.552-2.542,0-4.075,1.76-4.075,4.552,0,2.741,1.533,4.526,4.075,4.526C553.035,325.588,554.545,323.8,554.545,321.062Z" transform="translate(-510.376 -311.98)" fill="#80ffc8"/>
        <path id="Path_24325" data-name="Path 24325" d="M543.7,329.884h-6.063l-2.488-10.866-2.441,10.866h-6.061l-4.352-17.733h5.332l2.063,12.023,2.717-12.023h5.408l2.792,12.124,2.063-12.124H548Z" transform="translate(-522.293 -311.873)" fill="#80ffc8"/>
      </g>
      <rect id="Rectangle_3549" data-name="Rectangle 3549" width="188.76" height="51.245" rx="14.343" fill="none" stroke="#24fffa" stroke-linecap="round" stroke-linejoin="round" stroke-width="1"/>
    </g>
    <ellipse id="Ellipse_282" data-name="Ellipse 282" cx="114.784" cy="12.438" rx="114.784" ry="12.438" transform="translate(0 30.104)" fill="url(#radial-gradient-13)" style="mix-blend-mode: color-dodge;isolation: isolate"/>
    <ellipse id="Ellipse_283" data-name="Ellipse 283" cx="114.784" cy="12.438" rx="114.784" ry="12.438" transform="translate(0 80.207)" fill="url(#radial-gradient-14)" style="mix-blend-mode: color-dodge;isolation: isolate"/>
    <g id="Group_6777" data-name="Group 6777" transform="translate(72.71 0)">
      <path id="Path_24326" data-name="Path 24326" d="M583.71,319.407c23.214-23.214,41.221-42.847,40.219-43.849s-20.635,17-43.849,40.219-41.221,42.847-40.219,43.849S560.495,342.623,583.71,319.407Z" transform="translate(-539.821 -275.518)" fill="url(#radial-gradient-15)" style="mix-blend-mode: color-dodge;isolation: isolate"/>
      <path id="Path_24327" data-name="Path 24327" d="M580.081,319.407c23.214,23.216,42.845,41.221,43.849,40.219s-17.005-20.635-40.219-43.849-42.847-41.221-43.849-40.219S556.865,296.193,580.081,319.407Z" transform="translate(-539.821 -275.518)" fill="url(#radial-gradient-16)" style="mix-blend-mode: color-dodge;isolation: isolate"/>
    </g>
  </g>
  <g id="Group_6790" data-name="Group 6790" transform="translate(209.012 85.545)">
    <g id="Group_6785" data-name="Group 6785">
      <g id="Group_6782" data-name="Group 6782" transform="translate(214.411)">
        <g id="Group_6781" data-name="Group 6781" transform="translate(21.983 12.438)">
          <rect id="Rectangle_3550" data-name="Rectangle 3550" width="185.602" height="185.602" rx="18.093" fill="url(#linear-gradient-20)" style="mix-blend-mode: color-dodge;isolation: isolate"/>
          <g id="Group_6780" data-name="Group 6780" transform="translate(47.021 16.072)" style="mix-blend-mode: color-dodge;isolation: isolate">
            <path id="Path_24328" data-name="Path 24328" d="M673.354,180.957a75.1,75.1,0,0,0,16.575,10.019c-4.882,7.63-4.882,24.554-4.882,24.554,0,19.06,10.064,28.2,10.064,28.2L690.385,315.4c-13.454,4.219-29.747,6.568-37.109,7.479-2.478.312-3.945.456-3.945.456s-1.467-.145-3.945-.456c-7.355-.911-23.649-3.259-37.109-7.479l-4.726-71.664s10.064-9.145,10.064-28.2c0,0,0-16.924-4.875-24.554a75.264,75.264,0,0,0,16.575-10.019" transform="translate(-603.551 -169.874)" fill="none" stroke="#24fffa" stroke-linecap="round" stroke-linejoin="round" stroke-width="1"/>
            <g id="Group_6779" data-name="Group 6779" transform="translate(21.13 1.187)">
              <path id="Path_24329" data-name="Path 24329" d="M630.326,211.018l10.888-9.244s-13.148-10.27-18.284-26.91l-6.368,8.011S622.519,201.774,630.326,211.018Z" transform="translate(-616.562 -174.864)" fill="none" stroke="#24fffa" stroke-linecap="round" stroke-linejoin="round" stroke-width="1"/>
              <path id="Path_24330" data-name="Path 24330" d="M642.629,211.018l-10.888-9.244s13.147-10.27,18.284-26.91l6.368,8.011S650.435,201.774,642.629,211.018Z" transform="translate(-607.09 -174.864)" fill="none" stroke="#24fffa" stroke-linecap="round" stroke-linejoin="round" stroke-width="1"/>
            </g>
            <path id="Path_24331" data-name="Path 24331" d="M620.483,175.32s10.42-2.672,36.567,0" transform="translate(-592.985 -174.133)" fill="none" stroke="#24fffa" stroke-linecap="round" stroke-linejoin="round" stroke-width="1"/>
            <path id="Path_24332" data-name="Path 24332" d="M629.309,193.5V315.053" transform="translate(-587.477 -162.049)" fill="none" stroke="#24fffa" stroke-linecap="round" stroke-linejoin="round" stroke-width="1"/>
            <line id="Line_6" data-name="Line 6" y1="121.556" transform="translate(49.723 31.447)" fill="none" stroke="#24fffa" stroke-linecap="round" stroke-linejoin="round" stroke-width="1"/>
          </g>
        </g>
        <ellipse id="Ellipse_284" data-name="Ellipse 284" cx="114.784" cy="12.438" rx="114.784" ry="12.438" fill="url(#radial-gradient-17)" style="mix-blend-mode: color-dodge;isolation: isolate"/>
        <ellipse id="Ellipse_285" data-name="Ellipse 285" cx="114.784" cy="12.438" rx="114.784" ry="12.438" transform="translate(0 182.809)" fill="url(#radial-gradient-18)" style="mix-blend-mode: color-dodge;isolation: isolate"/>
      </g>
      <g id="Group_6784" data-name="Group 6784">
        <g id="Group_6783" data-name="Group 6783" transform="translate(23.95 12.438)">
          <rect id="Rectangle_3551" data-name="Rectangle 3551" width="185.602" height="185.602" rx="18.093" fill="url(#linear-gradient-20)" style="mix-blend-mode: color-dodge;isolation: isolate"/>
          <path id="Path_24333" data-name="Path 24333" d="M484.506,194.339a28.333,28.333,0,0,0-16.68,22.183,10.642,10.642,0,0,0,.151,3.867c.468,2.05,1.411,5.983,3.108,12.271a12.653,12.653,0,0,1,.4,2.363l3.472,48.034H479.5l3.19-40.007s.768-5.871,4.992-5.325a4.895,4.895,0,0,1,3.412,2.24l23.976,36.75a13.637,13.637,0,0,0,10.53,6.166c9.289.6,26.605.658,43.979-4.856a9.018,9.018,0,0,0,6.014-8.713s.124-4.172-5.523-5.523L549.449,259h-1.228l-4.541.492s-16.936,2.33-31.049-35.1c0,0-8.848-22.061-23.76-29.92A4.982,4.982,0,0,0,484.506,194.339Z" transform="translate(-428.852 -145.725)" fill="none" stroke="#24fffa" stroke-linecap="round" stroke-linejoin="round" stroke-width="1" style="mix-blend-mode: color-dodge;isolation: isolate"/>
        </g>
        <ellipse id="Ellipse_286" data-name="Ellipse 286" cx="114.784" cy="12.438" rx="114.784" ry="12.438" fill="url(#radial-gradient-19)" style="mix-blend-mode: color-dodge;isolation: isolate"/>
        <ellipse id="Ellipse_287" data-name="Ellipse 287" cx="114.784" cy="12.438" rx="114.784" ry="12.438" transform="translate(0 182.809)" fill="url(#radial-gradient-20)" style="mix-blend-mode: color-dodge;isolation: isolate"/>
      </g>
    </g>
    <g id="Group_6787" data-name="Group 6787" transform="translate(315.529 42.47)">
      <circle id="Ellipse_288" data-name="Ellipse 288" cx="24.262" cy="24.262" r="24.262" transform="translate(27.697 46.435) rotate(-22.718)" fill="url(#radial-gradient-21)" style="mix-blend-mode: color-dodge;isolation: isolate"/>
      <g id="Group_6786" data-name="Group 6786">
        <path id="Path_24334" data-name="Path 24334" d="M663.482,242.174c0-32.83-1.148-59.445-2.566-59.445s-2.568,26.615-2.568,59.445,1.15,59.445,2.568,59.445S663.482,275,663.482,242.174Z" transform="translate(-601.469 -182.729)" fill="url(#radial-gradient-22)" style="mix-blend-mode: color-dodge;isolation: isolate"/>
        <path id="Path_24335" data-name="Path 24335" d="M682.771,222.886c32.83,0,59.445-1.15,59.445-2.568s-26.615-2.568-59.445-2.568-59.446,1.15-59.446,2.568S649.94,222.886,682.771,222.886Z" transform="translate(-623.325 -160.874)" fill="url(#radial-gradient-23)" style="mix-blend-mode: color-dodge;isolation: isolate"/>
      </g>
    </g>
    <g id="Group_6789" data-name="Group 6789" transform="translate(64.776 59.666)">
      <circle id="Ellipse_289" data-name="Ellipse 289" cx="24.262" cy="24.262" r="24.262" transform="translate(35.184 35.184)" fill="url(#radial-gradient-24)" style="mix-blend-mode: color-dodge;isolation: isolate"/>
      <g id="Group_6788" data-name="Group 6788">
        <path id="Path_24336" data-name="Path 24336" d="M509.081,252.762c0-32.83-1.15-59.445-2.568-59.445s-2.566,26.615-2.566,59.445,1.148,59.446,2.566,59.446S509.081,285.593,509.081,252.762Z" transform="translate(-447.068 -193.317)" fill="url(#radial-gradient-25)" style="mix-blend-mode: color-dodge;isolation: isolate"/>
        <ellipse id="Ellipse_290" data-name="Ellipse 290" cx="59.445" cy="2.567" rx="59.445" ry="2.567" transform="translate(0 56.878)" fill="url(#radial-gradient-26)" style="mix-blend-mode: color-dodge;isolation: isolate"/>
      </g>
    </g>
  </g>
  <path id="Path_24337" data-name="Path 24337" d="M746.68,296.818a27.076,27.076,0,1,0-38.233,2.093A27.075,27.075,0,0,0,746.68,296.818Z" transform="translate(-51.285 -11.69)" fill="url(#radial-gradient-27)" style="mix-blend-mode: screen;isolation: isolate"/>
  <path id="Path_24338" data-name="Path 24338" d="M448.9,238.462a27.075,27.075,0,1,0-38.233,2.095A27.075,27.075,0,0,0,448.9,238.462Z" transform="translate(-237.108 -48.107)" fill="url(#radial-gradient-28)" style="mix-blend-mode: screen;isolation: isolate"/>
  <circle id="Ellipse_291" data-name="Ellipse 291" cx="19.839" cy="19.839" r="19.839" transform="translate(504.121 503.173) rotate(-55.458)" fill="url(#radial-gradient-29)" style="mix-blend-mode: screen;isolation: isolate"/>
  <path id="Path_24339" data-name="Path 24339" d="M556.536,136.983a19.838,19.838,0,1,0-28.013,1.535A19.839,19.839,0,0,0,556.536,136.983Z" transform="translate(-162.063 -103.904)" fill="url(#radial-gradient-30)" style="mix-blend-mode: screen;isolation: isolate"/>
  <circle id="Ellipse_292" data-name="Ellipse 292" cx="13.158" cy="13.158" r="13.158" transform="translate(480.852 19.693) rotate(-4.381)" fill="url(#radial-gradient-31)" style="mix-blend-mode: color-dodge;isolation: isolate"/>
  <path id="Path_24340" data-name="Path 24340" d="M729.933,374.982a9.875,9.875,0,1,0-13.946.763A9.874,9.874,0,0,0,729.933,374.982Z" transform="translate(-43.008 54.984)" fill="url(#radial-gradient-32)" style="mix-blend-mode: color-dodge;isolation: isolate"/>
  <path id="Path_24341" data-name="Path 24341" d="M412.436,288.352a9.875,9.875,0,1,0-13.944.765A9.873,9.873,0,0,0,412.436,288.352Z" transform="translate(-241.138 0.924)" fill="url(#radial-gradient-33)" style="mix-blend-mode: color-dodge;isolation: isolate"/>
  <path id="Path_24342" data-name="Path 24342" d="M580.248,432.711a9.875,9.875,0,1,0-13.944.763A9.875,9.875,0,0,0,580.248,432.711Z" transform="translate(-136.417 91.01)" fill="url(#radial-gradient-34)" style="mix-blend-mode: color-dodge;isolation: isolate"/>
</svg>
