<svg id="Component_9_1" data-name="Component 9 – 1" xmlns="http://www.w3.org/2000/svg" width="102.633" height="112.23" viewBox="0 0 102.633 112.23">
  <g id="hexagon">
    <g id="Group_3288" data-name="Group 3288">
      <path id="Path_7037" data-name="Path 7037" d="M60.146,12.9A20.618,20.618,0,0,1,70.753,10a25.677,25.677,0,0,1,14.46,4.376l27.446,16.03s10.132,6.469,10.132,16.506V82.825a21.915,21.915,0,0,1-10.607,19.407c-11.606,7.135-30.823,17.457-30.823,17.457s-9.276,7.325-25.02-2.9L31.748,102.756S20.19,97.047,20.19,83.348V47.435s-.809-10.7,12.51-18.456Z" transform="translate(-20.18 -10)" fill="#72b63c"/>
    </g>
  </g>
  <g id="Tablet_design_3" data-name="Tablet design 3" transform="translate(27.6 27.686)">
    <path id="Path_7177" data-name="Path 7177" d="M100.348,77.086h-38.7a3.819,3.819,0,0,1-3.819-3.819V30.048a.764.764,0,1,1,1.528,0V73.267a2.291,2.291,0,0,0,2.291,2.291h38.7a2.291,2.291,0,0,0,2.291-2.291V22.347a2.291,2.291,0,0,0-2.291-2.291h-38.7a2.291,2.291,0,0,0-2.291,2.291v5.138a.764.764,0,1,1-1.528,0V22.347a3.819,3.819,0,0,1,3.819-3.819H94.492v-.255a.764.764,0,0,1,.764-.764H99.33a.764.764,0,0,1,.764.764v.255h.255a3.819,3.819,0,0,1,3.819,3.819v2.291h.255a.764.764,0,0,1,.764.764v6.11a.764.764,0,0,1-.764.764h-.255v40.99a3.819,3.819,0,0,1-3.819,3.819Zm-.509-2.037H62.158a2.291,2.291,0,0,1-2.291-2.291v-16.8a.764.764,0,0,1,1.528,0v16.8a.764.764,0,0,0,.764.764H99.839a.771.771,0,0,0,.54-.223.764.764,0,0,0,.224-.541v-49.9a.764.764,0,0,0-.764-.764H62.158a.764.764,0,0,0-.764.764V51.881a.764.764,0,0,1-1.528,0V22.857a2.291,2.291,0,0,1,2.291-2.291H99.839a2.291,2.291,0,0,1,2.291,2.291v49.9A2.291,2.291,0,0,1,99.839,75.049ZM82.526,70.976H79.471a2.291,2.291,0,0,1-2.291-2.291V56.718h-.419a2.639,2.639,0,0,1-2.636-2.636v-.327a2.643,2.643,0,0,1,1.782-2.5L72.42,40.8a2.28,2.28,0,0,1,.559-2.349l6.4-6.4a2.291,2.291,0,0,1,3.24,0l6.4,6.4a2.277,2.277,0,0,1,.554,2.344l-3.487,10.46a2.643,2.643,0,0,1,1.782,2.5v.327a2.639,2.639,0,0,1-2.638,2.636h-.418V68.68a2.291,2.291,0,0,1-2.286,2.3ZM78.707,56.718V68.684a.764.764,0,0,0,.764.764h3.055a.764.764,0,0,0,.764-.764V56.718Zm5.347-1.528h1.181a1.111,1.111,0,0,0,1.11-1.109v-.327a1.111,1.111,0,0,0-1.11-1.11H76.761a1.111,1.111,0,0,0-1.109,1.11v.327a1.11,1.11,0,0,0,1.109,1.109Zm-6.579-4.074h7.046l3.6-10.8a.764.764,0,0,0-.185-.782l-6.154-6.154v7.666a2.8,2.8,0,1,1-1.528-.011v-7.7l-6.2,6.2a.764.764,0,0,0-.183.782ZM81,42.461a1.273,1.273,0,1,0,1.273,1.273A1.273,1.273,0,0,0,81,42.461ZM93.43,31.047a2.593,2.593,0,0,1-2.473-1.825H83.245v.167a.764.764,0,0,1-.764.764H79.725a.764.764,0,0,1-.764-.764v-.167l-7.811.059a2.587,2.587,0,1,1,.037-1.528l7.765-.057h0V26.634a.764.764,0,0,1,.764-.764h2.756a.764.764,0,0,1,.764.764v1.06h7.712a2.589,2.589,0,1,1,2.473,3.353Zm0-3.65a1.062,1.062,0,1,0,1.062,1.06A1.062,1.062,0,0,0,93.43,27.4ZM68.7,27.4a1.062,1.062,0,1,0,1.06,1.06A1.062,1.062,0,0,0,68.7,27.4Zm11.793,1.227h1.228V27.4H80.489Z" transform="translate(-57.83 -17.51)" fill="#fff"/>
  </g>
</svg>
