<svg id="Component_10_1" data-name="Component 10 – 1" xmlns="http://www.w3.org/2000/svg" xmlns:xlink="http://www.w3.org/1999/xlink" width="91.116" height="93.161" viewBox="0 0 91.116 93.161">
  <defs>
    <filter id="Ellipse_56" x="1.503" y="2.594" width="89.613" height="90.568" filterUnits="userSpaceOnUse">
      <feOffset dy="3" input="SourceAlpha"/>
      <feGaussianBlur stdDeviation="3" result="blur"/>
      <feFlood flood-opacity="0.169"/>
      <feComposite operator="in" in2="blur"/>
      <feComposite in="SourceGraphic"/>
    </filter>
  </defs>
  <g transform="matrix(1, 0, 0, 1, 0, 0)" filter="url(#Ellipse_56)">
    <ellipse id="Ellipse_56-2" data-name="Ellipse 56" cx="35.806" cy="36.284" rx="35.806" ry="36.284" transform="translate(10.5 8.59)" fill="#fff"/>
  </g>
  <g id="Ellipse_57" data-name="Ellipse 57" fill="none" stroke="#c4dae7" stroke-width="2">
    <circle cx="44.877" cy="44.877" r="44.877" stroke="none"/>
    <circle cx="44.877" cy="44.877" r="43.877" fill="none"/>
  </g>
  <g id="goal-svgrepo-com" transform="translate(22.749 23.046)">
    <path id="secondary" d="M34.144,9.862a2.172,2.172,0,0,0-2-1.347H27.8V4.17a2.186,2.186,0,0,0-3.715-1.542L17.568,9.145a2.172,2.172,0,0,0-.63,1.542v5.627l-4.8,4.78a2.181,2.181,0,1,0,3.085,3.085l4.78-4.8h5.627a2.172,2.172,0,0,0,1.542-.63l6.518-6.518a2.173,2.173,0,0,0,.456-2.368Z" transform="translate(9.132 -1.998)" fill="#afccde" opacity="0.73"/>
    <path id="primary" d="M23.725,45.45a21.725,21.725,0,1,1,0-43.45h.912a2.181,2.181,0,0,1-.391,4.345h-.521a17.38,17.38,0,1,0,17.38,17.38,4.193,4.193,0,0,0,0-.521,2.181,2.181,0,1,1,4.345-.391v.912A21.725,21.725,0,0,1,23.725,45.45ZM36.5,26.332a2.216,2.216,0,1,0-4.345-.869A8.69,8.69,0,1,1,21.987,15.209a2.216,2.216,0,0,0-.869-4.345A13.035,13.035,0,1,0,36.5,26.245Z" transform="translate(-2 -2)" fill="#afccde"/>
  </g>
</svg>
