<svg id="Component_15_1" data-name="Component 15 – 1" xmlns="http://www.w3.org/2000/svg" width="90.54" height="99.006" viewBox="0 0 90.54 99.006">
  <g id="hexagon">
    <g id="Group_3288" data-name="Group 3288">
      <path id="Path_7037" data-name="Path 7037" d="M55.437,12.56A18.189,18.189,0,0,1,64.794,10a22.652,22.652,0,0,1,12.757,3.861L101.763,28s8.938,5.707,8.938,14.561V74.244a19.333,19.333,0,0,1-9.358,17.121c-10.239,6.294-27.192,15.4-27.192,15.4s-8.183,6.462-22.072-2.56L30.385,91.827s-10.2-5.035-10.2-17.121V43.024s-.713-9.442,11.036-16.281Z" transform="translate(-20.18 -10)" fill="#72b63c"/>
    </g>
  </g>
  <g id="Component_12_1" data-name="Component 12 – 1" transform="translate(12.108 19.351)">
    <g id="analytics-svgrepo-com">
      <g id="Group_6545" data-name="Group 6545" transform="translate(42.435 10.137)">
        <g id="Group_6544" data-name="Group 6544">
          <path id="Path_23666" data-name="Path 23666" d="M382.648,110.016l-2.344-9.6L371.678,122.3l-.906-1.588-1.565.893,2.768,4.853,7.925-20.1,1.334,5.461h4.385v-1.8Z" transform="translate(-369.207 -100.419)" fill="#fff"/>
        </g>
      </g>
      <g id="Group_6547" data-name="Group 6547" transform="translate(29.558 18.634)">
        <g id="Group_6546" data-name="Group 6546">
          <path id="Path_23667" data-name="Path 23667" d="M264.488,174.351l-3.65,4.562-2.1-3.682-1.564.894,3.419,5.983,3.706-4.633,2.158,3.506,1.534-.944Z" transform="translate(-257.171 -174.351)" fill="#fff"/>
        </g>
      </g>
      <g id="Group_6549" data-name="Group 6549">
        <g id="Group_6548" data-name="Group 6548">
          <path id="Path_23668" data-name="Path 23668" d="M25.886,22.473,23.268,25.99,18.329,12.221,9.024,42.109,4.25,31.955H0v1.8H3.106l6.26,13.314L18.45,17.893,22.706,29.76l2.9-3.894.39.758,1.6-.824Z" transform="translate(0 -12.221)" fill="#fff"/>
        </g>
      </g>
      <g id="Group_6551" data-name="Group 6551" transform="translate(26.92 14.01)">
        <g id="Group_6550" data-name="Group 6550">
          <path id="Path_23669" data-name="Path 23669" d="M248.313,136.531a8.256,8.256,0,1,0,2.418,5.838A8.266,8.266,0,0,0,248.313,136.531Zm-1.274,10.4a6.452,6.452,0,1,1,0-9.129A6.413,6.413,0,0,1,247.039,146.934Z" transform="translate(-234.222 -134.117)" fill="#fff"/>
        </g>
      </g>
      <g id="Group_6553" data-name="Group 6553" transform="translate(24.158 11.248)">
        <g id="Group_6552" data-name="Group 6552">
          <path id="Path_23670" data-name="Path 23670" d="M228.991,113.309A11.014,11.014,0,0,0,212.8,128.222l-1.341,1.341,1.274,1.274,1.341-1.341a11.014,11.014,0,0,0,14.913-16.187Zm-1.274,14.3a9.214,9.214,0,1,1,0-13.03A9.153,9.153,0,0,1,227.717,127.613Z" transform="translate(-210.187 -110.083)" fill="#fff"/>
        </g>
      </g>
      <g id="Group_6555" data-name="Group 6555" transform="translate(22.181 30.077)">
        <g id="Group_6554" data-name="Group 6554" transform="translate(0 0)">
          <rect id="Rectangle_3489" data-name="Rectangle 3489" width="1.801" height="5.517" transform="translate(0 1.274) rotate(-45)" fill="#fff"/>
        </g>
      </g>
      <g id="Group_6557" data-name="Group 6557" transform="translate(6.592 31.378)">
        <g id="Group_6556" data-name="Group 6556">
          <path id="Path_23671" data-name="Path 23671" d="M71.618,285.229,70.344,286.5l.663.663L57.354,300.82l3.874,3.874,13.653-13.653.664.663,1.274-1.274ZM61.228,302.147,59.9,300.82l1.977-1.977,1.327,1.327Zm3.251-3.251-1.327-1.327,9.129-9.129,1.327,1.327Z" transform="translate(-57.354 -285.229)" fill="#fff"/>
        </g>
      </g>
      <g id="Group_6559" data-name="Group 6559" transform="translate(31.281 37.034)">
        <g id="Group_6558" data-name="Group 6558">
          <path id="Path_23672" data-name="Path 23672" d="M279.74,338.767l-7.576-4.329v19h27.547V338.767Zm18.169,12.873H273.965v-14.1l5.3,3.026h18.647V351.64Z" transform="translate(-272.164 -334.438)" fill="#fff"/>
        </g>
      </g>
      <g id="Group_6561" data-name="Group 6561" transform="translate(35.908 45.555)">
        <g id="Group_6560" data-name="Group 6560">
          <rect id="Rectangle_3490" data-name="Rectangle 3490" width="10.088" height="1.801" fill="#fff"/>
        </g>
      </g>
      <g id="Group_6563" data-name="Group 6563" transform="translate(35.908 48.317)">
        <g id="Group_6562" data-name="Group 6562">
          <rect id="Rectangle_3491" data-name="Rectangle 3491" width="3.603" height="1.801" fill="#fff"/>
        </g>
      </g>
      <g id="Group_6565" data-name="Group 6565" transform="translate(41.433 48.317)">
        <g id="Group_6564" data-name="Group 6564">
          <rect id="Rectangle_3492" data-name="Rectangle 3492" width="8.166" height="1.801" fill="#fff"/>
        </g>
      </g>
      <g id="Group_6567" data-name="Group 6567" transform="translate(35.908 50.959)">
        <g id="Group_6566" data-name="Group 6566">
          <rect id="Rectangle_3493" data-name="Rectangle 3493" width="1.801" height="1.801" fill="#fff"/>
        </g>
      </g>
      <g id="Group_6569" data-name="Group 6569" transform="translate(39.511 50.959)">
        <g id="Group_6568" data-name="Group 6568">
          <rect id="Rectangle_3494" data-name="Rectangle 3494" width="1.921" height="1.801" fill="#fff"/>
        </g>
      </g>
      <g id="Group_6571" data-name="Group 6571" transform="translate(43.234 50.959)">
        <g id="Group_6570" data-name="Group 6570">
          <rect id="Rectangle_3495" data-name="Rectangle 3495" width="1.801" height="1.801" fill="#fff"/>
        </g>
      </g>
      <g id="Group_6573" data-name="Group 6573" transform="translate(46.837 50.959)">
        <g id="Group_6572" data-name="Group 6572">
          <rect id="Rectangle_3496" data-name="Rectangle 3496" width="1.921" height="1.801" fill="#fff"/>
        </g>
      </g>
      <g id="Group_6575" data-name="Group 6575" transform="translate(50.56 50.959)">
        <g id="Group_6574" data-name="Group 6574">
          <rect id="Rectangle_3497" data-name="Rectangle 3497" width="1.801" height="1.801" fill="#fff"/>
        </g>
      </g>
    </g>
  </g>
</svg>
