<svg id="Component_11_1" data-name="Component 11 – 1" xmlns="http://www.w3.org/2000/svg" width="102.633" height="112.23" viewBox="0 0 102.633 112.23">
  <g id="hexagon">
    <g id="Group_3288" data-name="Group 3288" transform="translate(0)">
      <path id="Path_7037" data-name="Path 7037" d="M60.146,12.9A20.618,20.618,0,0,1,70.753,10a25.677,25.677,0,0,1,14.46,4.376l27.446,16.03s10.132,6.469,10.132,16.506V82.825a21.915,21.915,0,0,1-10.607,19.407c-11.606,7.135-30.823,17.457-30.823,17.457s-9.276,7.325-25.02-2.9L31.748,102.756S20.19,97.047,20.19,83.348V47.435s-.809-10.7,12.51-18.456Z" transform="translate(-20.18 -10)" fill="#72b63c"/>
    </g>
  </g>
  <g id="Degital_grahpic_3" data-name="Degital grahpic 3" transform="translate(18.865 31.288)">
    <path id="Path_7157" data-name="Path 7157" d="M82.287,57.88H25.741A4.241,4.241,0,0,0,21.5,62.121V97.745a2.545,2.545,0,0,0,2.545,2.545H48.359v3.859a7.163,7.163,0,0,1-3.239,6h-.01a2.017,2.017,0,0,0,1.1,3.7H61.454a1.979,1.979,0,0,0,1.073-3.644H62.52a7.383,7.383,0,0,1-3.417-6.245v-3.675H75.378a.848.848,0,1,0,0-1.7H24.045a.848.848,0,0,1-.848-.848V62.121a2.545,2.545,0,0,1,2.545-2.545H82.287a2.545,2.545,0,0,1,2.545,2.545V97.745a.848.848,0,0,1-.848.848h-5.16a.848.848,0,1,0,0,1.7h5.16a2.545,2.545,0,0,0,2.545-2.545V62.121a4.241,4.241,0,0,0-4.241-4.241Zm-24.88,42.409v3.675a9.071,9.071,0,0,0,4.194,7.67h0a.283.283,0,0,1-.153.523H46.215a.321.321,0,0,1-.175-.588h0a8.849,8.849,0,0,0,4.015-7.426v-3.859Z" transform="translate(-21.5 -57.88)" fill="#fff"/>
    <path id="Path_7158" data-name="Path 7158" d="M264.488,91.1a2.529,2.529,0,0,0-.951-.6h0a2.515,2.515,0,0,0-1.686,0h0a2.529,2.529,0,0,0-.951.6l-5.451,5.451a2.529,2.529,0,0,0-.615,2.6l.9,2.726,1.61-.537-.9-2.724a.848.848,0,0,1,.2-.868l5.2-5.2v6.484a2.7,2.7,0,1,0,1.7,0V92.551l5.194,5.2a.848.848,0,0,1,.205.868l-3.174,9.514H259.6l-1.484-4.457a.848.848,0,0,0-1.61.536l1.385,4.156a2.7,2.7,0,0,0,1.1,5.158h.076v3.692a2.545,2.545,0,0,0,2.545,2.545h2.152a2.545,2.545,0,0,0,2.545-2.545V113.53h.075a2.7,2.7,0,0,0,1.1-5.158l3.072-9.213a2.532,2.532,0,0,0-.615-2.6Zm-1.8,11.489a1,1,0,1,1,1-1A1,1,0,0,1,262.689,102.592Zm1.924,14.63a.848.848,0,0,1-.848.848h-2.152a.848.848,0,0,1-.848-.848V113.53h3.848Zm2.772-6.39a1,1,0,0,1-1,1h-7.392a1,1,0,0,1,0-2h7.392a1,1,0,0,1,1,1Z" transform="translate(-221.734 -85.769)" fill="#fff"/>
    <path id="Path_7159" data-name="Path 7159" d="M115.58,98.394a3.11,3.11,0,1,0-3.958,2.991v4.642h-1.414a.848.848,0,0,0-.848.848v1.394a12.555,12.555,0,0,0-12.44,12.555v1.319a.848.848,0,0,0,1.7,0V120.83a10.854,10.854,0,0,1,10.744-10.857v1.432a.848.848,0,0,0,.848.848h1.414v5.009a3.11,3.11,0,1,0,1.7,0v-5.014h1.414a.848.848,0,0,0,.848-.848v-4.524a.848.848,0,0,0-.848-.848h-1.414v-4.642a3.11,3.11,0,0,0,2.262-2.991Zm-1.7,21.854a1.414,1.414,0,1,1-1.414-1.414A1.414,1.414,0,0,1,113.884,120.247Zm0-9.7h-2.827v-2.827h2.827Zm-2.827-12.157a1.414,1.414,0,1,1,1.414,1.414A1.414,1.414,0,0,1,111.056,98.394Z" transform="translate(-86.258 -89.995)" fill="#fff"/>
    <path id="Path_7160" data-name="Path 7160" d="M98,109.5V76.425a2.545,2.545,0,0,0-2.545-2.545H40.045A2.545,2.545,0,0,0,37.5,76.425V109.5Zm-58.808-1.7V76.425a.848.848,0,0,1,.848-.848H95.459a.848.848,0,0,1,.848.848v31.383Z" transform="translate(-35.238 -71.618)" fill="#fff"/>
  </g>
</svg>
