<svg id="Component_19_1" data-name="Component 19 – 1" xmlns="http://www.w3.org/2000/svg" width="90.54" height="99.006" viewBox="0 0 90.54 99.006">
  <g id="hexagon">
    <g id="Group_3288" data-name="Group 3288">
      <path id="Path_7037" data-name="Path 7037" d="M55.437,12.56A18.189,18.189,0,0,1,64.794,10a22.652,22.652,0,0,1,12.757,3.861L101.763,28s8.938,5.707,8.938,14.561V74.244a19.333,19.333,0,0,1-9.358,17.121c-10.239,6.294-27.192,15.4-27.192,15.4s-8.183,6.462-22.072-2.56L30.385,91.827s-10.2-5.035-10.2-17.121V43.024s-.713-9.442,11.036-16.281Z" transform="translate(-20.18 -10)" fill="#72b63c"/>
    </g>
  </g>
  <g id="Tablet_design_3" data-name="Tablet design 3" transform="translate(25.652 23.516)">
    <path id="Path_7177" data-name="Path 7177" d="M95.338,70.066H61.2A3.369,3.369,0,0,1,57.83,66.7V28.57a.674.674,0,1,1,1.348,0V66.7A2.021,2.021,0,0,0,61.2,68.719H95.338A2.021,2.021,0,0,0,97.36,66.7V21.777a2.021,2.021,0,0,0-2.021-2.021H61.2a2.021,2.021,0,0,0-2.021,2.021V26.31a.674.674,0,1,1-1.348,0V21.777A3.369,3.369,0,0,1,61.2,18.408H90.172v-.225a.674.674,0,0,1,.674-.674H94.44a.674.674,0,0,1,.674.674v.225h.225a3.369,3.369,0,0,1,3.369,3.369V23.8h.225a.674.674,0,0,1,.674.674v5.39a.674.674,0,0,1-.674.674h-.225V66.7a3.369,3.369,0,0,1-3.369,3.369Zm-.449-1.8H61.648a2.021,2.021,0,0,1-2.021-2.021V51.425a.674.674,0,0,1,1.348,0V66.248a.674.674,0,0,0,.674.674H94.889a.68.68,0,0,0,.476-.2.674.674,0,0,0,.2-.477V22.227a.674.674,0,0,0-.674-.674H61.648a.674.674,0,0,0-.674.674v25.6a.674.674,0,0,1-1.348,0v-25.6a2.021,2.021,0,0,1,2.021-2.021H94.889a2.021,2.021,0,0,1,2.021,2.021V66.248A2.021,2.021,0,0,1,94.889,68.27ZM79.616,64.676h-2.7c-1.116,0,3.811,0,2.7,0Z" transform="translate(-57.83 -17.51)" fill="#fff"/>
    <text id="UX" transform="translate(18.275 36.063)" fill="#fff" font-size="23" font-family="SegoeUI, Segoe UI" letter-spacing="0.002em"><tspan x="-14.707" y="0">UX</tspan></text>
  </g>
</svg>
