<svg xmlns="http://www.w3.org/2000/svg" xmlns:xlink="http://www.w3.org/1999/xlink" width="986.877" height="659.378" viewBox="0 0 986.877 659.378">
  <defs>
    <clipPath id="clip-path">
      <rect id="SVGID" width="986.877" height="659.378" fill="none"/>
    </clipPath>
    <linearGradient id="linear-gradient" x1="0.334" y1="-0.3" x2="0.627" y2="1.115" gradientUnits="objectBoundingBox">
      <stop offset="0" stop-color="#acff68" stop-opacity="0.761"/>
      <stop offset="0.167" stop-color="#a0df6d" stop-opacity="0.6"/>
      <stop offset="0.573" stop-color="#a896e9" stop-opacity="0.388"/>
      <stop offset="0.861" stop-color="#b766e4" stop-opacity="0.11"/>
      <stop offset="0.994" stop-color="#bd54e3" stop-opacity="0"/>
      <stop offset="1" stop-color="#bd54e3" stop-opacity="0"/>
    </linearGradient>
    <linearGradient id="linear-gradient-2" x1="0.347" y1="1.184" x2="0.748" y2="-0.607" gradientUnits="objectBoundingBox">
      <stop offset="0" stop-color="#acff68" stop-opacity="0.671"/>
      <stop offset="0.154" stop-color="#a0df6d"/>
      <stop offset="0.573" stop-color="#a896e9" stop-opacity="0.388"/>
      <stop offset="0.861" stop-color="#b766e4" stop-opacity="0.11"/>
      <stop offset="0.994" stop-color="#bd54e3" stop-opacity="0"/>
      <stop offset="1" stop-color="#bd54e3" stop-opacity="0"/>
    </linearGradient>
    <radialGradient id="radial-gradient" cx="-0.222" cy="0.005" r="1.748" gradientTransform="translate(-0.343) scale(1.686 1)" gradientUnits="objectBoundingBox">
      <stop offset="0" stop-color="#acff68" stop-opacity="0.529"/>
      <stop offset="0.292" stop-color="#a0df6d"/>
      <stop offset="0.539" stop-color="#72b63c"/>
      <stop offset="1" stop-color="#5d9131"/>
    </radialGradient>
    <radialGradient id="radial-gradient-2" cx="0.603" cy="0.574" r="0.727" gradientTransform="matrix(0.83, -0.016, 0.018, 1.354, 0.317, -0.587)" gradientUnits="objectBoundingBox">
      <stop offset="0" stop-color="#fff"/>
      <stop offset="0.047" stop-color="#cfcfcf"/>
      <stop offset="0.097" stop-color="#a4a4a4"/>
      <stop offset="0.153" stop-color="#7d7d7d"/>
      <stop offset="0.213" stop-color="#5b5b5b"/>
      <stop offset="0.278" stop-color="#3e3e3e"/>
      <stop offset="0.351" stop-color="#272727"/>
      <stop offset="0.435" stop-color="#151515"/>
      <stop offset="0.536" stop-color="#090909"/>
      <stop offset="0.671" stop-color="#020202"/>
      <stop offset="0.989"/>
    </radialGradient>
    <radialGradient id="radial-gradient-3" cx="0.5" cy="0.5" r="0.056" gradientTransform="translate(-1534.042 -27.671) scale(8.898 8.894)" xlink:href="#radial-gradient-2"/>
    <radialGradient id="radial-gradient-4" cx="0.5" cy="0.5" r="0.056" gradientTransform="translate(-794.88 -27.671) scale(8.898 8.894)" xlink:href="#radial-gradient-2"/>
    <radialGradient id="radial-gradient-5" cx="0.5" cy="0.5" r="0.5" gradientTransform="matrix(0.927, 0.375, -0.375, 0.927, -7.098, -2.453)" gradientUnits="objectBoundingBox">
      <stop offset="0" stop-color="#1c1535"/>
      <stop offset="0.128" stop-color="#241d44" stop-opacity="0.78"/>
      <stop offset="0.443" stop-color="#342e61" stop-opacity="0.349"/>
      <stop offset="0.741" stop-color="#3d3873" stop-opacity="0.09"/>
      <stop offset="1" stop-color="#413c7a" stop-opacity="0"/>
    </radialGradient>
    <linearGradient id="linear-gradient-3" x1="0.236" y1="-0.509" x2="0.81" y2="1.685" gradientUnits="objectBoundingBox">
      <stop offset="0" stop-color="#89fff4"/>
      <stop offset="0.396" stop-color="#9fb5ec"/>
      <stop offset="0.808" stop-color="#b46fe5"/>
      <stop offset="1" stop-color="#bd54e3"/>
    </linearGradient>
    <radialGradient id="radial-gradient-6" cx="0.5" cy="0.5" r="0.5" gradientTransform="matrix(0.927, 0.376, -0.376, 0.927, -5.315, -3.393)" xlink:href="#radial-gradient-5"/>
    <radialGradient id="radial-gradient-7" cx="0.5" cy="0.5" r="0.5" gradientTransform="translate(0)" xlink:href="#radial-gradient-5"/>
    <linearGradient id="linear-gradient-5" x1="0.236" y1="-0.509" x2="0.81" y2="1.685" gradientUnits="objectBoundingBox">
      <stop offset="0" stop-color="#acff68"/>
      <stop offset="0.396" stop-color="#a0df6d"/>
      <stop offset="0.808" stop-color="#b46fe5"/>
      <stop offset="1" stop-color="#bd54e3"/>
    </linearGradient>
    <radialGradient id="radial-gradient-8" cx="0.5" cy="0.5" r="0.5" gradientTransform="matrix(1, 0, 0, 1, 0, 0)" xlink:href="#radial-gradient-5"/>
    <linearGradient id="linear-gradient-6" x1="0.236" y1="-0.509" x2="0.81" y2="1.685" gradientUnits="objectBoundingBox">
      <stop offset="0" stop-color="#a0df6d"/>
      <stop offset="0.396" stop-color="#9fb5ec"/>
      <stop offset="0.808" stop-color="#b46fe5"/>
      <stop offset="1" stop-color="#bd54e3"/>
    </linearGradient>
    <radialGradient id="radial-gradient-10" cx="0.5" cy="0.5" r="0.5" gradientTransform="translate(0)" xlink:href="#radial-gradient-5"/>
    <radialGradient id="radial-gradient-11" cx="0.5" cy="0.5" r="0.503" gradientTransform="matrix(0.728, 0.559, -0.553, 0.935, 20.969, -93.068)" gradientUnits="objectBoundingBox">
      <stop offset="0" stop-color="#fff"/>
      <stop offset="0.007" stop-color="#d3d3d3"/>
      <stop offset="0.015" stop-color="#a7a7a7"/>
      <stop offset="0.024" stop-color="#7f7f7f"/>
      <stop offset="0.034" stop-color="#5c5c5c"/>
      <stop offset="0.045" stop-color="#3f3f3f"/>
      <stop offset="0.056" stop-color="#282828"/>
      <stop offset="0.07" stop-color="#161616"/>
      <stop offset="0.086" stop-color="#090909"/>
      <stop offset="0.107" stop-color="#020202"/>
      <stop offset="0.154"/>
      <stop offset="0.276"/>
      <stop offset="0.989"/>
    </radialGradient>
    <radialGradient id="radial-gradient-12" cx="0.5" cy="0.5" r="0.503" gradientTransform="matrix(0.728, 0.559, -0.553, 0.935, 17.118, -95.451)" xlink:href="#radial-gradient-11"/>
    <radialGradient id="radial-gradient-13" cx="0.5" cy="0.5" r="0.503" gradientTransform="matrix(0.728, 0.559, -0.553, 0.935, 11.937, -89.182)" gradientUnits="objectBoundingBox">
      <stop offset="0" stop-color="#fff"/>
      <stop offset="0.002" stop-color="#f5f5f5"/>
      <stop offset="0.011" stop-color="#c7c7c7"/>
      <stop offset="0.021" stop-color="#9c9c9c"/>
      <stop offset="0.031" stop-color="#777"/>
      <stop offset="0.043" stop-color="#565656"/>
      <stop offset="0.056" stop-color="#3b3b3b"/>
      <stop offset="0.071" stop-color="#252525"/>
      <stop offset="0.088" stop-color="#141414"/>
      <stop offset="0.109" stop-color="#080808"/>
      <stop offset="0.138" stop-color="#010101"/>
      <stop offset="0.221"/>
      <stop offset="0.333"/>
      <stop offset="0.989"/>
    </radialGradient>
    <radialGradient id="radial-gradient-14" cx="0.5" cy="0.5" r="0.503" gradientTransform="matrix(0.728, 0.559, -0.553, 0.935, 12.399, -94.129)" xlink:href="#radial-gradient-13"/>
    <radialGradient id="radial-gradient-15" cx="0.5" cy="0.5" r="0.503" gradientTransform="matrix(0.728, 0.559, -0.553, 0.935, 2.345, -85.556)" xlink:href="#radial-gradient-13"/>
    <radialGradient id="radial-gradient-16" cx="0.5" cy="0.5" r="0.503" gradientTransform="matrix(0.728, 0.559, -0.553, 0.935, 19.798, -94.071)" xlink:href="#radial-gradient-13"/>
    <radialGradient id="radial-gradient-17" cx="0.5" cy="0.5" r="0.537" gradientTransform="matrix(0.426, 0.84, -0.745, 0.611, 20.903, -77.192)" xlink:href="#radial-gradient-13"/>
    <radialGradient id="radial-gradient-18" cx="0.5" cy="0.5" r="0.537" gradientTransform="matrix(0.426, 0.84, -0.745, 0.611, 23.925, -81.323)" xlink:href="#radial-gradient-13"/>
    <radialGradient id="radial-gradient-19" cx="0.5" cy="0.5" r="0.537" gradientTransform="matrix(0.426, 0.84, -0.745, 0.611, 20.952, -85.959)" xlink:href="#radial-gradient-13"/>
    <radialGradient id="radial-gradient-20" cx="0.5" cy="0.5" r="0.537" gradientTransform="matrix(0.426, 0.84, -0.745, 0.611, 17.588, -82.117)" xlink:href="#radial-gradient-13"/>
    <radialGradient id="radial-gradient-21" cx="0.5" cy="0.5" r="0.503" gradientTransform="matrix(0.728, 0.559, -0.553, 0.935, 8.023, -85.521)" xlink:href="#radial-gradient-13"/>
    <radialGradient id="radial-gradient-22" cx="0.5" cy="0.5" r="0.503" gradientTransform="matrix(0.728, 0.559, -0.553, 0.935, 20.66, -97.255)" xlink:href="#radial-gradient-13"/>
    <radialGradient id="radial-gradient-23" cx="0.5" cy="0.5" r="0.503" gradientTransform="matrix(0.728, 0.559, -0.553, 0.935, 15.559, -65.319)" xlink:href="#radial-gradient-13"/>
    <radialGradient id="radial-gradient-24" cx="0.5" cy="0.5" r="0.537" gradientTransform="matrix(0.426, 0.84, -0.745, 0.611, 30.414, -96.649)" xlink:href="#radial-gradient-13"/>
    <radialGradient id="radial-gradient-25" cx="0.5" cy="0.5" r="0.503" gradientTransform="matrix(0.728, 0.559, -0.553, 0.935, 7.912, -91.117)" xlink:href="#radial-gradient-13"/>
    <radialGradient id="radial-gradient-26" cx="0.5" cy="0.5" r="0.503" gradientTransform="matrix(0.728, 0.559, -0.553, 0.935, 4.25, -88.221)" xlink:href="#radial-gradient-13"/>
    <radialGradient id="radial-gradient-27" cx="0.5" cy="0.5" r="0.599" gradientTransform="matrix(0.656, 0.559, -0.397, 0.745, 24.937, -117.324)" xlink:href="#radial-gradient-11"/>
    <radialGradient id="radial-gradient-28" cx="0.5" cy="0.5" r="0.503" gradientTransform="matrix(0.728, 0.559, -0.553, 0.935, 15.242, -92.934)" xlink:href="#radial-gradient-11"/>
    <radialGradient id="radial-gradient-29" cx="0.5" cy="0.5" r="0.503" gradientTransform="matrix(0.728, 0.559, -0.553, 0.935, 9.519, -87.654)" xlink:href="#radial-gradient-11"/>
    <radialGradient id="radial-gradient-30" cx="0.5" cy="0.5" r="0.504" gradientTransform="matrix(0.993, -0.02, -0.02, -0.993, 1.379, 9.971)" xlink:href="#radial-gradient-11"/>
    <radialGradient id="radial-gradient-31" cx="0.5" cy="0.5" r="0.504" gradientTransform="matrix(0.993, -0.02, -0.02, -0.993, 1.16, -15.691)" xlink:href="#radial-gradient-11"/>
    <radialGradient id="radial-gradient-32" cx="0.5" cy="0.5" r="0.504" gradientTransform="matrix(0.993, -0.02, -0.02, -0.993, 0.873, -36.026)" xlink:href="#radial-gradient-13"/>
    <radialGradient id="radial-gradient-33" cx="0.5" cy="0.5" r="0.504" gradientTransform="matrix(0.993, -0.02, -0.02, -0.993, 0.9, -40.813)" xlink:href="#radial-gradient-13"/>
    <radialGradient id="radial-gradient-34" cx="0.5" cy="0.5" r="0.499" gradientTransform="matrix(0.404, 0.916, 0.919, -0.398, 142.512, -218.54)" xlink:href="#radial-gradient-13"/>
    <radialGradient id="radial-gradient-35" cx="0.5" cy="0.5" r="0.499" gradientTransform="matrix(0.405, 0.916, 0.919, -0.398, 109.636, -168.742)" xlink:href="#radial-gradient-13"/>
    <radialGradient id="radial-gradient-36" cx="0.5" cy="0.5" r="0.499" gradientTransform="matrix(0.405, 0.916, 0.919, -0.398, 66.609, -102.304)" xlink:href="#radial-gradient-13"/>
    <radialGradient id="radial-gradient-37" cx="0.5" cy="0.5" r="0.499" gradientTransform="matrix(0.405, 0.916, 0.919, -0.398, 67.625, -103.904)" xlink:href="#radial-gradient-13"/>
    <radialGradient id="radial-gradient-38" cx="0.5" cy="0.5" r="0.499" gradientTransform="matrix(0.405, 0.916, 0.919, -0.398, 77.68, -119.24)" xlink:href="#radial-gradient-13"/>
    <radialGradient id="radial-gradient-39" cx="0.5" cy="0.5" r="0.499" gradientTransform="matrix(0.405, 0.916, 0.919, -0.398, 77.508, -118.925)" xlink:href="#radial-gradient-13"/>
    <radialGradient id="radial-gradient-40" cx="0.5" cy="0.5" r="0.504" gradientTransform="matrix(0.993, -0.02, -0.02, -0.993, 0.674, -52.994)" xlink:href="#radial-gradient-13"/>
    <radialGradient id="radial-gradient-41" cx="0.5" cy="0.5" r="0.504" gradientTransform="matrix(0.993, -0.02, -0.02, -0.993, 1.354, 1.954)" xlink:href="#radial-gradient-13"/>
    <radialGradient id="radial-gradient-42" cx="0.5" cy="0.5" r="0.504" gradientTransform="matrix(0.993, -0.02, -0.02, -0.993, 1.004, 11.149)" xlink:href="#radial-gradient-13"/>
    <radialGradient id="radial-gradient-43" cx="0.5" cy="0.5" r="0.499" gradientTransform="matrix(0.405, 0.916, 0.919, -0.398, 77.629, -119.343)" xlink:href="#radial-gradient-13"/>
    <radialGradient id="radial-gradient-44" cx="0.5" cy="0.5" r="0.504" gradientTransform="matrix(0.993, -0.02, -0.02, -0.993, 0.644, -62.029)" xlink:href="#radial-gradient-13"/>
    <radialGradient id="radial-gradient-45" cx="0.5" cy="0.5" r="0.504" gradientTransform="matrix(0.993, -0.02, -0.02, -0.993, 0.459, -78.674)" xlink:href="#radial-gradient-13"/>
    <radialGradient id="radial-gradient-46" cx="0.5" cy="0.5" r="0.632" gradientTransform="matrix(0.791, -0.02, -0.013, -0.791, 37.31, -67.656)" xlink:href="#radial-gradient-11"/>
    <radialGradient id="radial-gradient-47" cx="0.5" cy="0.5" r="0.504" gradientTransform="matrix(0.993, -0.02, -0.02, -0.993, 1.048, -22.656)" xlink:href="#radial-gradient-11"/>
    <radialGradient id="radial-gradient-48" cx="0.5" cy="0.5" r="0.499" gradientTransform="matrix(0.405, 0.916, 0.919, -0.398, 126.468, -194.241)" xlink:href="#radial-gradient-11"/>
    <linearGradient id="linear-gradient-9" x1="0.778" y1="0.085" x2="0.222" y2="0.915" gradientUnits="objectBoundingBox">
      <stop offset="0" stop-color="#acff68"/>
      <stop offset="0.326" stop-color="#a0df6d"/>
      <stop offset="0.62" stop-color="#72b63c"/>
      <stop offset="0.747" stop-color="#a2aaeb"/>
      <stop offset="0.87" stop-color="#ae85e7"/>
      <stop offset="0.987" stop-color="#bb59e3"/>
      <stop offset="1" stop-color="#bd54e3"/>
    </linearGradient>
    <linearGradient id="linear-gradient-10" x1="0.778" y1="0.085" x2="0.222" y2="0.915" gradientUnits="objectBoundingBox">
      <stop offset="0" stop-color="#acff68"/>
      <stop offset="0.487" stop-color="#a0df6d"/>
      <stop offset="0.62" stop-color="#72b63c"/>
      <stop offset="0.747" stop-color="#a2aaeb"/>
      <stop offset="0.87" stop-color="#ae85e7"/>
      <stop offset="0.987" stop-color="#bb59e3"/>
      <stop offset="1" stop-color="#bd54e3"/>
    </linearGradient>
  </defs>
  <g id="Group_6962" data-name="Group 6962" clip-path="url(#clip-path)">
    <path id="Path_31777" data-name="Path 31777" d="M905.223,367.466h0a16.408,16.408,0,0,1-16.408-16.407V183.921a16.408,16.408,0,0,1,16.408-16.408h0a16.408,16.408,0,0,1,16.406,16.408V351.06A16.408,16.408,0,0,1,905.223,367.466Z" transform="translate(-6.663 -19.582)" fill="url(#linear-gradient)"/>
    <path id="Path_31778" data-name="Path 31778" d="M876.8,373.679h0a9.947,9.947,0,0,1-9.947-9.947V262.4a9.947,9.947,0,0,1,9.947-9.947h0a9.948,9.948,0,0,1,9.949,9.947V363.731A9.948,9.948,0,0,1,876.8,373.679Z" transform="translate(-21.38 -143.173)" fill="url(#linear-gradient-2)"/>
    <g id="Group_6961" data-name="Group 6961" transform="translate(190.871 6.367)">
      <rect id="Rectangle_3561" data-name="Rectangle 3561" width="263.33" height="443.948" rx="9.629" transform="translate(376.198 153.133)" fill="url(#radial-gradient)"/>
      <g id="Component_17_1" data-name="Component 17 – 1" transform="translate(69.682 2.329)">
        <path id="Path_31779" data-name="Path 31779" d="M1265.123,143.3H552.886C495.6,252.6,462.843,387.1,465.151,532.075c1.57,98.518,19.166,191.685,49.343,274.987h750.629Z" transform="translate(-465.037 -143.303)" opacity="0.44" fill="url(#radial-gradient-2)" style="mix-blend-mode: color-dodge;isolation: isolate"/>
      </g>
      <rect id="Rectangle_3562" data-name="Rectangle 3562" width="263.33" height="443.948" rx="9.629" transform="translate(376.198 153.133)" fill="none" stroke="#707070" stroke-miterlimit="10" stroke-width="0.882"/>
      <ellipse id="Ellipse_350" data-name="Ellipse 350" cx="13.528" cy="120.368" rx="13.528" ry="120.368" transform="translate(626 214.882)" fill="url(#radial-gradient-3)" style="mix-blend-mode: color-dodge;isolation: isolate"/>
      <ellipse id="Ellipse_351" data-name="Ellipse 351" cx="13.528" cy="120.368" rx="13.528" ry="120.368" transform="translate(362.67 214.882)" fill="url(#radial-gradient-4)" style="mix-blend-mode: color-dodge;isolation: isolate"/>
      <g id="Group_6947" data-name="Group 6947" transform="translate(353.736 148.6)">
        <circle id="Ellipse_352" data-name="Ellipse 352" cx="64.27" cy="64.27" r="64.27" transform="translate(0 48.159) rotate(-22.003)" fill="url(#radial-gradient-5)" style="mix-blend-mode: multiply;isolation: isolate"/>
        <rect id="Rectangle_3563" data-name="Rectangle 3563" width="95.358" height="95.358" rx="4.41" transform="translate(35.989 21.354)" fill="url(#linear-gradient-3)"/>
        <path id="Path_31780" data-name="Path 31780" d="M768.41,240.043v79.12a8.143,8.143,0,0,1-8.118,8.12H681.17" transform="translate(-637.063 -210.571)" fill="none" stroke="#707070" stroke-miterlimit="10" stroke-width="0.882" style="mix-blend-mode: overlay;isolation: isolate"/>
      </g>
      <g id="Group_6948" data-name="Group 6948" transform="translate(453.202 373.375)">
        <circle id="Ellipse_353" data-name="Ellipse 353" cx="55.974" cy="55.974" r="55.974" transform="matrix(0.927, -0.376, 0.376, 0.927, 0, 42.057)" fill="url(#radial-gradient-6)" style="mix-blend-mode: multiply;isolation: isolate"/>
        <rect id="Rectangle_3564" data-name="Rectangle 3564" width="83.049" height="83.05" rx="3.841" transform="translate(31.378 18.631)" fill="url(#linear-gradient-3)"/>
        <path id="Path_31781" data-name="Path 31781" d="M808.11,360.106v68.91a7.091,7.091,0,0,1-7.07,7.07H732.132" transform="translate(-693.683 -334.404)" fill="none" stroke="#707070" stroke-miterlimit="10" stroke-width="0.768" style="mix-blend-mode: overlay;isolation: isolate"/>
      </g>
      <g id="Group_6949" data-name="Group 6949" transform="translate(446.766 231.601)" style="mix-blend-mode: overlay;isolation: isolate">
        <circle id="Ellipse_354" data-name="Ellipse 354" cx="90.509" cy="90.509" r="90.509" fill="url(#radial-gradient-7)" style="mix-blend-mode: multiply;isolation: isolate"/>
        <rect id="Rectangle_3565" data-name="Rectangle 3565" width="134.289" height="134.289" rx="6.211" transform="translate(23.365 2.753)" fill="url(#linear-gradient-5)"/>
        <path id="Path_31782" data-name="Path 31782" d="M849.509,276.829V388.254a11.467,11.467,0,0,1-11.433,11.433H726.651" transform="translate(-691.855 -262.644)" fill="none" stroke="#707070" stroke-miterlimit="10" stroke-width="1.242" style="mix-blend-mode: overlay;isolation: isolate"/>
      </g>
      <g id="Group_6950" data-name="Group 6950" transform="translate(501.791 273.932)">
        <path id="Path_31783" data-name="Path 31783" d="M776.49,333.2c-.112.177-.224.355-.34.523A15.827,15.827,0,0,1,775,335.264c-.2.024-.4.044-.6.066-.352.041-.7.083-1.064.118.184-.342.361-.714.534-1.09.23-.5.455-1.02.663-1.572.038-.1.079-.206.114-.311.655-.068,1.287-.153,1.918-.239.05-.663.105-1.377.168-2.2-.434.053-.874.1-1.316.145.035-.122.068-.249.1-.372-.6-.011-1.209-.037-1.822-.074-.048.2-.1.412-.145.611-.523.035-1.06.055-1.592.081-.383.02-.76.046-1.147.061.061-.324.125-.659.186-1q-.848-.1-1.7-.232c-.04.353-.081.7-.123,1.036-.009.076-.018.155-.026.23h-.013c-.309.005-.622.005-.93.005-.287,0-.576,0-.86-.005h-.087c-.064-.536-.129-1.1-.195-1.668-.613-.125-1.224-.263-1.837-.411.121.705.245,1.388.368,2.038-.21-.009-.412-.026-.622-.037-.609-.029-1.217-.063-1.813-.107-.1-.007-.2-.011-.3-.018-.2-.8-.394-1.657-.571-2.542l-.031-.155q-1.055-.326-2.1-.7c.051.236.1.469.16.7.208.878.434,1.725.674,2.533-.234-.026-.464-.055-.7-.083q-1.01-.116-1.982-.26l-.236-.033c-.364-.814-.705-1.675-1.023-2.575-.2-.578-.4-1.176-.582-1.784q-1.278-.591-2.52-1.255c.033.112.068.219.1.331.23.79.479,1.559.745,2.3.326.9.674,1.767,1.049,2.594-.285-.055-.561-.114-.839-.173-.532-.112-1.053-.228-1.559-.353a33.281,33.281,0,0,1-2.358-5.044c-.083-.225-.173-.444-.254-.674.114.039.234.074.348.112.757.258,1.541.493,2.349.716.05.015.1.029.149.042a39.746,39.746,0,0,1-6.135-4.12c-.065-.028-.127-.057-.19-.085-.582-.256-1.143-.521-1.668-.8-.226-.114-.442-.228-.653-.348-.123-.453-.237-.915-.342-1.379a32.461,32.461,0,0,1-2.8-3.278c.064.565.138,1.127.23,1.682q.1.591.214,1.171c-.053-.042-.1-.085-.149-.127a12.1,12.1,0,0,1-1.833-1.841,28.564,28.564,0,0,1-.383-3.8,29.4,29.4,0,0,1-2.122-4.475,29.008,29.008,0,0,0-.2,3.455,29.329,29.329,0,0,0,.42,5q.18,1.049.429,2.067.3,1.24.694,2.428a29.618,29.618,0,0,0,4.073,7.987c.088.127.188.239.28.364a29.651,29.651,0,0,0,11.241,9.229,31.63,31.63,0,0,0,5.4,1.878,30.336,30.336,0,0,0,4.3.889c.315.042.631.079.948.112.475.046.954.081,1.434.109.42.02.839.035,1.263.04.122,0,.239.006.361.006.319,0,.633-.02.95-.031.079,0,.158,0,.237-.005a30.76,30.76,0,0,0,19.306-7.917,29.482,29.482,0,0,0,3.714-4.079A105.907,105.907,0,0,1,776.2,337.5C776.313,335.76,776.4,334.513,776.49,333.2Zm-31.817-7.834c-.173-.116-.346-.234-.5-.346a28.47,28.47,0,0,1-3.354-7.921,15.32,15.32,0,0,0,1.71,1.64c.1.085.2.168.3.25.179.663.381,1.313.6,1.951.271.8.576,1.572.9,2.329.4.93.821,1.833,1.291,2.691C745.273,325.766,744.963,325.567,744.673,325.37Zm3.335,4.554c-.624-.646-1.23-1.307-1.791-2.01.28.169.573.331.88.491.374.56.768,1.088,1.169,1.6.234.3.467.6.709.887C748.641,330.583,748.326,330.252,748.008,329.924Zm1.83-2.111c-.3-.1-.6-.214-.884-.32a31.736,31.736,0,0,1-3.229-6.593c.655.368,1.364.714,2.1,1.047.138.064.271.129.411.191.1.32.215.631.326.946.276.792.571,1.57.893,2.321q.6,1.414,1.3,2.712Q750.285,327.968,749.838,327.813Zm4.473,5.813-.057-.018a25.165,25.165,0,0,1-2.7-2.664c-.123-.138-.241-.287-.363-.429-.14-.166-.284-.328-.422-.5.059.02.121.039.18.061.4.144.808.283,1.23.416.158.241.322.475.486.707a24.146,24.146,0,0,0,2.014,2.507.6.6,0,0,0,.046.052C754.578,333.716,754.443,333.672,754.311,333.626Zm3.711,1.009c-.153-.133-.3-.282-.455-.425a21.432,21.432,0,0,1-2.551-2.918c.285.068.585.127.876.191.375.085.744.173,1.128.249.048.085.1.166.145.249a22.709,22.709,0,0,0,1.563,2.384c.077.1.153.206.23.3.05.064.1.123.146.184C758.732,334.782,758.371,334.714,758.022,334.635Zm3.626.613-.285-.033a17.326,17.326,0,0,1-1.112-1.487c-.343-.5-.674-1.036-.994-1.6.5.075,1.027.134,1.545.2.186.022.366.05.552.072.134.017.261.037.394.052.041.11.083.226.125.335.263.694.547,1.333.843,1.94.11.23.219.469.335.685C762.57,335.362,762.106,335.307,761.648,335.248Zm2.43,2.476c.175.018.35.037.528.052a7.8,7.8,0,0,0,.556.606A9.314,9.314,0,0,1,764.078,337.724Zm.532-2.185a23.433,23.433,0,0,1-1.114-2.921c.839.064,1.7.116,2.564.144q.254,1.124.5,2.076c.059.241.118.473.177.694l.03.116-.044,0c-.379-.009-.745-.035-1.117-.055C765.269,335.572,764.932,335.563,764.609,335.539Zm2.01,3q-.179-.166-.37-.375c-.083-.088-.162-.19-.245-.291.473.029.95.042,1.432.053.086.247.166.471.243.664C767.326,338.583,766.969,338.563,766.62,338.541Zm1.579-.6v-.015h0Zm.285-2.277c-.127,0-.256,0-.383,0-.039,0-.076,0-.114,0h-.068c-.11-.839-.239-1.8-.377-2.872.215.006.436.006.653.006s.444,0,.665-.006c-.092.718-.18,1.381-.261,1.993C768.558,335.093,768.519,335.391,768.484,335.668Zm1.668,2.5a4.466,4.466,0,0,1-.409.407c-.339.017-.677.024-1.022.024.072-.193.151-.414.239-.666.486-.009.959-.026,1.43-.05C770.312,337.981,770.229,338.077,770.152,338.165Zm1.088.215a7.759,7.759,0,0,0,.547-.591c.175-.02.348-.039.523-.052A10.313,10.313,0,0,1,771.24,338.381Zm.541-2.813c-.4.024-.823.037-1.237.053-.3.011-.6.029-.909.039.081-.3.162-.611.243-.937.151-.6.3-1.254.458-1.955q1.3-.041,2.564-.136A24.189,24.189,0,0,1,771.781,335.568Z" transform="translate(-737.641 -279.921)" fill="#fff"/>
        <path id="Path_31784" data-name="Path 31784" d="M798.49,325.31a29.38,29.38,0,0,0,.155-3.026,30.043,30.043,0,0,0-5.616-17.491,29.552,29.552,0,0,0-7.295-7.168,30.2,30.2,0,0,0-26.746-4.018,32.3,32.3,0,0,0-4.326,1.592,29.167,29.167,0,0,0-3.781,2.124,4.826,4.826,0,0,0-.959.556,2.466,2.466,0,0,0-.51.48,30.033,30.033,0,0,0-4.142,3.79,29.26,29.26,0,0,0-2.13,2.643,28.414,28.414,0,0,0-2.146,3.47c-.112-.265-.217-.539-.326-.81a38.2,38.2,0,0,1-2.3-8.782,39.187,39.187,0,0,0-.548,8.591c1.137,22.619,23.806,32.875,40.848,32.723-.243,3.067-.35,4.6-.55,7.67a106.272,106.272,0,0,0,28.2-18.682c.725-.664,1.451-1.336,2.168-2.028A71.546,71.546,0,0,1,798.49,325.31Zm-3.31-11.227a28.551,28.551,0,0,1,1.084,5.749c.028.317.061.631.077.952a8.7,8.7,0,0,1-1.716,1.734c0-.077,0-.156,0-.234a33.79,33.79,0,0,0-.679-6.805,7.819,7.819,0,0,0,.975-1.04C795.018,314.321,795.1,314.2,795.18,314.084Zm-3.078-6.9a28.678,28.678,0,0,1,2.73,5.8c-.046.063-.094.133-.144.2s-.107.118-.156.177a6.083,6.083,0,0,1-.865.836,32.647,32.647,0,0,0-2.209-6.253c.063-.063.116-.127.175-.19A5.62,5.62,0,0,0,792.1,307.185Zm-4.066,3c.6-.291,1.152-.587,1.662-.9.039.088.072.182.11.272a31.816,31.816,0,0,1,1.879,5.922c-.074.04-.162.079-.237.12-.6.313-1.252.615-1.964.906A38.133,38.133,0,0,0,788.036,310.185Zm-1.2-9.32a28.762,28.762,0,0,1,4.488,5.13c.083.118.166.237.249.363a3.611,3.611,0,0,1-.539.534c-.024.018-.042.039-.068.059-.1-.2-.206-.377-.309-.567-.127-.232-.25-.471-.383-.7a28.783,28.783,0,0,0-3.455-4.79Zm-1.39,1.4a30.2,30.2,0,0,1,3.243,4.955c.145.276.3.545.436.83-.182.087-.377.173-.572.258-.324.142-.659.282-1.011.416a34.258,34.258,0,0,0-2.739-5.752l-.022-.04c-.039-.061-.074-.129-.11-.19C784.934,302.59,785.2,302.43,785.445,302.266Zm-2.848,6.9a40.694,40.694,0,0,0-1.622-4.955c.667-.2,1.3-.412,1.905-.648.149.26.291.532.435.8a34.371,34.371,0,0,1,2.212,5.058c-.162.052-.337.1-.5.147-.648.191-1.324.377-2.034.55-.048.013-.092.026-.14.037C782.772,309.817,782.683,309.489,782.6,309.161Zm.891,4.121c-.074-.431-.149-.86-.232-1.283.987-.293,1.922-.609,2.789-.948.1.331.184.67.272,1.009a39.215,39.215,0,0,1,1.009,5.226l-.083.026c-.685.221-1.41.429-2.155.628-.335.09-.661.18-1.007.265C783.959,316.521,783.756,314.877,783.488,313.283Zm-2.325-15.219a24.188,24.188,0,0,1,3.3,3.05,5.782,5.782,0,0,1-.666.3,24.134,24.134,0,0,0-2.907-3.5c-.065-.064-.129-.134-.193-.2C780.854,297.824,781.008,297.948,781.163,298.064Zm-4.528-1.677c.5.368,1.005.777,1.51,1.23a21.943,21.943,0,0,1,3.792,4.414c-.153.042-.311.081-.468.122-.182.048-.366.1-.556.138-.232.057-.466.112-.709.164q-.618-1.3-1.312-2.461c-.02-.035-.042-.072-.063-.109a22.054,22.054,0,0,0-1.5-2.189c-.326-.433-.666-.836-1.005-1.207C776.425,296.455,776.528,296.424,776.635,296.387Zm-.2,10.474c-.107-.55-.221-1.092-.34-1.618,1.033-.151,2.029-.329,2.978-.547.164.442.32.895.473,1.355a44.776,44.776,0,0,1,1.224,4.561l-.344.061c-.672.129-1.366.247-2.076.355-.4.063-.8.125-1.2.179C776.946,309.7,776.708,308.245,776.434,306.861Zm-1.745-9.982a16.228,16.228,0,0,1,1.344,1.758,22.959,22.959,0,0,1,1.359,2.273c.318.6.628,1.231.918,1.9-.305.048-.624.092-.939.136-.587.083-1.182.16-1.8.223-.353-1.285-.738-2.487-1.161-3.588a24.172,24.172,0,0,0-1.1-2.483C773.776,297.035,774.234,296.961,774.689,296.878Zm-3.335,8.828c.963-.05,1.905-.129,2.826-.225.1.561.2,1.143.3,1.734.213,1.351.4,2.768.554,4.245-.061.006-.121.007-.182.013-.679.068-1.377.118-2.076.164-.223.015-.438.041-.665.052q-.215-2.154-.486-4.121C771.536,306.934,771.446,306.308,771.354,305.706Zm.944,8.217c1-.068,1.979-.164,2.932-.28.157,1.924.263,3.923.307,5.982-.688.068-1.4.114-2.109.162-.278.02-.545.048-.826.063-.031-1.4-.1-2.756-.182-4.086C772.381,315.148,772.346,314.523,772.3,313.923Zm.6-13.824c.3,1,.587,2.073.845,3.231-.249.018-.508.026-.757.04-.578.037-1.158.072-1.752.1-.085,0-.164.009-.25.013-.14-.8-.285-1.568-.431-2.3-.285-1.43-.578-2.71-.858-3.807.734-.024,1.458-.059,2.174-.125.226.517.444,1.082.65,1.682C772.651,299.31,772.778,299.695,772.9,300.1Zm-4.7,13.966c.65,0,1.294-.007,1.931-.031.107,1.894.184,3.869.221,5.9q-1.038.025-2.1.013c-.04,0-.083,0-.123,0-.775-.006-1.546-.018-2.308-.042.024-1.3.068-2.559.121-3.8.031-.7.061-1.4.1-2.078C766.752,314.047,767.471,314.065,768.2,314.065Zm-2.014-2.3c.094-1.364.2-2.676.318-3.937.064-.7.131-1.388.2-2.049.368.013.734.018,1.108.024.56,0,1.114-.011,1.66-.029.064.631.127,1.283.188,1.946q.182,1.944.329,4.061c-.042,0-.087,0-.131,0-.549.011-1.1.022-1.659.022l-.4-.007C767.254,311.79,766.715,311.786,766.183,311.766Zm6.2-17-.026,0c-.169.009-.335.028-.506.035-.042-.053-.087-.1-.129-.155a8.209,8.209,0,0,0-.6-.663A10.485,10.485,0,0,1,772.386,294.763Zm-2.814-1.018a3.791,3.791,0,0,1,.464.453c.061.066.12.14.18.214.116.14.234.289.35.453q-.773.033-1.566.044c-.074-.236-.145-.453-.213-.652s-.136-.381-.2-.539C768.917,293.721,769.242,293.731,769.572,293.745Zm-1.489.677c.018.151.04.322.059.493h-.114C768.051,294.745,768.068,294.574,768.083,294.423Zm.04,2.987c.114,0,.227,0,.341,0,.079.6.164,1.254.256,1.953.16,1.244.333,2.64.51,4.167-.219,0-.436,0-.653,0-.252,0-.506.006-.76.006-.293,0-.582-.006-.871-.015h0v-.005c.27-2.384.541-4.445.76-6.109C767.849,297.407,767.985,297.41,768.123,297.41Zm-1.99-3.212.035-.037a4.747,4.747,0,0,1,.39-.385c.341-.022.679-.042,1.02-.051-.052.136-.107.293-.164.455-.076.219-.158.458-.245.729-.528-.013-1.047-.026-1.566-.044A7.3,7.3,0,0,1,766.133,294.2Zm-1.491.011c.136-.077.272-.16.4-.226-.07.066-.138.144-.206.215-.175.184-.346.379-.519.6-.175-.013-.353-.022-.528-.037C764.085,294.548,764.366,294.371,764.642,294.209Zm-1.141,5.154c.252-.768.521-1.474.8-2.113.712.064,1.436.1,2.17.129-.16.631-.326,1.324-.491,2.073-.269,1.206-.539,2.553-.8,4.024h-.033c-.545-.02-1.078-.046-1.611-.077-.374-.022-.745-.044-1.11-.072q.384-1.731.839-3.227C763.345,299.847,763.422,299.6,763.5,299.363Zm-1.94,14.306c.758.09,1.528.169,2.31.226-.147,1.9-.258,3.873-.305,5.916-.663-.039-1.307-.092-1.957-.144-.324-.024-.659-.039-.977-.068.03-1.279.088-2.525.16-3.755.044-.751.09-1.5.149-2.227l0-.02C761.147,313.625,761.355,313.644,761.561,313.669Zm-.416-2.246q.2-1.96.484-3.766c.112-.74.23-1.467.359-2.167.918.09,1.868.166,2.827.215-.285,1.839-.541,3.84-.747,5.96-.613-.037-1.2-.1-1.8-.151C761.9,311.485,761.511,311.462,761.145,311.424Zm-1.01-12.788a15.866,15.866,0,0,1,1.36-1.771c.449.086.907.158,1.366.219a24.321,24.321,0,0,0-1.1,2.492q-.629,1.651-1.158,3.584c-.464-.048-.922-.1-1.369-.16q-.7-.088-1.364-.2a25.729,25.729,0,0,1,2.051-3.827C759.989,298.864,760.059,298.747,760.134,298.636ZM752.083,318.3c-.62-.144-1.217-.3-1.8-.457-.5-.136-.987-.276-1.454-.425.156-1.329.385-2.621.661-3.878.132-.589.274-1.171.431-1.743.07-.265.138-.536.215-.8.429.164.869.324,1.323.479.475.16.963.315,1.467.466A52.245,52.245,0,0,0,752.083,318.3Zm-.145-8.548c-.44-.12-.869-.243-1.281-.366a34.822,34.822,0,0,1,1.408-3.455c.271-.576.554-1.132.847-1.673.123-.223.239-.451.364-.668.3.118.617.23.935.339s.642.21.974.309a41.174,41.174,0,0,0-1.857,5.868C752.849,309.988,752.387,309.87,751.938,309.749Zm2.735,5.18c.088-.687.188-1.368.3-2.036.022-.127.04-.256.063-.381.644.158,1.312.3,2,.442.574.116,1.16.226,1.758.328-.2,1.955-.341,3.993-.405,6.084-.653-.077-1.3-.166-1.927-.26-.733-.107-1.449-.221-2.146-.35C754.386,317.45,754.513,316.177,754.673,314.928Zm4.357-3.762c-.576-.081-1.139-.168-1.693-.26-.657-.11-1.3-.226-1.927-.35.269-1.228.578-2.406.92-3.54.208-.687.429-1.357.661-2,.035-.1.068-.2.1-.293q.74.163,1.517.3c.479.085.964.164,1.46.234C759.654,307.093,759.3,309.073,759.03,311.166Zm-1.005-13.55c.514-.464,1.027-.876,1.531-1.252.107.041.212.074.307.1a15.315,15.315,0,0,0-1.022,1.226,25.421,25.421,0,0,0-2.879,4.753c-.289-.059-.574-.125-.854-.191-.3-.074-.591-.151-.874-.23a24.638,24.638,0,0,1,1.872-2.474A19.291,19.291,0,0,1,758.025,297.616Zm-2.551.1a24.093,24.093,0,0,0-3.1,3.689c-.116-.046-.23-.092-.335-.138l-.017-.009c-.1-.04-.2-.088-.3-.134l-.017-.007A23.516,23.516,0,0,1,755.474,297.714Zm-5.53,5.568c.245-.331.492-.663.744-.976.1.07.215.133.322.2s.2.125.293.18a1.582,1.582,0,0,0,.175.092,33.489,33.489,0,0,0-2.835,5.92c-.363-.133-.7-.269-1.027-.409-.193-.083-.385-.164-.567-.247a31.551,31.551,0,0,1,1.988-3.457Q749.478,303.914,749.944,303.282Zm-4.074,1.423a28.153,28.153,0,0,1,3.172-3.45,28.935,28.935,0,0,0-3.144,4.432c-.248.418-.477.854-.707,1.292a4.769,4.769,0,0,1-.541-.471l-.028-.031-.024-.028C745,305.85,745.427,305.272,745.871,304.705Zm-3.6,6.183-.046-.088c.127-.291.252-.585.388-.871.155-.32.32-.633.486-.948.311-.589.637-1.173.988-1.738.009.015.024.029.035.044a5.518,5.518,0,0,0,.589.657,32.3,32.3,0,0,0-1.662,4.3C742.782,311.8,742.524,311.348,742.274,310.888Zm2.962,4.458c-.186-.232-.376-.457-.556-.694q.342-1.43.8-2.787c.156-.462.32-.92.5-1.369.164-.42.329-.834.508-1.239.18.109.377.215.573.322.346.19.705.377,1.088.56a38.546,38.546,0,0,0-1.482,6.492c-.2-.079-.372-.166-.558-.25C745.81,316.046,745.521,315.7,745.236,315.346Zm4.826,4.74c-.289-.225-.576-.451-.858-.687.294.1.587.208.891.306q.914.293,1.881.556c-.011.394-.015.793-.02,1.191C751.308,321.023,750.678,320.565,750.062,320.086Zm6.231,3.762c-.293-.134-.584-.276-.873-.42-.4-.2-.806-.409-1.2-.626,0-.175-.011-.344-.011-.519q0-.585.015-1.165c0-.1,0-.212,0-.317.69.149,1.4.285,2.124.412q.978.171,1.986.311c0,.254,0,.5,0,.758,0,.819.017,1.629.039,2.434Q757.316,324.314,756.293,323.849Zm5.224,1.913c-.291-.083-.58-.171-.869-.261-.013-.488-.017-.987-.024-1.482-.009-.578-.026-1.15-.026-1.734v-.477c.959.1,1.942.182,2.936.247v.23c0,1.364.037,2.695.088,4.006Q762.56,326.052,761.517,325.761Zm6.78,1.311q-1.215-.135-2.415-.335-.039-1.229-.059-2.491c-.009-.652-.024-1.3-.026-1.962,0-.042.006-.079.006-.12.762.028,1.531.046,2.312.05.758.009,1.509,0,2.259-.022v.092c0,1.7-.044,3.347-.1,4.963Q769.283,327.178,768.3,327.072Zm5.195.285c-.331,0-.661,0-.992-.011q.083-1.665.109-3.391c.011-.558.026-1.106.026-1.671v-.193c1-.064,1.979-.147,2.936-.256,0,.151.006.3.006.449,0,1.714-.052,3.389-.127,5.033C774.8,327.342,774.142,327.357,773.491,327.357Zm6.963-6.124c-.208,1.828-.372,3.387-.611,5.73-.615.077-1.231.142-1.85.2-.1.009-.2.013-.3.022q.1-1.941.125-3.95c0-.317.015-.63.015-.948,0-.252,0-.5-.006-.744.272-.04.53-.092.8-.136.041-.353.085-.723.131-1.115.492.283.987.558,1.48.828.079-.018.155-.033.234-.05Zm.346-2.988c-.026.228-.052.447-.077.661-.342.063-.679.125-1.029.182-.626.1-1.259.2-1.907.282-.048-1.508-.142-2.969-.261-4.407-.044-.545-.083-1.1-.138-1.631,1.312-.217,2.57-.473,3.763-.762.081.468.155.942.225,1.421.175,1.2.311,2.426.41,3.681.026.342.055.681.075,1.027-.061.013-.125.022-.188.035C781.382,318.571,781.091,318.413,780.8,318.246Zm3.521,1.9c1.115-.32,2.181-.672,3.179-1.047.063.85.092,1.716.1,2.586Q785.951,320.962,784.322,320.141Zm5.979,2.642-.429-.167c0-.11,0-.221,0-.331.009-1.082-.042-2.144-.121-3.2-.022-.3-.037-.613-.064-.915l.344-.164a21.854,21.854,0,0,0,1.925-1.06c.024.155.044.311.066.466q.179,1.207.267,2.452c.055.8.085,1.6.076,2.419,0,.418-.011.832-.022,1.246C791.661,323.295,790.978,323.042,790.3,322.783Zm4.271,1.467,0-.044a11.515,11.515,0,0,0,1.8-1.808c0,.788-.041,1.572-.107,2.345C795.7,324.587,795.136,324.423,794.571,324.25Z" transform="translate(-737.524 -292.12)" fill="#fff"/>
      </g>
      <g id="Group_6951" data-name="Group 6951" transform="translate(400.857 456.79)" style="mix-blend-mode: overlay;isolation: isolate">
        <circle id="Ellipse_355" data-name="Ellipse 355" cx="75.323" cy="75.323" r="75.323" fill="url(#radial-gradient-8)" style="mix-blend-mode: multiply;isolation: isolate"/>
        <rect id="Rectangle_3566" data-name="Rectangle 3566" width="111.757" height="111.757" rx="5.169" transform="translate(19.445 2.292)" fill="url(#linear-gradient-6)"/>
        <path id="Path_31785" data-name="Path 31785" d="M800.783,397.873V490.6a9.541,9.541,0,0,1-9.515,9.513H698.539" transform="translate(-669.581 -386.067)" fill="none" stroke="#707070" stroke-miterlimit="10" stroke-width="1.034" style="mix-blend-mode: overlay;isolation: isolate"/>
      </g>
      <g id="Group_6952" data-name="Group 6952" transform="translate(400.151 336.068)" style="mix-blend-mode: multiply;isolation: isolate">
        <circle id="Ellipse_356" data-name="Ellipse 356" cx="59.249" cy="59.249" r="59.249" fill="url(#radial-gradient-8)" style="mix-blend-mode: multiply;isolation: isolate"/>
        <rect id="Rectangle_3567" data-name="Rectangle 3567" width="87.908" height="87.908" rx="4.066" transform="translate(15.295 1.802)" fill="url(#linear-gradient-3)"/>
        <path id="Path_31786" data-name="Path 31786" d="M775.222,330.921v72.941a7.5,7.5,0,0,1-7.482,7.483H694.8" transform="translate(-672.02 -321.634)" fill="none" stroke="#707070" stroke-miterlimit="10" stroke-width="0.813" style="mix-blend-mode: overlay;isolation: isolate"/>
      </g>
      <g id="Group_6953" data-name="Group 6953" transform="translate(541.326 502.231)" style="mix-blend-mode: multiply;isolation: isolate">
        <circle id="Ellipse_357" data-name="Ellipse 357" cx="47.712" cy="47.712" r="47.712" fill="url(#radial-gradient-10)" style="mix-blend-mode: multiply;isolation: isolate"/>
        <rect id="Rectangle_3568" data-name="Rectangle 3568" width="70.791" height="70.791" rx="3.274" transform="translate(12.317 1.452)" fill="url(#linear-gradient-3)"/>
        <path id="Path_31787" data-name="Path 31787" d="M833.848,420.208v58.738a6.045,6.045,0,0,1-6.027,6.027H769.084" transform="translate(-750.74 -412.73)" fill="none" stroke="#707070" stroke-miterlimit="10" stroke-width="0.655" style="mix-blend-mode: overlay;isolation: isolate"/>
      </g>
      <path id="Path_31788" data-name="Path 31788" d="M732.788,262.813a15.756,15.756,0,0,0-9.631-10.724,24.535,24.535,0,0,0-22.006,2.259,21.7,21.7,0,0,0-4.19,3.608c-3.928,4.361-6.139,10.336-6.314,17.338-.2,8.085,3.177,14.476,9.52,18a22.1,22.1,0,0,0,19.989.4,18.08,18.08,0,0,0,1.861-1.071l-2.553-3.877a17.319,17.319,0,0,1-17.047.488c-3.365-1.867-7.332-5.78-7.129-13.824.167-6.778,2.367-11.239,4.935-14.155a17.348,17.348,0,0,1,3.481-3.028,19.8,19.8,0,0,1,17.73-1.826,11.128,11.128,0,0,1,6.886,7.67,17.177,17.177,0,0,1-2.327,13.888,8.406,8.406,0,0,1-1.736,1.793,1.749,1.749,0,0,1-1.555.438,1.782,1.782,0,0,1-.983-1.546c.05-.611.2-1.7.412-3.017.053-.153.1-.3.153-.458l-.077-.026c.578-3.542,1.495-8.466,1.922-10.682l.348-1.8L722.8,261.9a17.565,17.565,0,0,0-17.743,2.984,14.311,14.311,0,0,0-1.839,1.8,12.4,12.4,0,0,0-2.912,10.387,9.086,9.086,0,0,0,6.2,7.16,11.64,11.64,0,0,0,11.466-2.369,6.206,6.206,0,0,0,3.1,2.664c1.092.41,3.606.911,6.478-1.474a13.38,13.38,0,0,0,2.159-2.312C733.182,276.106,734.448,268.734,732.788,262.813Zm-15.164,11.611a10.288,10.288,0,0,1-3.131,4.324,6.957,6.957,0,0,1-6.623,1.047,4.462,4.462,0,0,1-3.011-3.61,7.845,7.845,0,0,1,1.7-6.249,9.3,9.3,0,0,1,1.425-1.452,13.245,13.245,0,0,1,8.506-3.138,13.074,13.074,0,0,1,2.693.28C718.767,267.862,718.1,271.5,717.624,274.424Z" transform="translate(-275.365 -53.21)" fill="#fff"/>
      <g id="Group_6954" data-name="Group 6954" transform="translate(439.118 356.576)">
        <path id="Path_31789" data-name="Path 31789" d="M706.693,345.807h-1.049c-1.128.1-2.05,1.673-2.05,3.488v1.4c0,1.815.918,3.177,2.041,3.028h1.058a18.242,18.242,0,0,1,18.221,18.22V373c-.146,1.123,1.215,2.043,3.03,2.043h1.4c1.815,0,3.387-.926,3.49-2.051v-1.055A26.167,26.167,0,0,0,706.693,345.807Z" transform="translate(-703.593 -329.627)" fill="#fff"/>
        <path id="Path_31790" data-name="Path 31790" d="M710.188,354.523a6.6,6.6,0,1,0,6.6,6.6A6.6,6.6,0,0,0,710.188,354.523Z" transform="translate(-703.593 -322.299)" fill="#fff"/>
        <path id="Path_31791" data-name="Path 31791" d="M706.693,337.017c-.184,0-.372,0-.554,0l-.856.015c-.931.059-1.69,1.592-1.69,3.407v1.344c0,1.811.786,3.238,1.749,3.166l.891-.015c.153,0,.306,0,.46,0a34.438,34.438,0,0,1,34.4,34.4q0,.48-.016.95l-.02.723c-.059.788,1.373,1.432,3.188,1.432h1.34c1.813,0,3.343-.648,3.394-1.437l.017-.725c.009-.313.015-.626.015-.942A42.363,42.363,0,0,0,706.693,337.017Z" transform="translate(-703.593 -337.017)" fill="#fff"/>
      </g>
      <g id="Group_6955" data-name="Group 6955" transform="translate(454.985 485.646)">
        <path id="Path_31792" data-name="Path 31792" d="M733.747,421.948a6.878,6.878,0,1,0-6.877,6.877A6.879,6.879,0,0,0,733.747,421.948Z" transform="translate(-705.674 -400.466)" fill="#fff"/>
        <path id="Path_31793" data-name="Path 31793" d="M735.262,436.839c-1.579,1.671-2.943,3-3.889,3.888a3.313,3.313,0,0,1-2.292.944,3.5,3.5,0,0,1-2.435-1.033c-.928-.874-2.253-2.168-3.794-3.8-3.28.687-5.463,1.905-5.463,3.293,0,2.146,5.224,3.888,11.668,3.888s11.665-1.741,11.665-3.888C740.722,438.744,738.543,437.527,735.262,436.839Z" transform="translate(-707.861 -382.164)" fill="#fff"/>
        <path id="Path_31794" data-name="Path 31794" d="M729.6,461.428h0c.136.14.269.278.4.41l.064.064c.1.107.206.212.309.313.031.033.061.063.092.094.1.1.19.19.28.282l.075.072c.228.23.447.444.652.642l.081.077c.07.068.138.134.206.2.033.033.066.064.1.1l.182.175.085.081.236.225a2.168,2.168,0,0,0,.258.208.842.842,0,0,0,.086.052,1.259,1.259,0,0,0,.173.1,1.007,1.007,0,0,0,.107.039.923.923,0,0,0,.156.053.579.579,0,0,0,.11.017,1.065,1.065,0,0,0,.151.018l.024,0c.039,0,.077-.009.116-.013a1.024,1.024,0,0,0,.1-.011,1.094,1.094,0,0,0,.145-.042,1,1,0,0,0,.1-.031,1.2,1.2,0,0,0,.158-.085c.026-.015.052-.026.077-.041a2.172,2.172,0,0,0,.225-.18c.079-.074.16-.153.247-.234l.054-.052.236-.223.046-.044c.3-.291.644-.622,1.02-.994l.011-.013q.56-.555,1.208-1.22l.037-.037h0c6.1-6.288,17.393-19.641,17.393-32.336,0-12.125-9.962-21.956-21.194-21.956s-21.2,9.831-21.2,21.956c0,12.7,11.291,26.048,17.389,32.336ZM722,428.617a11.405,11.405,0,1,1,11.407,11.405A11.405,11.405,0,0,1,722,428.617Z" transform="translate(-712.213 -407.136)" fill="#fff"/>
      </g>
      <g id="Group_6956" data-name="Group 6956" transform="translate(568.861 517.655)">
        <path id="Path_31795" data-name="Path 31795" d="M780.863,443.039c2.143,5.093,6.223,7.864,8.946,7.864,2.673,0,6.422-2.678,8.594-7.705a23.342,23.342,0,0,0,1.3-4.3,17.133,17.133,0,0,0,.55-4.742c0-5.222-4.675-9.627-10.444-9.627s-10.442,4.4-10.442,9.627a22.938,22.938,0,0,0,.241,3.542A20.8,20.8,0,0,0,780.863,443.039Z" transform="translate(-769.63 -424.525)" fill="#fff"/>
        <path id="Path_31796" data-name="Path 31796" d="M812.723,445.208c-2.089-2.233-7.958-1.673-10.86-3.207-1.29,2.413-1.307,6.378-3.45,6.378a1.729,1.729,0,0,1-.285-.022c-3.229-.484-1.614-8.714-3.873-8.714s-.646,8.23-3.873,8.714a1.734,1.734,0,0,1-.287.022c-2.141,0-2.159-3.965-3.45-6.378-2.9,1.533-8.769.974-10.849,3.207-1.132,1.209-1.719,8.7-1.719,12.026h40.354C814.431,453.906,813.848,446.418,812.723,445.208Z" transform="translate(-774.077 -411.814)" fill="#fff"/>
      </g>
      <text id="TECHNOLOGY" transform="translate(491.578 261.771)" fill="#fff" font-size="10" font-family="SegoeUI, Segoe UI"><tspan x="0" y="0">TECHNOLOGY</tspan></text>
      <text id="OPTION" transform="translate(447.226 477.222)" fill="#fff" font-size="11" font-family="SegoeUI, Segoe UI"><tspan x="0" y="0">OPTION</tspan></text>
      <g id="Group_6959" data-name="Group 6959" transform="translate(306.912 127.169)">
        <g id="Group_6957" data-name="Group 6957" transform="translate(63.444 85.141)">
          <path id="Path_31797" data-name="Path 31797" d="M694.8,456.343c-5.023,6.562-14.453,9.314-21.062,6.146s-7.895-11.054-2.872-17.618,14.454-9.314,21.062-6.148S699.827,449.78,694.8,456.343Z" transform="translate(-664.919 -108.348)" fill="url(#radial-gradient-11)" style="mix-blend-mode: color-dodge;isolation: isolate"/>
          <path id="Path_31798" data-name="Path 31798" d="M758.607,431.133c-5.023,6.562-14.453,9.314-21.062,6.146s-7.9-11.055-2.872-17.618,14.453-9.316,21.062-6.148S763.631,424.569,758.607,431.133Z" transform="translate(-611.277 -129.543)" fill="url(#radial-gradient-12)" style="mix-blend-mode: color-dodge;isolation: isolate"/>
          <path id="Path_31799" data-name="Path 31799" d="M718.951,368.906c-5.023,6.562-14.453,9.314-21.062,6.148s-7.895-11.055-2.872-17.619,14.453-9.314,21.062-6.146S723.974,362.344,718.951,368.906Z" transform="translate(-644.617 -181.858)" fill="url(#radial-gradient-13)" style="mix-blend-mode: color-dodge;isolation: isolate"/>
          <path id="Path_31800" data-name="Path 31800" d="M780.675,387.537c-5.023,6.562-14.453,9.316-21.062,6.148s-7.895-11.056-2.872-17.62,14.453-9.314,21.062-6.146S785.7,380.975,780.675,387.537Z" transform="translate(-592.724 -166.194)" fill="url(#radial-gradient-14)" style="mix-blend-mode: color-dodge;isolation: isolate"/>
          <path id="Path_31801" data-name="Path 31801" d="M751.187,277.577c-5.023,6.562-14.453,9.314-21.064,6.146s-7.893-11.055-2.87-17.618,14.453-9.316,21.062-6.148S756.209,271.013,751.187,277.577Z" transform="translate(-617.515 -258.643)" fill="url(#radial-gradient-15)" style="mix-blend-mode: color-dodge;isolation: isolate"/>
          <path id="Path_31802" data-name="Path 31802" d="M717.813,449.521c-5.021,6.562-14.452,9.314-21.062,6.148s-7.893-11.055-2.87-17.62,14.452-9.314,21.062-6.146S722.837,442.959,717.813,449.521Z" transform="translate(-645.572 -114.082)" fill="url(#radial-gradient-16)" style="mix-blend-mode: color-dodge;isolation: isolate"/>
          <ellipse id="Ellipse_358" data-name="Ellipse 358" cx="29.125" cy="22.899" rx="29.125" ry="22.899" transform="translate(0 135.912) rotate(-28.35)" fill="url(#radial-gradient-17)" style="mix-blend-mode: color-dodge;isolation: isolate"/>
          <ellipse id="Ellipse_359" data-name="Ellipse 359" cx="29.125" cy="22.899" rx="29.125" ry="22.899" transform="translate(88.112 209.286) rotate(-28.35)" fill="url(#radial-gradient-18)" style="mix-blend-mode: color-dodge;isolation: isolate"/>
          <ellipse id="Ellipse_360" data-name="Ellipse 360" cx="29.126" cy="22.899" rx="29.126" ry="22.899" transform="translate(244.344 160.963) rotate(-28.35)" fill="url(#radial-gradient-19)" style="mix-blend-mode: color-dodge;isolation: isolate"/>
          <ellipse id="Ellipse_361" data-name="Ellipse 361" cx="29.125" cy="22.899" rx="29.125" ry="22.899" transform="translate(167.324 81.371) rotate(-28.35)" fill="url(#radial-gradient-20)" style="mix-blend-mode: color-dodge;isolation: isolate"/>
          <path id="Path_31803" data-name="Path 31803" d="M703.213,325.121c-5.023,6.562-14.453,9.314-21.062,6.148s-7.895-11.057-2.871-17.619,14.453-9.314,21.062-6.146S708.237,318.559,703.213,325.121Z" transform="translate(-657.849 -218.669)" fill="url(#radial-gradient-21)" style="mix-blend-mode: color-dodge;isolation: isolate"/>
          <path id="Path_31804" data-name="Path 31804" d="M752.768,466.274c-5.023,6.564-14.452,9.316-21.062,6.148s-7.893-11.055-2.87-17.618,14.452-9.316,21.062-6.148S757.792,459.712,752.768,466.274Z" transform="translate(-616.184 -99.997)" fill="url(#radial-gradient-22)" style="mix-blend-mode: color-dodge;isolation: isolate"/>
          <path id="Path_31805" data-name="Path 31805" d="M713.417,478.763c-7.295,9.53-20.988,13.528-30.586,8.928s-11.464-16.055-4.169-25.584,20.988-13.528,30.586-8.928S720.712,469.234,713.417,478.763Z" transform="translate(-659.533 -96.695)" fill="url(#radial-gradient-23)" style="mix-blend-mode: color-dodge;isolation: isolate"/>
          <ellipse id="Ellipse_362" data-name="Ellipse 362" cx="25.637" cy="20.157" rx="25.637" ry="20.157" transform="matrix(0.88, -0.475, 0.475, 0.88, 171.696, 280.478)" fill="url(#radial-gradient-24)" style="mix-blend-mode: color-dodge;isolation: isolate"/>
          <path id="Path_31806" data-name="Path 31806" d="M778.322,340.883c-5.023,6.562-14.453,9.316-21.064,6.148s-7.893-11.055-2.87-17.618,14.453-9.316,21.062-6.148S783.346,334.321,778.322,340.883Z" transform="translate(-594.702 -205.418)" fill="url(#radial-gradient-25)" style="mix-blend-mode: color-dodge;isolation: isolate"/>
          <path id="Path_31807" data-name="Path 31807" d="M770.533,301.516c-5.022,6.562-14.452,9.316-21.062,6.148s-7.893-11.056-2.87-17.62,14.452-9.314,21.062-6.146S775.556,294.954,770.533,301.516Z" transform="translate(-601.25 -238.515)" fill="url(#radial-gradient-26)" style="mix-blend-mode: color-dodge;isolation: isolate"/>
          <ellipse id="Ellipse_363" data-name="Ellipse 363" cx="13.99" cy="11.071" rx="13.99" ry="11.071" transform="translate(166.285 161.859)" fill="url(#radial-gradient-27)" style="mix-blend-mode: color-dodge;isolation: isolate"/>
          <path id="Path_31808" data-name="Path 31808" d="M740.912,407.89c-5.023,6.564-14.453,9.316-21.063,6.148s-7.893-11.055-2.87-17.618,14.453-9.316,21.062-6.148S745.934,401.328,740.912,407.89Z" transform="translate(-626.154 -149.083)" fill="url(#radial-gradient-28)" style="mix-blend-mode: color-dodge;isolation: isolate"/>
          <path id="Path_31809" data-name="Path 31809" d="M718.951,344.043c-5.023,6.562-14.453,9.314-21.062,6.146s-7.895-11.055-2.872-17.618,14.453-9.314,21.062-6.148S723.974,337.479,718.951,344.043Z" transform="translate(-644.617 -202.762)" fill="url(#radial-gradient-29)" style="mix-blend-mode: color-dodge;isolation: isolate"/>
        </g>
        <g id="Group_6958" data-name="Group 6958">
          <path id="Path_31810" data-name="Path 31810" d="M734.42,239.8a13.839,13.839,0,0,0-14.034-13.489A13.588,13.588,0,0,0,706.9,240.145a13.839,13.839,0,0,0,14.034,13.489A13.589,13.589,0,0,0,734.42,239.8Z" transform="translate(-568.608 -200.687)" fill="url(#radial-gradient-30)" style="mix-blend-mode: color-dodge;isolation: isolate"/>
          <path id="Path_31811" data-name="Path 31811" d="M772.805,286.257a13.839,13.839,0,0,0-14.036-13.489,13.588,13.588,0,0,0-13.483,13.837,13.838,13.838,0,0,0,14.034,13.489A13.589,13.589,0,0,0,772.805,286.257Z" transform="translate(-536.336 -161.627)" fill="url(#radial-gradient-31)" style="mix-blend-mode: color-dodge;isolation: isolate"/>
          <path id="Path_31812" data-name="Path 31812" d="M700.111,323.541a13.84,13.84,0,0,0-14.036-13.491,13.589,13.589,0,0,0-13.484,13.837,13.839,13.839,0,0,0,14.034,13.491A13.591,13.591,0,0,0,700.111,323.541Z" transform="translate(-597.452 -130.283)" fill="url(#radial-gradient-32)" style="mix-blend-mode: color-dodge;isolation: isolate"/>
          <path id="Path_31813" data-name="Path 31813" d="M764.216,331.947a13.838,13.838,0,0,0-14.034-13.489A13.589,13.589,0,0,0,736.7,332.293a13.839,13.839,0,0,0,14.034,13.491A13.591,13.591,0,0,0,764.216,331.947Z" transform="translate(-543.557 -123.214)" fill="url(#radial-gradient-33)" style="mix-blend-mode: color-dodge;isolation: isolate"/>
          <ellipse id="Ellipse_364" data-name="Ellipse 364" cx="13.643" cy="13.783" rx="13.643" ry="13.783" transform="translate(15.9 366.744) rotate(-67.19)" fill="url(#radial-gradient-34)" style="mix-blend-mode: color-dodge;isolation: isolate"/>
          <ellipse id="Ellipse_365" data-name="Ellipse 365" cx="13.643" cy="13.783" rx="13.643" ry="13.783" transform="translate(162.161 73.804) rotate(-67.173)" fill="url(#radial-gradient-35)" style="mix-blend-mode: color-dodge;isolation: isolate"/>
          <ellipse id="Ellipse_366" data-name="Ellipse 366" cx="25.273" cy="25.532" rx="25.273" ry="25.532" transform="translate(9.098 229.863) rotate(-67.182)" fill="url(#radial-gradient-36)" style="mix-blend-mode: color-dodge;isolation: isolate"/>
          <ellipse id="Ellipse_367" data-name="Ellipse 367" cx="25.273" cy="25.532" rx="25.273" ry="25.532" transform="translate(129.937 202.135) rotate(-67.182)" fill="url(#radial-gradient-37)" style="mix-blend-mode: color-dodge;isolation: isolate"/>
          <ellipse id="Ellipse_368" data-name="Ellipse 368" cx="25.273" cy="25.532" rx="25.273" ry="25.532" transform="translate(232.333 304.51) rotate(-67.181)" fill="url(#radial-gradient-38)" style="mix-blend-mode: color-dodge;isolation: isolate"/>
          <ellipse id="Ellipse_369" data-name="Ellipse 369" cx="25.273" cy="25.532" rx="25.273" ry="25.532" transform="translate(117.017 341.874) rotate(-67.181)" fill="url(#radial-gradient-39)" style="mix-blend-mode: color-dodge;isolation: isolate"/>
          <path id="Path_31814" data-name="Path 31814" d="M659.292,354.549a13.837,13.837,0,0,0-14.034-13.489A13.59,13.59,0,0,0,631.773,354.9a13.839,13.839,0,0,0,14.036,13.489A13.588,13.588,0,0,0,659.292,354.549Z" transform="translate(-631.77 -104.212)" fill="url(#radial-gradient-40)" style="mix-blend-mode: color-dodge;isolation: isolate"/>
          <path id="Path_31815" data-name="Path 31815" d="M789.88,254.119a13.839,13.839,0,0,0-14.034-13.491,13.591,13.591,0,0,0-13.485,13.837A13.839,13.839,0,0,0,776.4,267.954,13.588,13.588,0,0,0,789.88,254.119Z" transform="translate(-521.981 -188.648)" fill="url(#radial-gradient-41)" style="mix-blend-mode: color-dodge;isolation: isolate"/>
          <path id="Path_31816" data-name="Path 31816" d="M762.783,231.98a20.1,20.1,0,0,0-20.38-19.589,19.735,19.735,0,0,0-19.582,20.093A20.1,20.1,0,0,0,743.2,252.073,19.733,19.733,0,0,0,762.783,231.98Z" transform="translate(-555.225 -212.389)" fill="url(#radial-gradient-42)" style="mix-blend-mode: color-dodge;isolation: isolate"/>
          <ellipse id="Ellipse_370" data-name="Ellipse 370" cx="22.246" cy="22.474" rx="22.246" ry="22.474" transform="translate(245.365 171.799) rotate(-67.172)" fill="url(#radial-gradient-43)" style="mix-blend-mode: color-dodge;isolation: isolate"/>
          <path id="Path_31817" data-name="Path 31817" d="M732.967,370.649a13.839,13.839,0,0,0-14.034-13.491A13.591,13.591,0,0,0,705.448,371a13.84,13.84,0,0,0,14.036,13.491A13.589,13.589,0,0,0,732.967,370.649Z" transform="translate(-569.829 -90.678)" fill="url(#radial-gradient-44)" style="mix-blend-mode: color-dodge;isolation: isolate"/>
          <path id="Path_31818" data-name="Path 31818" d="M701.671,401.026a13.839,13.839,0,0,0-14.036-13.489,13.588,13.588,0,0,0-13.483,13.837,13.837,13.837,0,0,0,14.034,13.489A13.591,13.591,0,0,0,701.671,401.026Z" transform="translate(-596.141 -65.137)" fill="url(#radial-gradient-45)" style="mix-blend-mode: color-dodge;isolation: isolate"/>
          <path id="Path_31819" data-name="Path 31819" d="M751.658,351.288c-.12-6.014-6.378-10.811-13.979-10.715s-13.66,5.049-13.539,11.063,6.378,10.809,13.979,10.713S751.779,357.3,751.658,351.288Z" transform="translate(-554.113 -104.622)" fill="url(#radial-gradient-46)" style="mix-blend-mode: color-dodge;isolation: isolate"/>
          <path id="Path_31820" data-name="Path 31820" d="M743.2,299.051A13.839,13.839,0,0,0,729.17,285.56,13.593,13.593,0,0,0,715.685,299.4a13.839,13.839,0,0,0,14.036,13.491A13.589,13.589,0,0,0,743.2,299.051Z" transform="translate(-561.223 -150.872)" fill="url(#radial-gradient-47)" style="mix-blend-mode: color-dodge;isolation: isolate"/>
          <ellipse id="Ellipse_371" data-name="Ellipse 371" cx="13.643" cy="13.783" rx="13.643" ry="13.783" transform="translate(42.207 239.531) rotate(-67.172)" fill="url(#radial-gradient-48)" style="mix-blend-mode: color-dodge;isolation: isolate"/>
        </g>
      </g>
      <g id="Group_6960" data-name="Group 6960" transform="translate(286.488 165.124)">
        <circle id="Ellipse_372" data-name="Ellipse 372" cx="42.683" cy="42.683" r="42.683" transform="translate(24.885 108.809)" fill="none" stroke="#707070" stroke-miterlimit="10" stroke-width="0.768" style="mix-blend-mode: overlay;isolation: isolate"/>
        <path id="Path_31821" data-name="Path 31821" d="M841.5,345.686a77.536,77.536,0,1,0,77.535,77.537A77.537,77.537,0,0,0,841.5,345.686Zm0,139.962a62.426,62.426,0,1,1,62.425-62.425A62.425,62.425,0,0,1,841.5,485.648Z" transform="translate(-500.206 -138.277)" fill="url(#linear-gradient-9)" style="mix-blend-mode: overlay;isolation: isolate"/>
        <path id="Path_31822" data-name="Path 31822" d="M688,279.106a67.323,67.323,0,1,0,67.323,67.323A67.324,67.324,0,0,0,688,279.106Zm0,121.525a54.2,54.2,0,1,1,54.2-54.2A54.2,54.2,0,0,1,688,400.631Z" transform="translate(-620.675 -194.253)" fill="url(#linear-gradient-10)" style="mix-blend-mode: overlay;isolation: isolate"/>
        <circle id="Ellipse_373" data-name="Ellipse 373" cx="56.567" cy="56.567" r="56.567" transform="translate(293.695)" fill="none" stroke="#707070" stroke-miterlimit="10" stroke-width="1.018" style="mix-blend-mode: overlay;isolation: isolate"/>
      </g>
    </g>
  </g>
</svg>
