<svg id="Component_9_1" data-name="Component 9 – 1" xmlns="http://www.w3.org/2000/svg" width="102.633" height="112.23" viewBox="0 0 102.633 112.23">
  <g id="hexagon">
    <g id="Group_3288" data-name="Group 3288" transform="translate(0)">
      <path id="Path_7037" data-name="Path 7037" d="M60.146,12.9A20.618,20.618,0,0,1,70.753,10a25.677,25.677,0,0,1,14.46,4.376l27.446,16.03s10.132,6.469,10.132,16.506V82.825a21.915,21.915,0,0,1-10.607,19.407c-11.606,7.135-30.823,17.457-30.823,17.457s-9.276,7.325-25.02-2.9L31.748,102.756S20.19,97.047,20.19,83.348V47.435s-.809-10.7,12.51-18.456Z" transform="translate(-20.18 -10)" fill="#72b63c"/>
    </g>
  </g>
  <g id="web-development-svgrepo-com" transform="translate(19.043 31.288)">
    <path id="Path_7182" data-name="Path 7182" d="M235.6,314.021a1.343,1.343,0,1,0,1.343,1.343A1.342,1.342,0,0,0,235.6,314.021Z" transform="translate(-204.987 -277.41)" fill="#fff"/>
    <path id="Path_7183" data-name="Path 7183" d="M59.974,21H1.249A1.249,1.249,0,0,0,0,22.252V63.167a1.25,1.25,0,0,0,1.249,1.249H23.079l-2.186,5.3H16.785a1.25,1.25,0,0,0-1.249,1.249v4.761a1.25,1.25,0,0,0,1.249,1.249H44.438a1.25,1.25,0,0,0,1.249-1.249V70.967a1.25,1.25,0,0,0-1.249-1.249H40.33l-2.186-5.3H59.974a1.25,1.25,0,0,0,1.249-1.249V22.252A1.249,1.249,0,0,0,59.974,21Zm-1.249,2.5V53.6H2.5V23.5ZM43.189,74.479H18.035V72.216H43.189Zm-5.562-4.761H23.6l2.186-5.3h9.66ZM2.5,61.917V56.1H58.724v5.817Z" transform="translate(0 -21.003)" fill="#fff"/>
    <path id="Path_7184" data-name="Path 7184" d="M186.339,92.724h0a1.249,1.249,0,0,0-1.25-1.249h-1.332a7.237,7.237,0,0,0-.336-1.259l1.152-.665a1.249,1.249,0,0,0-1.25-2.164l-1.155.667a7.357,7.357,0,0,0-.921-.921l.667-1.155a1.249,1.249,0,0,0-2.164-1.25l-.665,1.152a7.248,7.248,0,0,0-1.259-.336V84.211a1.249,1.249,0,0,0-1.249-1.249h-.019a1.25,1.25,0,0,0-1.249,1.249v1.332a7.234,7.234,0,0,0-1.259.336l-.665-1.152a1.249,1.249,0,1,0-2.164,1.25l.667,1.155a7.357,7.357,0,0,0-.921.921l-1.155-.667a1.249,1.249,0,0,0-1.25,2.164l1.152.665a7.236,7.236,0,0,0-.336,1.259h-1.332a1.249,1.249,0,0,0-1.25,1.249h0a1.25,1.25,0,0,0,1.25,1.249h1.332a7.227,7.227,0,0,0,.336,1.259l-1.152.665a1.249,1.249,0,0,0,1.25,2.164l1.155-.667a7.342,7.342,0,0,0,.921.921l-.667,1.155a1.249,1.249,0,0,0,2.164,1.25l.665-1.152a7.234,7.234,0,0,0,1.259.336v1.332a1.25,1.25,0,0,0,1.249,1.249h.019a1.249,1.249,0,0,0,1.249-1.249V99.9a7.223,7.223,0,0,0,1.259-.336l.665,1.152a1.249,1.249,0,0,0,2.164-1.25l-.667-1.155a7.343,7.343,0,0,0,.921-.921l1.155.667a1.249,1.249,0,0,0,1.25-2.164l-1.152-.665a7.239,7.239,0,0,0,.336-1.259h1.332a1.249,1.249,0,0,0,1.25-1.249Zm-9.762,4.791h-.019a4.791,4.791,0,0,1,0-9.582h.019a4.791,4.791,0,0,1,0,9.582Z" transform="translate(-145.955 -75.22)" fill="#fff"/>
  </g>
</svg>
